G04 #@! TF.GenerationSoftware,KiCad,Pcbnew,(5.1.5)-3*
G04 #@! TF.CreationDate,2020-04-26T20:22:25+03:00*
G04 #@! TF.ProjectId,PCB soldering test board,50434220-736f-46c6-9465-72696e672074,rev?*
G04 #@! TF.SameCoordinates,Original*
G04 #@! TF.FileFunction,Legend,Bot*
G04 #@! TF.FilePolarity,Positive*
%FSLAX46Y46*%
G04 Gerber Fmt 4.6, Leading zero omitted, Abs format (unit mm)*
G04 Created by KiCad (PCBNEW (5.1.5)-3) date 2020-04-26 20:22:25*
%MOMM*%
%LPD*%
G04 APERTURE LIST*
%ADD10C,0.300000*%
%ADD11C,0.150000*%
G04 APERTURE END LIST*
D10*
X118093011Y-110858542D02*
X117878725Y-110929971D01*
X117521582Y-110929971D01*
X117378725Y-110858542D01*
X117307297Y-110787114D01*
X117235868Y-110644257D01*
X117235868Y-110501400D01*
X117307297Y-110358542D01*
X117378725Y-110287114D01*
X117521582Y-110215685D01*
X117807297Y-110144257D01*
X117950154Y-110072828D01*
X118021582Y-110001400D01*
X118093011Y-109858542D01*
X118093011Y-109715685D01*
X118021582Y-109572828D01*
X117950154Y-109501400D01*
X117807297Y-109429971D01*
X117450154Y-109429971D01*
X117235868Y-109501400D01*
X116378725Y-110929971D02*
X116521582Y-110858542D01*
X116593011Y-110787114D01*
X116664440Y-110644257D01*
X116664440Y-110215685D01*
X116593011Y-110072828D01*
X116521582Y-110001400D01*
X116378725Y-109929971D01*
X116164440Y-109929971D01*
X116021582Y-110001400D01*
X115950154Y-110072828D01*
X115878725Y-110215685D01*
X115878725Y-110644257D01*
X115950154Y-110787114D01*
X116021582Y-110858542D01*
X116164440Y-110929971D01*
X116378725Y-110929971D01*
X115021582Y-110929971D02*
X115164440Y-110858542D01*
X115235868Y-110715685D01*
X115235868Y-109429971D01*
X113807297Y-110929971D02*
X113807297Y-109429971D01*
X113807297Y-110858542D02*
X113950154Y-110929971D01*
X114235868Y-110929971D01*
X114378725Y-110858542D01*
X114450154Y-110787114D01*
X114521582Y-110644257D01*
X114521582Y-110215685D01*
X114450154Y-110072828D01*
X114378725Y-110001400D01*
X114235868Y-109929971D01*
X113950154Y-109929971D01*
X113807297Y-110001400D01*
X112521582Y-110858542D02*
X112664440Y-110929971D01*
X112950154Y-110929971D01*
X113093011Y-110858542D01*
X113164440Y-110715685D01*
X113164440Y-110144257D01*
X113093011Y-110001400D01*
X112950154Y-109929971D01*
X112664440Y-109929971D01*
X112521582Y-110001400D01*
X112450154Y-110144257D01*
X112450154Y-110287114D01*
X113164440Y-110429971D01*
X111807297Y-110929971D02*
X111807297Y-109929971D01*
X111807297Y-110215685D02*
X111735868Y-110072828D01*
X111664440Y-110001400D01*
X111521582Y-109929971D01*
X111378725Y-109929971D01*
X110878725Y-110929971D02*
X110878725Y-109929971D01*
X110878725Y-109429971D02*
X110950154Y-109501400D01*
X110878725Y-109572828D01*
X110807297Y-109501400D01*
X110878725Y-109429971D01*
X110878725Y-109572828D01*
X110164440Y-109929971D02*
X110164440Y-110929971D01*
X110164440Y-110072828D02*
X110093011Y-110001400D01*
X109950154Y-109929971D01*
X109735868Y-109929971D01*
X109593011Y-110001400D01*
X109521582Y-110144257D01*
X109521582Y-110929971D01*
X108164440Y-109929971D02*
X108164440Y-111144257D01*
X108235868Y-111287114D01*
X108307297Y-111358542D01*
X108450154Y-111429971D01*
X108664440Y-111429971D01*
X108807297Y-111358542D01*
X108164440Y-110858542D02*
X108307297Y-110929971D01*
X108593011Y-110929971D01*
X108735868Y-110858542D01*
X108807297Y-110787114D01*
X108878725Y-110644257D01*
X108878725Y-110215685D01*
X108807297Y-110072828D01*
X108735868Y-110001400D01*
X108593011Y-109929971D01*
X108307297Y-109929971D01*
X108164440Y-110001400D01*
X106307297Y-110929971D02*
X106307297Y-109429971D01*
X105735868Y-109429971D01*
X105593011Y-109501400D01*
X105521582Y-109572828D01*
X105450154Y-109715685D01*
X105450154Y-109929971D01*
X105521582Y-110072828D01*
X105593011Y-110144257D01*
X105735868Y-110215685D01*
X106307297Y-110215685D01*
X104807297Y-110929971D02*
X104807297Y-109929971D01*
X104807297Y-110215685D02*
X104735868Y-110072828D01*
X104664440Y-110001400D01*
X104521582Y-109929971D01*
X104378725Y-109929971D01*
X103235868Y-110929971D02*
X103235868Y-110144257D01*
X103307297Y-110001400D01*
X103450154Y-109929971D01*
X103735868Y-109929971D01*
X103878725Y-110001400D01*
X103235868Y-110858542D02*
X103378725Y-110929971D01*
X103735868Y-110929971D01*
X103878725Y-110858542D01*
X103950154Y-110715685D01*
X103950154Y-110572828D01*
X103878725Y-110429971D01*
X103735868Y-110358542D01*
X103378725Y-110358542D01*
X103235868Y-110287114D01*
X101878725Y-110858542D02*
X102021582Y-110929971D01*
X102307297Y-110929971D01*
X102450154Y-110858542D01*
X102521582Y-110787114D01*
X102593011Y-110644257D01*
X102593011Y-110215685D01*
X102521582Y-110072828D01*
X102450154Y-110001400D01*
X102307297Y-109929971D01*
X102021582Y-109929971D01*
X101878725Y-110001400D01*
X101450154Y-109929971D02*
X100878725Y-109929971D01*
X101235868Y-109429971D02*
X101235868Y-110715685D01*
X101164440Y-110858542D01*
X101021582Y-110929971D01*
X100878725Y-110929971D01*
X100378725Y-110929971D02*
X100378725Y-109929971D01*
X100378725Y-109429971D02*
X100450154Y-109501400D01*
X100378725Y-109572828D01*
X100307297Y-109501400D01*
X100378725Y-109429971D01*
X100378725Y-109572828D01*
X99021582Y-110858542D02*
X99164440Y-110929971D01*
X99450154Y-110929971D01*
X99593011Y-110858542D01*
X99664440Y-110787114D01*
X99735868Y-110644257D01*
X99735868Y-110215685D01*
X99664440Y-110072828D01*
X99593011Y-110001400D01*
X99450154Y-109929971D01*
X99164440Y-109929971D01*
X99021582Y-110001400D01*
X97807297Y-110858542D02*
X97950154Y-110929971D01*
X98235868Y-110929971D01*
X98378725Y-110858542D01*
X98450154Y-110715685D01*
X98450154Y-110144257D01*
X98378725Y-110001400D01*
X98235868Y-109929971D01*
X97950154Y-109929971D01*
X97807297Y-110001400D01*
X97735868Y-110144257D01*
X97735868Y-110287114D01*
X98450154Y-110429971D01*
X118521582Y-113479971D02*
X118521582Y-111979971D01*
X117950154Y-111979971D01*
X117807297Y-112051400D01*
X117735868Y-112122828D01*
X117664440Y-112265685D01*
X117664440Y-112479971D01*
X117735868Y-112622828D01*
X117807297Y-112694257D01*
X117950154Y-112765685D01*
X118521582Y-112765685D01*
X117021582Y-113479971D02*
X117021582Y-112479971D01*
X117021582Y-112765685D02*
X116950154Y-112622828D01*
X116878725Y-112551400D01*
X116735868Y-112479971D01*
X116593011Y-112479971D01*
X115878725Y-113479971D02*
X116021582Y-113408542D01*
X116093011Y-113337114D01*
X116164440Y-113194257D01*
X116164440Y-112765685D01*
X116093011Y-112622828D01*
X116021582Y-112551400D01*
X115878725Y-112479971D01*
X115664440Y-112479971D01*
X115521582Y-112551400D01*
X115450154Y-112622828D01*
X115378725Y-112765685D01*
X115378725Y-113194257D01*
X115450154Y-113337114D01*
X115521582Y-113408542D01*
X115664440Y-113479971D01*
X115878725Y-113479971D01*
X114093011Y-113479971D02*
X114093011Y-111979971D01*
X114093011Y-113408542D02*
X114235868Y-113479971D01*
X114521582Y-113479971D01*
X114664440Y-113408542D01*
X114735868Y-113337114D01*
X114807297Y-113194257D01*
X114807297Y-112765685D01*
X114735868Y-112622828D01*
X114664440Y-112551400D01*
X114521582Y-112479971D01*
X114235868Y-112479971D01*
X114093011Y-112551400D01*
X113378725Y-113479971D02*
X113378725Y-112479971D01*
X113378725Y-112765685D02*
X113307297Y-112622828D01*
X113235868Y-112551400D01*
X113093011Y-112479971D01*
X112950154Y-112479971D01*
X112235868Y-113479971D02*
X112378725Y-113408542D01*
X112450154Y-113337114D01*
X112521582Y-113194257D01*
X112521582Y-112765685D01*
X112450154Y-112622828D01*
X112378725Y-112551400D01*
X112235868Y-112479971D01*
X112021582Y-112479971D01*
X111878725Y-112551400D01*
X111807297Y-112622828D01*
X111735868Y-112765685D01*
X111735868Y-113194257D01*
X111807297Y-113337114D01*
X111878725Y-113408542D01*
X112021582Y-113479971D01*
X112235868Y-113479971D01*
X111093011Y-113479971D02*
X111093011Y-112479971D01*
X111093011Y-112622828D02*
X111021582Y-112551400D01*
X110878725Y-112479971D01*
X110664440Y-112479971D01*
X110521582Y-112551400D01*
X110450154Y-112694257D01*
X110450154Y-113479971D01*
X110450154Y-112694257D02*
X110378725Y-112551400D01*
X110235868Y-112479971D01*
X110021582Y-112479971D01*
X109878725Y-112551400D01*
X109807297Y-112694257D01*
X109807297Y-113479971D01*
X108878725Y-113479971D02*
X109021582Y-113408542D01*
X109093011Y-113337114D01*
X109164440Y-113194257D01*
X109164440Y-112765685D01*
X109093011Y-112622828D01*
X109021582Y-112551400D01*
X108878725Y-112479971D01*
X108664440Y-112479971D01*
X108521582Y-112551400D01*
X108450154Y-112622828D01*
X108378725Y-112765685D01*
X108378725Y-113194257D01*
X108450154Y-113337114D01*
X108521582Y-113408542D01*
X108664440Y-113479971D01*
X108878725Y-113479971D01*
X107807297Y-113408542D02*
X107664440Y-113479971D01*
X107378725Y-113479971D01*
X107235868Y-113408542D01*
X107164440Y-113265685D01*
X107164440Y-113194257D01*
X107235868Y-113051400D01*
X107378725Y-112979971D01*
X107593011Y-112979971D01*
X107735868Y-112908542D01*
X107807297Y-112765685D01*
X107807297Y-112694257D01*
X107735868Y-112551400D01*
X107593011Y-112479971D01*
X107378725Y-112479971D01*
X107235868Y-112551400D01*
X105378725Y-113479971D02*
X105378725Y-111979971D01*
X104521582Y-113479971D02*
X105164440Y-112622828D01*
X104521582Y-111979971D02*
X105378725Y-112837114D01*
X103235868Y-113479971D02*
X103235868Y-112694257D01*
X103307297Y-112551400D01*
X103450154Y-112479971D01*
X103735868Y-112479971D01*
X103878725Y-112551400D01*
X103235868Y-113408542D02*
X103378725Y-113479971D01*
X103735868Y-113479971D01*
X103878725Y-113408542D01*
X103950154Y-113265685D01*
X103950154Y-113122828D01*
X103878725Y-112979971D01*
X103735868Y-112908542D01*
X103378725Y-112908542D01*
X103235868Y-112837114D01*
X102521582Y-113479971D02*
X102521582Y-112479971D01*
X102521582Y-112622828D02*
X102450154Y-112551400D01*
X102307297Y-112479971D01*
X102093011Y-112479971D01*
X101950154Y-112551400D01*
X101878725Y-112694257D01*
X101878725Y-113479971D01*
X101878725Y-112694257D02*
X101807297Y-112551400D01*
X101664440Y-112479971D01*
X101450154Y-112479971D01*
X101307297Y-112551400D01*
X101235868Y-112694257D01*
X101235868Y-113479971D01*
X100521582Y-112479971D02*
X100521582Y-113979971D01*
X100521582Y-112551400D02*
X100378725Y-112479971D01*
X100093011Y-112479971D01*
X99950154Y-112551400D01*
X99878725Y-112622828D01*
X99807297Y-112765685D01*
X99807297Y-113194257D01*
X99878725Y-113337114D01*
X99950154Y-113408542D01*
X100093011Y-113479971D01*
X100378725Y-113479971D01*
X100521582Y-113408542D01*
X98521582Y-113479971D02*
X98521582Y-112694257D01*
X98593011Y-112551400D01*
X98735868Y-112479971D01*
X99021582Y-112479971D01*
X99164440Y-112551400D01*
X98521582Y-113408542D02*
X98664440Y-113479971D01*
X99021582Y-113479971D01*
X99164440Y-113408542D01*
X99235868Y-113265685D01*
X99235868Y-113122828D01*
X99164440Y-112979971D01*
X99021582Y-112908542D01*
X98664440Y-112908542D01*
X98521582Y-112837114D01*
X97878725Y-113408542D02*
X97735868Y-113479971D01*
X97450154Y-113479971D01*
X97307297Y-113408542D01*
X97235868Y-113265685D01*
X97235868Y-113194257D01*
X97307297Y-113051400D01*
X97450154Y-112979971D01*
X97664440Y-112979971D01*
X97807297Y-112908542D01*
X97878725Y-112765685D01*
X97878725Y-112694257D01*
X97807297Y-112551400D01*
X97664440Y-112479971D01*
X97450154Y-112479971D01*
X97307297Y-112551400D01*
X134771582Y-115244257D02*
X134271582Y-115244257D01*
X134057297Y-116029971D02*
X134771582Y-116029971D01*
X134771582Y-114529971D01*
X134057297Y-114529971D01*
X133414440Y-116029971D02*
X133414440Y-115029971D01*
X133414440Y-115172828D02*
X133343011Y-115101400D01*
X133200154Y-115029971D01*
X132985868Y-115029971D01*
X132843011Y-115101400D01*
X132771582Y-115244257D01*
X132771582Y-116029971D01*
X132771582Y-115244257D02*
X132700154Y-115101400D01*
X132557297Y-115029971D01*
X132343011Y-115029971D01*
X132200154Y-115101400D01*
X132128725Y-115244257D01*
X132128725Y-116029971D01*
X131414440Y-116029971D02*
X131414440Y-114529971D01*
X131414440Y-115101400D02*
X131271582Y-115029971D01*
X130985868Y-115029971D01*
X130843011Y-115101400D01*
X130771582Y-115172828D01*
X130700154Y-115315685D01*
X130700154Y-115744257D01*
X130771582Y-115887114D01*
X130843011Y-115958542D01*
X130985868Y-116029971D01*
X131271582Y-116029971D01*
X131414440Y-115958542D01*
X129485868Y-115958542D02*
X129628725Y-116029971D01*
X129914440Y-116029971D01*
X130057297Y-115958542D01*
X130128725Y-115815685D01*
X130128725Y-115244257D01*
X130057297Y-115101400D01*
X129914440Y-115029971D01*
X129628725Y-115029971D01*
X129485868Y-115101400D01*
X129414440Y-115244257D01*
X129414440Y-115387114D01*
X130128725Y-115529971D01*
X128128725Y-116029971D02*
X128128725Y-114529971D01*
X128128725Y-115958542D02*
X128271582Y-116029971D01*
X128557297Y-116029971D01*
X128700154Y-115958542D01*
X128771582Y-115887114D01*
X128843011Y-115744257D01*
X128843011Y-115315685D01*
X128771582Y-115172828D01*
X128700154Y-115101400D01*
X128557297Y-115029971D01*
X128271582Y-115029971D01*
X128128725Y-115101400D01*
X126771582Y-116029971D02*
X126771582Y-114529971D01*
X126771582Y-115958542D02*
X126914440Y-116029971D01*
X127200154Y-116029971D01*
X127343011Y-115958542D01*
X127414440Y-115887114D01*
X127485868Y-115744257D01*
X127485868Y-115315685D01*
X127414440Y-115172828D01*
X127343011Y-115101400D01*
X127200154Y-115029971D01*
X126914440Y-115029971D01*
X126771582Y-115101400D01*
X125485868Y-115958542D02*
X125628725Y-116029971D01*
X125914440Y-116029971D01*
X126057297Y-115958542D01*
X126128725Y-115815685D01*
X126128725Y-115244257D01*
X126057297Y-115101400D01*
X125914440Y-115029971D01*
X125628725Y-115029971D01*
X125485868Y-115101400D01*
X125414440Y-115244257D01*
X125414440Y-115387114D01*
X126128725Y-115529971D01*
X124128725Y-116029971D02*
X124128725Y-114529971D01*
X124128725Y-115958542D02*
X124271582Y-116029971D01*
X124557297Y-116029971D01*
X124700154Y-115958542D01*
X124771582Y-115887114D01*
X124843011Y-115744257D01*
X124843011Y-115315685D01*
X124771582Y-115172828D01*
X124700154Y-115101400D01*
X124557297Y-115029971D01*
X124271582Y-115029971D01*
X124128725Y-115101400D01*
X122343011Y-115958542D02*
X122128725Y-116029971D01*
X121771582Y-116029971D01*
X121628725Y-115958542D01*
X121557297Y-115887114D01*
X121485868Y-115744257D01*
X121485868Y-115601400D01*
X121557297Y-115458542D01*
X121628725Y-115387114D01*
X121771582Y-115315685D01*
X122057297Y-115244257D01*
X122200154Y-115172828D01*
X122271582Y-115101400D01*
X122343011Y-114958542D01*
X122343011Y-114815685D01*
X122271582Y-114672828D01*
X122200154Y-114601400D01*
X122057297Y-114529971D01*
X121700154Y-114529971D01*
X121485868Y-114601400D01*
X120985868Y-115029971D02*
X120628725Y-116029971D01*
X120271582Y-115029971D02*
X120628725Y-116029971D01*
X120771582Y-116387114D01*
X120843011Y-116458542D01*
X120985868Y-116529971D01*
X119771582Y-115958542D02*
X119628725Y-116029971D01*
X119343011Y-116029971D01*
X119200154Y-115958542D01*
X119128725Y-115815685D01*
X119128725Y-115744257D01*
X119200154Y-115601400D01*
X119343011Y-115529971D01*
X119557297Y-115529971D01*
X119700154Y-115458542D01*
X119771582Y-115315685D01*
X119771582Y-115244257D01*
X119700154Y-115101400D01*
X119557297Y-115029971D01*
X119343011Y-115029971D01*
X119200154Y-115101400D01*
X118700154Y-115029971D02*
X118128725Y-115029971D01*
X118485868Y-114529971D02*
X118485868Y-115815685D01*
X118414440Y-115958542D01*
X118271582Y-116029971D01*
X118128725Y-116029971D01*
X117057297Y-115958542D02*
X117200154Y-116029971D01*
X117485868Y-116029971D01*
X117628725Y-115958542D01*
X117700154Y-115815685D01*
X117700154Y-115244257D01*
X117628725Y-115101400D01*
X117485868Y-115029971D01*
X117200154Y-115029971D01*
X117057297Y-115101400D01*
X116985868Y-115244257D01*
X116985868Y-115387114D01*
X117700154Y-115529971D01*
X116343011Y-116029971D02*
X116343011Y-115029971D01*
X116343011Y-115172828D02*
X116271582Y-115101400D01*
X116128725Y-115029971D01*
X115914440Y-115029971D01*
X115771582Y-115101400D01*
X115700154Y-115244257D01*
X115700154Y-116029971D01*
X115700154Y-115244257D02*
X115628725Y-115101400D01*
X115485868Y-115029971D01*
X115271582Y-115029971D01*
X115128725Y-115101400D01*
X115057297Y-115244257D01*
X115057297Y-116029971D01*
X114414440Y-115958542D02*
X114271582Y-116029971D01*
X113985868Y-116029971D01*
X113843011Y-115958542D01*
X113771582Y-115815685D01*
X113771582Y-115744257D01*
X113843011Y-115601400D01*
X113985868Y-115529971D01*
X114200154Y-115529971D01*
X114343011Y-115458542D01*
X114414440Y-115315685D01*
X114414440Y-115244257D01*
X114343011Y-115101400D01*
X114200154Y-115029971D01*
X113985868Y-115029971D01*
X113843011Y-115101400D01*
X111985868Y-115244257D02*
X111485868Y-115244257D01*
X111271582Y-116029971D02*
X111985868Y-116029971D01*
X111985868Y-114529971D01*
X111271582Y-114529971D01*
X110628725Y-115029971D02*
X110628725Y-116029971D01*
X110628725Y-115172828D02*
X110557297Y-115101400D01*
X110414440Y-115029971D01*
X110200154Y-115029971D01*
X110057297Y-115101400D01*
X109985868Y-115244257D01*
X109985868Y-116029971D01*
X108628725Y-115029971D02*
X108628725Y-116244257D01*
X108700154Y-116387114D01*
X108771582Y-116458542D01*
X108914440Y-116529971D01*
X109128725Y-116529971D01*
X109271582Y-116458542D01*
X108628725Y-115958542D02*
X108771582Y-116029971D01*
X109057297Y-116029971D01*
X109200154Y-115958542D01*
X109271582Y-115887114D01*
X109343011Y-115744257D01*
X109343011Y-115315685D01*
X109271582Y-115172828D01*
X109200154Y-115101400D01*
X109057297Y-115029971D01*
X108771582Y-115029971D01*
X108628725Y-115101400D01*
X107914440Y-116029971D02*
X107914440Y-115029971D01*
X107914440Y-114529971D02*
X107985868Y-114601400D01*
X107914440Y-114672828D01*
X107843011Y-114601400D01*
X107914440Y-114529971D01*
X107914440Y-114672828D01*
X107200154Y-115029971D02*
X107200154Y-116029971D01*
X107200154Y-115172828D02*
X107128725Y-115101400D01*
X106985868Y-115029971D01*
X106771582Y-115029971D01*
X106628725Y-115101400D01*
X106557297Y-115244257D01*
X106557297Y-116029971D01*
X105271582Y-115958542D02*
X105414440Y-116029971D01*
X105700154Y-116029971D01*
X105843011Y-115958542D01*
X105914440Y-115815685D01*
X105914440Y-115244257D01*
X105843011Y-115101400D01*
X105700154Y-115029971D01*
X105414440Y-115029971D01*
X105271582Y-115101400D01*
X105200154Y-115244257D01*
X105200154Y-115387114D01*
X105914440Y-115529971D01*
X103985868Y-115958542D02*
X104128725Y-116029971D01*
X104414440Y-116029971D01*
X104557297Y-115958542D01*
X104628725Y-115815685D01*
X104628725Y-115244257D01*
X104557297Y-115101400D01*
X104414440Y-115029971D01*
X104128725Y-115029971D01*
X103985868Y-115101400D01*
X103914440Y-115244257D01*
X103914440Y-115387114D01*
X104628725Y-115529971D01*
X103271582Y-116029971D02*
X103271582Y-115029971D01*
X103271582Y-115315685D02*
X103200154Y-115172828D01*
X103128725Y-115101400D01*
X102985868Y-115029971D01*
X102843011Y-115029971D01*
X102271582Y-115958542D02*
X102271582Y-116029971D01*
X102343011Y-116172828D01*
X102414440Y-116244257D01*
X100485868Y-115244257D02*
X99985868Y-115244257D01*
X99771582Y-116029971D02*
X100485868Y-116029971D01*
X100485868Y-114529971D01*
X99771582Y-114529971D01*
X98271582Y-115887114D02*
X98343011Y-115958542D01*
X98557297Y-116029971D01*
X98700154Y-116029971D01*
X98914440Y-115958542D01*
X99057297Y-115815685D01*
X99128725Y-115672828D01*
X99200154Y-115387114D01*
X99200154Y-115172828D01*
X99128725Y-114887114D01*
X99057297Y-114744257D01*
X98914440Y-114601400D01*
X98700154Y-114529971D01*
X98557297Y-114529971D01*
X98343011Y-114601400D01*
X98271582Y-114672828D01*
X97628725Y-115244257D02*
X97128725Y-115244257D01*
X96914440Y-116029971D02*
X97628725Y-116029971D01*
X97628725Y-114529971D01*
X96914440Y-114529971D01*
X95200154Y-115601400D02*
X94485868Y-115601400D01*
X95343011Y-116029971D02*
X94843011Y-114529971D01*
X94343011Y-116029971D01*
X93843011Y-114529971D02*
X93843011Y-115744257D01*
X93771582Y-115887114D01*
X93700154Y-115958542D01*
X93557297Y-116029971D01*
X93271582Y-116029971D01*
X93128725Y-115958542D01*
X93057297Y-115887114D01*
X92985868Y-115744257D01*
X92985868Y-114529971D01*
X92485868Y-114529971D02*
X91628725Y-114529971D01*
X92057297Y-116029971D02*
X92057297Y-114529971D01*
X91128725Y-116029971D02*
X91128725Y-114529971D01*
X90485868Y-116029971D02*
X90485868Y-115244257D01*
X90557297Y-115101400D01*
X90700154Y-115029971D01*
X90914440Y-115029971D01*
X91057297Y-115101400D01*
X91128725Y-115172828D01*
X89700154Y-115958542D02*
X89700154Y-116029971D01*
X89771582Y-116172828D01*
X89843011Y-116244257D01*
X87128725Y-114601400D02*
X87271582Y-114529971D01*
X87485868Y-114529971D01*
X87700154Y-114601400D01*
X87843011Y-114744257D01*
X87914440Y-114887114D01*
X87985868Y-115172828D01*
X87985868Y-115387114D01*
X87914440Y-115672828D01*
X87843011Y-115815685D01*
X87700154Y-115958542D01*
X87485868Y-116029971D01*
X87343011Y-116029971D01*
X87128725Y-115958542D01*
X87057297Y-115887114D01*
X87057297Y-115387114D01*
X87343011Y-115387114D01*
X86414440Y-116029971D02*
X86414440Y-115029971D01*
X86414440Y-115315685D02*
X86343011Y-115172828D01*
X86271582Y-115101400D01*
X86128725Y-115029971D01*
X85985868Y-115029971D01*
X84914440Y-115958542D02*
X85057297Y-116029971D01*
X85343011Y-116029971D01*
X85485868Y-115958542D01*
X85557297Y-115815685D01*
X85557297Y-115244257D01*
X85485868Y-115101400D01*
X85343011Y-115029971D01*
X85057297Y-115029971D01*
X84914440Y-115101400D01*
X84843011Y-115244257D01*
X84843011Y-115387114D01*
X85557297Y-115529971D01*
X83628725Y-115958542D02*
X83771582Y-116029971D01*
X84057297Y-116029971D01*
X84200154Y-115958542D01*
X84271582Y-115815685D01*
X84271582Y-115244257D01*
X84200154Y-115101400D01*
X84057297Y-115029971D01*
X83771582Y-115029971D01*
X83628725Y-115101400D01*
X83557297Y-115244257D01*
X83557297Y-115387114D01*
X84271582Y-115529971D01*
X82271582Y-115958542D02*
X82414440Y-116029971D01*
X82700154Y-116029971D01*
X82843011Y-115958542D01*
X82914440Y-115887114D01*
X82985868Y-115744257D01*
X82985868Y-115315685D01*
X82914440Y-115172828D01*
X82843011Y-115101400D01*
X82700154Y-115029971D01*
X82414440Y-115029971D01*
X82271582Y-115101400D01*
X81057297Y-115958542D02*
X81200154Y-116029971D01*
X81485868Y-116029971D01*
X81628725Y-115958542D01*
X81700154Y-115815685D01*
X81700154Y-115244257D01*
X81628725Y-115101400D01*
X81485868Y-115029971D01*
X81200154Y-115029971D01*
X81057297Y-115101400D01*
X80985868Y-115244257D01*
X80985868Y-115387114D01*
X81700154Y-115529971D01*
D11*
X78987900Y-67605080D02*
X77962900Y-67605080D01*
X89337900Y-68680080D02*
X88262900Y-68680080D01*
X89337900Y-58330080D02*
X88262900Y-58330080D01*
X78987900Y-58330080D02*
X80062900Y-58330080D01*
X78987900Y-68680080D02*
X80062900Y-68680080D01*
X78987900Y-58330080D02*
X78987900Y-59405080D01*
X89337900Y-58330080D02*
X89337900Y-59405080D01*
X89337900Y-68680080D02*
X89337900Y-67605080D01*
X78987900Y-68680080D02*
X78987900Y-67605080D01*
X99307900Y-67680080D02*
X98282900Y-67680080D01*
X109657900Y-68680080D02*
X108582900Y-68680080D01*
X109657900Y-58330080D02*
X108582900Y-58330080D01*
X99307900Y-58330080D02*
X100382900Y-58330080D01*
X99307900Y-68680080D02*
X100382900Y-68680080D01*
X99307900Y-58330080D02*
X99307900Y-59405080D01*
X109657900Y-58330080D02*
X109657900Y-59405080D01*
X109657900Y-68680080D02*
X109657900Y-67605080D01*
X99307900Y-68680080D02*
X99307900Y-67680080D01*
X72506420Y-92001340D02*
X71131420Y-92001340D01*
X79756420Y-92451340D02*
X79231420Y-92451340D01*
X79756420Y-85201340D02*
X79231420Y-85201340D01*
X72506420Y-85201340D02*
X73031420Y-85201340D01*
X72506420Y-92451340D02*
X73031420Y-92451340D01*
X72506420Y-85201340D02*
X72506420Y-85726340D01*
X79756420Y-85201340D02*
X79756420Y-85726340D01*
X79756420Y-92451340D02*
X79756420Y-91926340D01*
X72506420Y-92451340D02*
X72506420Y-92001340D01*
X113199760Y-92001340D02*
X111824760Y-92001340D01*
X120449760Y-92451340D02*
X119924760Y-92451340D01*
X120449760Y-85201340D02*
X119924760Y-85201340D01*
X113199760Y-85201340D02*
X113724760Y-85201340D01*
X113199760Y-92451340D02*
X113724760Y-92451340D01*
X113199760Y-85201340D02*
X113199760Y-85726340D01*
X120449760Y-85201340D02*
X120449760Y-85726340D01*
X120449760Y-92451340D02*
X120449760Y-91926340D01*
X113199760Y-92451340D02*
X113199760Y-92001340D01*
X92854360Y-92001340D02*
X91479360Y-92001340D01*
X100104360Y-92451340D02*
X99579360Y-92451340D01*
X100104360Y-85201340D02*
X99579360Y-85201340D01*
X92854360Y-85201340D02*
X93379360Y-85201340D01*
X92854360Y-92451340D02*
X93379360Y-92451340D01*
X92854360Y-85201340D02*
X92854360Y-85726340D01*
X100104360Y-85201340D02*
X100104360Y-85726340D01*
X100104360Y-92451340D02*
X100104360Y-91926340D01*
X92854360Y-92451340D02*
X92854360Y-92001340D01*
X84924804Y-70157460D02*
X84924804Y-70966984D01*
X84877185Y-71062222D01*
X84829566Y-71109841D01*
X84734328Y-71157460D01*
X84543852Y-71157460D01*
X84448614Y-71109841D01*
X84400995Y-71062222D01*
X84353376Y-70966984D01*
X84353376Y-70157460D01*
X83353376Y-71157460D02*
X83924804Y-71157460D01*
X83639090Y-71157460D02*
X83639090Y-70157460D01*
X83734328Y-70300318D01*
X83829566Y-70395556D01*
X83924804Y-70443175D01*
X105244804Y-70157460D02*
X105244804Y-70966984D01*
X105197185Y-71062222D01*
X105149566Y-71109841D01*
X105054328Y-71157460D01*
X104863852Y-71157460D01*
X104768614Y-71109841D01*
X104720995Y-71062222D01*
X104673376Y-70966984D01*
X104673376Y-70157460D01*
X104292423Y-70157460D02*
X103625757Y-70157460D01*
X104054328Y-71157460D01*
X77369515Y-94278720D02*
X77369515Y-95088244D01*
X77321896Y-95183482D01*
X77274277Y-95231101D01*
X77179039Y-95278720D01*
X76988562Y-95278720D01*
X76893324Y-95231101D01*
X76845705Y-95183482D01*
X76798086Y-95088244D01*
X76798086Y-94278720D01*
X75798086Y-95278720D02*
X76369515Y-95278720D01*
X76083800Y-95278720D02*
X76083800Y-94278720D01*
X76179039Y-94421578D01*
X76274277Y-94516816D01*
X76369515Y-94564435D01*
X75179039Y-94278720D02*
X75083800Y-94278720D01*
X74988562Y-94326340D01*
X74940943Y-94373959D01*
X74893324Y-94469197D01*
X74845705Y-94659673D01*
X74845705Y-94897768D01*
X74893324Y-95088244D01*
X74940943Y-95183482D01*
X74988562Y-95231101D01*
X75083800Y-95278720D01*
X75179039Y-95278720D01*
X75274277Y-95231101D01*
X75321896Y-95183482D01*
X75369515Y-95088244D01*
X75417134Y-94897768D01*
X75417134Y-94659673D01*
X75369515Y-94469197D01*
X75321896Y-94373959D01*
X75274277Y-94326340D01*
X75179039Y-94278720D01*
X117586664Y-94278720D02*
X117586664Y-95088244D01*
X117539045Y-95183482D01*
X117491426Y-95231101D01*
X117396188Y-95278720D01*
X117205712Y-95278720D01*
X117110474Y-95231101D01*
X117062855Y-95183482D01*
X117015236Y-95088244D01*
X117015236Y-94278720D01*
X116491426Y-95278720D02*
X116300950Y-95278720D01*
X116205712Y-95231101D01*
X116158093Y-95183482D01*
X116062855Y-95040625D01*
X116015236Y-94850149D01*
X116015236Y-94469197D01*
X116062855Y-94373959D01*
X116110474Y-94326340D01*
X116205712Y-94278720D01*
X116396188Y-94278720D01*
X116491426Y-94326340D01*
X116539045Y-94373959D01*
X116586664Y-94469197D01*
X116586664Y-94707292D01*
X116539045Y-94802530D01*
X116491426Y-94850149D01*
X116396188Y-94897768D01*
X116205712Y-94897768D01*
X116110474Y-94850149D01*
X116062855Y-94802530D01*
X116015236Y-94707292D01*
X97241264Y-94278720D02*
X97241264Y-95088244D01*
X97193645Y-95183482D01*
X97146026Y-95231101D01*
X97050788Y-95278720D01*
X96860312Y-95278720D01*
X96765074Y-95231101D01*
X96717455Y-95183482D01*
X96669836Y-95088244D01*
X96669836Y-94278720D01*
X96050788Y-94707292D02*
X96146026Y-94659673D01*
X96193645Y-94612054D01*
X96241264Y-94516816D01*
X96241264Y-94469197D01*
X96193645Y-94373959D01*
X96146026Y-94326340D01*
X96050788Y-94278720D01*
X95860312Y-94278720D01*
X95765074Y-94326340D01*
X95717455Y-94373959D01*
X95669836Y-94469197D01*
X95669836Y-94516816D01*
X95717455Y-94612054D01*
X95765074Y-94659673D01*
X95860312Y-94707292D01*
X96050788Y-94707292D01*
X96146026Y-94754911D01*
X96193645Y-94802530D01*
X96241264Y-94897768D01*
X96241264Y-95088244D01*
X96193645Y-95183482D01*
X96146026Y-95231101D01*
X96050788Y-95278720D01*
X95860312Y-95278720D01*
X95765074Y-95231101D01*
X95717455Y-95183482D01*
X95669836Y-95088244D01*
X95669836Y-94897768D01*
X95717455Y-94802530D01*
X95765074Y-94754911D01*
X95860312Y-94707292D01*
M02*
