G04 #@! TF.GenerationSoftware,KiCad,Pcbnew,(5.1.5)-3*
G04 #@! TF.CreationDate,2020-04-26T20:22:25+03:00*
G04 #@! TF.ProjectId,PCB soldering test board,50434220-736f-46c6-9465-72696e672074,rev?*
G04 #@! TF.SameCoordinates,Original*
G04 #@! TF.FileFunction,Legend,Top*
G04 #@! TF.FilePolarity,Positive*
%FSLAX46Y46*%
G04 Gerber Fmt 4.6, Leading zero omitted, Abs format (unit mm)*
G04 Created by KiCad (PCBNEW (5.1.5)-3) date 2020-04-26 20:22:25*
%MOMM*%
%LPD*%
G04 APERTURE LIST*
%ADD10C,0.300000*%
%ADD11C,0.120000*%
%ADD12C,0.150000*%
G04 APERTURE END LIST*
D10*
X64797968Y-39090682D02*
X65012254Y-39162111D01*
X65369397Y-39162111D01*
X65512254Y-39090682D01*
X65583682Y-39019254D01*
X65655111Y-38876397D01*
X65655111Y-38733540D01*
X65583682Y-38590682D01*
X65512254Y-38519254D01*
X65369397Y-38447825D01*
X65083682Y-38376397D01*
X64940825Y-38304968D01*
X64869397Y-38233540D01*
X64797968Y-38090682D01*
X64797968Y-37947825D01*
X64869397Y-37804968D01*
X64940825Y-37733540D01*
X65083682Y-37662111D01*
X65440825Y-37662111D01*
X65655111Y-37733540D01*
X66512254Y-39162111D02*
X66369397Y-39090682D01*
X66297968Y-39019254D01*
X66226540Y-38876397D01*
X66226540Y-38447825D01*
X66297968Y-38304968D01*
X66369397Y-38233540D01*
X66512254Y-38162111D01*
X66726540Y-38162111D01*
X66869397Y-38233540D01*
X66940825Y-38304968D01*
X67012254Y-38447825D01*
X67012254Y-38876397D01*
X66940825Y-39019254D01*
X66869397Y-39090682D01*
X66726540Y-39162111D01*
X66512254Y-39162111D01*
X67869397Y-39162111D02*
X67726540Y-39090682D01*
X67655111Y-38947825D01*
X67655111Y-37662111D01*
X69083682Y-39162111D02*
X69083682Y-37662111D01*
X69083682Y-39090682D02*
X68940825Y-39162111D01*
X68655111Y-39162111D01*
X68512254Y-39090682D01*
X68440825Y-39019254D01*
X68369397Y-38876397D01*
X68369397Y-38447825D01*
X68440825Y-38304968D01*
X68512254Y-38233540D01*
X68655111Y-38162111D01*
X68940825Y-38162111D01*
X69083682Y-38233540D01*
X70369397Y-39090682D02*
X70226540Y-39162111D01*
X69940825Y-39162111D01*
X69797968Y-39090682D01*
X69726540Y-38947825D01*
X69726540Y-38376397D01*
X69797968Y-38233540D01*
X69940825Y-38162111D01*
X70226540Y-38162111D01*
X70369397Y-38233540D01*
X70440825Y-38376397D01*
X70440825Y-38519254D01*
X69726540Y-38662111D01*
X71083682Y-39162111D02*
X71083682Y-38162111D01*
X71083682Y-38447825D02*
X71155111Y-38304968D01*
X71226540Y-38233540D01*
X71369397Y-38162111D01*
X71512254Y-38162111D01*
X72012254Y-39162111D02*
X72012254Y-38162111D01*
X72012254Y-37662111D02*
X71940825Y-37733540D01*
X72012254Y-37804968D01*
X72083682Y-37733540D01*
X72012254Y-37662111D01*
X72012254Y-37804968D01*
X72726540Y-38162111D02*
X72726540Y-39162111D01*
X72726540Y-38304968D02*
X72797968Y-38233540D01*
X72940825Y-38162111D01*
X73155111Y-38162111D01*
X73297968Y-38233540D01*
X73369397Y-38376397D01*
X73369397Y-39162111D01*
X74726540Y-38162111D02*
X74726540Y-39376397D01*
X74655111Y-39519254D01*
X74583682Y-39590682D01*
X74440825Y-39662111D01*
X74226540Y-39662111D01*
X74083682Y-39590682D01*
X74726540Y-39090682D02*
X74583682Y-39162111D01*
X74297968Y-39162111D01*
X74155111Y-39090682D01*
X74083682Y-39019254D01*
X74012254Y-38876397D01*
X74012254Y-38447825D01*
X74083682Y-38304968D01*
X74155111Y-38233540D01*
X74297968Y-38162111D01*
X74583682Y-38162111D01*
X74726540Y-38233540D01*
X76583682Y-39162111D02*
X76583682Y-37662111D01*
X77155111Y-37662111D01*
X77297968Y-37733540D01*
X77369397Y-37804968D01*
X77440825Y-37947825D01*
X77440825Y-38162111D01*
X77369397Y-38304968D01*
X77297968Y-38376397D01*
X77155111Y-38447825D01*
X76583682Y-38447825D01*
X78083682Y-39162111D02*
X78083682Y-38162111D01*
X78083682Y-38447825D02*
X78155111Y-38304968D01*
X78226540Y-38233540D01*
X78369397Y-38162111D01*
X78512254Y-38162111D01*
X79655111Y-39162111D02*
X79655111Y-38376397D01*
X79583682Y-38233540D01*
X79440825Y-38162111D01*
X79155111Y-38162111D01*
X79012254Y-38233540D01*
X79655111Y-39090682D02*
X79512254Y-39162111D01*
X79155111Y-39162111D01*
X79012254Y-39090682D01*
X78940825Y-38947825D01*
X78940825Y-38804968D01*
X79012254Y-38662111D01*
X79155111Y-38590682D01*
X79512254Y-38590682D01*
X79655111Y-38519254D01*
X81012254Y-39090682D02*
X80869397Y-39162111D01*
X80583682Y-39162111D01*
X80440825Y-39090682D01*
X80369397Y-39019254D01*
X80297968Y-38876397D01*
X80297968Y-38447825D01*
X80369397Y-38304968D01*
X80440825Y-38233540D01*
X80583682Y-38162111D01*
X80869397Y-38162111D01*
X81012254Y-38233540D01*
X81440825Y-38162111D02*
X82012254Y-38162111D01*
X81655111Y-37662111D02*
X81655111Y-38947825D01*
X81726540Y-39090682D01*
X81869397Y-39162111D01*
X82012254Y-39162111D01*
X82512254Y-39162111D02*
X82512254Y-38162111D01*
X82512254Y-37662111D02*
X82440825Y-37733540D01*
X82512254Y-37804968D01*
X82583682Y-37733540D01*
X82512254Y-37662111D01*
X82512254Y-37804968D01*
X83083682Y-38162111D02*
X83440825Y-39162111D01*
X83797968Y-38162111D01*
X84940825Y-39090682D02*
X84797968Y-39162111D01*
X84512254Y-39162111D01*
X84369397Y-39090682D01*
X84297968Y-38947825D01*
X84297968Y-38376397D01*
X84369397Y-38233540D01*
X84512254Y-38162111D01*
X84797968Y-38162111D01*
X84940825Y-38233540D01*
X85012254Y-38376397D01*
X85012254Y-38519254D01*
X84297968Y-38662111D01*
X86797968Y-39162111D02*
X86797968Y-37662111D01*
X87369397Y-37662111D01*
X87512254Y-37733540D01*
X87583682Y-37804968D01*
X87655111Y-37947825D01*
X87655111Y-38162111D01*
X87583682Y-38304968D01*
X87512254Y-38376397D01*
X87369397Y-38447825D01*
X86797968Y-38447825D01*
X89155111Y-39019254D02*
X89083682Y-39090682D01*
X88869397Y-39162111D01*
X88726540Y-39162111D01*
X88512254Y-39090682D01*
X88369397Y-38947825D01*
X88297968Y-38804968D01*
X88226540Y-38519254D01*
X88226540Y-38304968D01*
X88297968Y-38019254D01*
X88369397Y-37876397D01*
X88512254Y-37733540D01*
X88726540Y-37662111D01*
X88869397Y-37662111D01*
X89083682Y-37733540D01*
X89155111Y-37804968D01*
X90297968Y-38376397D02*
X90512254Y-38447825D01*
X90583682Y-38519254D01*
X90655111Y-38662111D01*
X90655111Y-38876397D01*
X90583682Y-39019254D01*
X90512254Y-39090682D01*
X90369397Y-39162111D01*
X89797968Y-39162111D01*
X89797968Y-37662111D01*
X90297968Y-37662111D01*
X90440825Y-37733540D01*
X90512254Y-37804968D01*
X90583682Y-37947825D01*
X90583682Y-38090682D01*
X90512254Y-38233540D01*
X90440825Y-38304968D01*
X90297968Y-38376397D01*
X89797968Y-38376397D01*
D11*
X87373980Y-102262380D02*
X88073980Y-102262380D01*
X88073980Y-103462380D02*
X87373980Y-103462380D01*
X94441760Y-103533500D02*
X93741760Y-103533500D01*
X93741760Y-102333500D02*
X94441760Y-102333500D01*
X93662880Y-112038500D02*
X94662880Y-112038500D01*
X94662880Y-110338500D02*
X93662880Y-110338500D01*
X94523180Y-106211000D02*
X93523180Y-106211000D01*
X93523180Y-107911000D02*
X94523180Y-107911000D01*
D12*
X119221140Y-119930020D02*
X119221140Y-120455020D01*
X114921140Y-124230020D02*
X114921140Y-123705020D01*
X119221140Y-124230020D02*
X119221140Y-123705020D01*
X114921140Y-119930020D02*
X115446140Y-119930020D01*
X114921140Y-124230020D02*
X115446140Y-124230020D01*
X119221140Y-124230020D02*
X118696140Y-124230020D01*
X119221140Y-119930020D02*
X118696140Y-119930020D01*
X97046940Y-119930020D02*
X96521940Y-119930020D01*
X97046940Y-124230020D02*
X96521940Y-124230020D01*
X92746940Y-124230020D02*
X93271940Y-124230020D01*
X92746940Y-119930020D02*
X93271940Y-119930020D01*
X97046940Y-124230020D02*
X97046940Y-123705020D01*
X92746940Y-124230020D02*
X92746940Y-123705020D01*
X97046940Y-119930020D02*
X97046940Y-120455020D01*
X136737760Y-119634600D02*
X136737760Y-120409600D01*
X133487760Y-122884600D02*
X133487760Y-122109600D01*
X136737760Y-122884600D02*
X136737760Y-122109600D01*
X133487760Y-119634600D02*
X134262760Y-119634600D01*
X133487760Y-122884600D02*
X134262760Y-122884600D01*
X136737760Y-122884600D02*
X135962760Y-122884600D01*
X136737760Y-119634600D02*
X135962760Y-119634600D01*
X152328280Y-119012300D02*
X151553280Y-119012300D01*
X152328280Y-122262300D02*
X151553280Y-122262300D01*
X149078280Y-122262300D02*
X149853280Y-122262300D01*
X149078280Y-119012300D02*
X149853280Y-119012300D01*
X152328280Y-122262300D02*
X152328280Y-121487300D01*
X149078280Y-122262300D02*
X149078280Y-121487300D01*
X152328280Y-119012300D02*
X152328280Y-119787300D01*
D11*
X77980740Y-117501540D02*
X77580740Y-117501540D01*
X81180740Y-120601540D02*
X81180740Y-120501540D01*
X80380740Y-120601540D02*
X81180740Y-120601540D01*
X77980740Y-120601540D02*
X78780740Y-120601540D01*
X77980740Y-120501540D02*
X77980740Y-120601540D01*
X81180740Y-117401540D02*
X81180740Y-117501540D01*
X80380740Y-117401540D02*
X81180740Y-117401540D01*
X77980740Y-117401540D02*
X77980740Y-117501540D01*
X78780740Y-117401540D02*
X77980740Y-117401540D01*
X63672820Y-117498060D02*
X62872820Y-117498060D01*
X62872820Y-117498060D02*
X62872820Y-117598060D01*
X65272820Y-117498060D02*
X66072820Y-117498060D01*
X66072820Y-117498060D02*
X66072820Y-117598060D01*
X62872820Y-120598060D02*
X62872820Y-120698060D01*
X62872820Y-120698060D02*
X63672820Y-120698060D01*
X65272820Y-120698060D02*
X66072820Y-120698060D01*
X66072820Y-120698060D02*
X66072820Y-120598060D01*
X62872820Y-117598060D02*
X62472820Y-117598060D01*
D12*
X68077500Y-43682500D02*
X67302500Y-43682500D01*
X68077500Y-46932500D02*
X67302500Y-46932500D01*
X64827500Y-46932500D02*
X65602500Y-46932500D01*
X64827500Y-43682500D02*
X65602500Y-43682500D01*
X68077500Y-46932500D02*
X68077500Y-46157500D01*
X64827500Y-46932500D02*
X64827500Y-46157500D01*
X68077500Y-43682500D02*
X68077500Y-44457500D01*
X65125000Y-79655000D02*
X65125000Y-80430000D01*
X61875000Y-82905000D02*
X61875000Y-82130000D01*
X65125000Y-82905000D02*
X65125000Y-82130000D01*
X61875000Y-79655000D02*
X62650000Y-79655000D01*
X61875000Y-82905000D02*
X62650000Y-82905000D01*
X65125000Y-82905000D02*
X64350000Y-82905000D01*
X65125000Y-79655000D02*
X64350000Y-79655000D01*
X65125000Y-92355000D02*
X64350000Y-92355000D01*
X65125000Y-95605000D02*
X64350000Y-95605000D01*
X61875000Y-95605000D02*
X62650000Y-95605000D01*
X61875000Y-92355000D02*
X62650000Y-92355000D01*
X65125000Y-95605000D02*
X65125000Y-94830000D01*
X61875000Y-95605000D02*
X61875000Y-94830000D01*
X65125000Y-92355000D02*
X65125000Y-93130000D01*
X65125000Y-105055000D02*
X65125000Y-105830000D01*
X61875000Y-108305000D02*
X61875000Y-107530000D01*
X65125000Y-108305000D02*
X65125000Y-107530000D01*
X61875000Y-105055000D02*
X62650000Y-105055000D01*
X61875000Y-108305000D02*
X62650000Y-108305000D01*
X65125000Y-108305000D02*
X64350000Y-108305000D01*
X65125000Y-105055000D02*
X64350000Y-105055000D01*
X67665000Y-64415000D02*
X66890000Y-64415000D01*
X67665000Y-67665000D02*
X66890000Y-67665000D01*
X64415000Y-67665000D02*
X65190000Y-67665000D01*
X64415000Y-64415000D02*
X65190000Y-64415000D01*
X67665000Y-67665000D02*
X67665000Y-66890000D01*
X64415000Y-67665000D02*
X64415000Y-66890000D01*
X67665000Y-64415000D02*
X67665000Y-65190000D01*
X67665000Y-54255000D02*
X67665000Y-55030000D01*
X64415000Y-57505000D02*
X64415000Y-56730000D01*
X67665000Y-57505000D02*
X67665000Y-56730000D01*
X64415000Y-54255000D02*
X65190000Y-54255000D01*
X64415000Y-57505000D02*
X65190000Y-57505000D01*
X67665000Y-57505000D02*
X66890000Y-57505000D01*
X67665000Y-54255000D02*
X66890000Y-54255000D01*
D11*
X131730000Y-83220000D02*
X132430000Y-83220000D01*
X132430000Y-84420000D02*
X131730000Y-84420000D01*
X124810000Y-71720000D02*
X124110000Y-71720000D01*
X124110000Y-70520000D02*
X124810000Y-70520000D01*
X124110000Y-75600000D02*
X124810000Y-75600000D01*
X124810000Y-76800000D02*
X124110000Y-76800000D01*
X114650000Y-76800000D02*
X113950000Y-76800000D01*
X113950000Y-75600000D02*
X114650000Y-75600000D01*
X92040000Y-42580000D02*
X92740000Y-42580000D01*
X92740000Y-43780000D02*
X92040000Y-43780000D01*
X145130000Y-99660000D02*
X144430000Y-99660000D01*
X144430000Y-98460000D02*
X145130000Y-98460000D01*
X131730000Y-98460000D02*
X132430000Y-98460000D01*
X132430000Y-99660000D02*
X131730000Y-99660000D01*
X142990000Y-82940000D02*
X144190000Y-82940000D01*
X144190000Y-84700000D02*
X142990000Y-84700000D01*
X145380000Y-92320000D02*
X144180000Y-92320000D01*
X144180000Y-90560000D02*
X145380000Y-90560000D01*
X131480000Y-90560000D02*
X132680000Y-90560000D01*
X132680000Y-92320000D02*
X131480000Y-92320000D01*
X102200000Y-77080000D02*
X101000000Y-77080000D01*
X101000000Y-75320000D02*
X102200000Y-75320000D01*
X85760000Y-75320000D02*
X86960000Y-75320000D01*
X86960000Y-77080000D02*
X85760000Y-77080000D01*
X74260000Y-77080000D02*
X73060000Y-77080000D01*
X73060000Y-75320000D02*
X74260000Y-75320000D01*
X150800000Y-107720000D02*
X150400000Y-107720000D01*
X154000000Y-110820000D02*
X154000000Y-110720000D01*
X153200000Y-110820000D02*
X154000000Y-110820000D01*
X150800000Y-110820000D02*
X151600000Y-110820000D01*
X150800000Y-110720000D02*
X150800000Y-110820000D01*
X154000000Y-107620000D02*
X154000000Y-107720000D01*
X153200000Y-107620000D02*
X154000000Y-107620000D01*
X150800000Y-107620000D02*
X150800000Y-107720000D01*
X151600000Y-107620000D02*
X150800000Y-107620000D01*
D12*
X141325000Y-43595000D02*
X141325000Y-44120000D01*
X138075000Y-47845000D02*
X138075000Y-47320000D01*
X141325000Y-47845000D02*
X141325000Y-47320000D01*
X138075000Y-43595000D02*
X138600000Y-43595000D01*
X138075000Y-47845000D02*
X138600000Y-47845000D01*
X141325000Y-47845000D02*
X140800000Y-47845000D01*
X141325000Y-43595000D02*
X140800000Y-43595000D01*
X123545000Y-43595000D02*
X123545000Y-44120000D01*
X120295000Y-47845000D02*
X120295000Y-47320000D01*
X123545000Y-47845000D02*
X123545000Y-47320000D01*
X120295000Y-43595000D02*
X120820000Y-43595000D01*
X120295000Y-47845000D02*
X120820000Y-47845000D01*
X123545000Y-47845000D02*
X123020000Y-47845000D01*
X123545000Y-43595000D02*
X123020000Y-43595000D01*
X105765000Y-43595000D02*
X105765000Y-44120000D01*
X102515000Y-47845000D02*
X102515000Y-47320000D01*
X105765000Y-47845000D02*
X105765000Y-47320000D01*
X102515000Y-43595000D02*
X103040000Y-43595000D01*
X102515000Y-47845000D02*
X103040000Y-47845000D01*
X105765000Y-47845000D02*
X105240000Y-47845000D01*
X105765000Y-43595000D02*
X105240000Y-43595000D01*
X80365000Y-43595000D02*
X80365000Y-44120000D01*
X77115000Y-47845000D02*
X77115000Y-47320000D01*
X80365000Y-47845000D02*
X80365000Y-47320000D01*
X77115000Y-43595000D02*
X77640000Y-43595000D01*
X77115000Y-47845000D02*
X77640000Y-47845000D01*
X80365000Y-47845000D02*
X79840000Y-47845000D01*
X80365000Y-43595000D02*
X79840000Y-43595000D01*
D11*
X130480000Y-107720000D02*
X130080000Y-107720000D01*
X133680000Y-110820000D02*
X133680000Y-110720000D01*
X132880000Y-110820000D02*
X133680000Y-110820000D01*
X130480000Y-110820000D02*
X131280000Y-110820000D01*
X130480000Y-110720000D02*
X130480000Y-110820000D01*
X133680000Y-107620000D02*
X133680000Y-107720000D01*
X132880000Y-107620000D02*
X133680000Y-107620000D01*
X130480000Y-107620000D02*
X130480000Y-107720000D01*
X131280000Y-107620000D02*
X130480000Y-107620000D01*
X105080000Y-107720000D02*
X104680000Y-107720000D01*
X108280000Y-110820000D02*
X108280000Y-110720000D01*
X107480000Y-110820000D02*
X108280000Y-110820000D01*
X105080000Y-110820000D02*
X105880000Y-110820000D01*
X105080000Y-110720000D02*
X105080000Y-110820000D01*
X108280000Y-107620000D02*
X108280000Y-107720000D01*
X107480000Y-107620000D02*
X108280000Y-107620000D01*
X105080000Y-107620000D02*
X105080000Y-107720000D01*
X105880000Y-107620000D02*
X105080000Y-107620000D01*
X79680000Y-107720000D02*
X79280000Y-107720000D01*
X82880000Y-110820000D02*
X82880000Y-110720000D01*
X82080000Y-110820000D02*
X82880000Y-110820000D01*
X79680000Y-110820000D02*
X80480000Y-110820000D01*
X79680000Y-110720000D02*
X79680000Y-110820000D01*
X82880000Y-107620000D02*
X82880000Y-107720000D01*
X82080000Y-107620000D02*
X82880000Y-107620000D01*
X79680000Y-107620000D02*
X79680000Y-107720000D01*
X80480000Y-107620000D02*
X79680000Y-107620000D01*
D12*
X72575000Y-85275000D02*
X72575000Y-85725000D01*
X79825000Y-85275000D02*
X79825000Y-85800000D01*
X79825000Y-92525000D02*
X79825000Y-92000000D01*
X72575000Y-92525000D02*
X72575000Y-92000000D01*
X72575000Y-85275000D02*
X73100000Y-85275000D01*
X72575000Y-92525000D02*
X73100000Y-92525000D01*
X79825000Y-92525000D02*
X79300000Y-92525000D01*
X79825000Y-85275000D02*
X79300000Y-85275000D01*
X72575000Y-85725000D02*
X71200000Y-85725000D01*
X113215000Y-85275000D02*
X113215000Y-85725000D01*
X120465000Y-85275000D02*
X120465000Y-85800000D01*
X120465000Y-92525000D02*
X120465000Y-92000000D01*
X113215000Y-92525000D02*
X113215000Y-92000000D01*
X113215000Y-85275000D02*
X113740000Y-85275000D01*
X113215000Y-92525000D02*
X113740000Y-92525000D01*
X120465000Y-92525000D02*
X119940000Y-92525000D01*
X120465000Y-85275000D02*
X119940000Y-85275000D01*
X113215000Y-85725000D02*
X111840000Y-85725000D01*
X92895000Y-85275000D02*
X92895000Y-85725000D01*
X100145000Y-85275000D02*
X100145000Y-85800000D01*
X100145000Y-92525000D02*
X100145000Y-92000000D01*
X92895000Y-92525000D02*
X92895000Y-92000000D01*
X92895000Y-85275000D02*
X93420000Y-85275000D01*
X92895000Y-92525000D02*
X93420000Y-92525000D01*
X100145000Y-92525000D02*
X99620000Y-92525000D01*
X100145000Y-85275000D02*
X99620000Y-85275000D01*
X92895000Y-85725000D02*
X91520000Y-85725000D01*
X98965000Y-58325000D02*
X98965000Y-59325000D01*
X109315000Y-58325000D02*
X109315000Y-59400000D01*
X109315000Y-68675000D02*
X109315000Y-67600000D01*
X98965000Y-68675000D02*
X98965000Y-67600000D01*
X98965000Y-58325000D02*
X100040000Y-58325000D01*
X98965000Y-68675000D02*
X100040000Y-68675000D01*
X109315000Y-68675000D02*
X108240000Y-68675000D01*
X109315000Y-58325000D02*
X108240000Y-58325000D01*
X98965000Y-59325000D02*
X97940000Y-59325000D01*
X155200000Y-56920000D02*
X155200000Y-57445000D01*
X150900000Y-61220000D02*
X150900000Y-60695000D01*
X155200000Y-61220000D02*
X155200000Y-60695000D01*
X150900000Y-56920000D02*
X151425000Y-56920000D01*
X150900000Y-61220000D02*
X151425000Y-61220000D01*
X155200000Y-61220000D02*
X154675000Y-61220000D01*
X155200000Y-56920000D02*
X154675000Y-56920000D01*
X153960000Y-69720000D02*
X153960000Y-70245000D01*
X149660000Y-74020000D02*
X149660000Y-73495000D01*
X153960000Y-74020000D02*
X153960000Y-73495000D01*
X149660000Y-69720000D02*
X150185000Y-69720000D01*
X149660000Y-74020000D02*
X150185000Y-74020000D01*
X153960000Y-74020000D02*
X153435000Y-74020000D01*
X153960000Y-69720000D02*
X153435000Y-69720000D01*
X139960000Y-69620000D02*
X139960000Y-70145000D01*
X135660000Y-73920000D02*
X135660000Y-73395000D01*
X139960000Y-73920000D02*
X139960000Y-73395000D01*
X135660000Y-69620000D02*
X136185000Y-69620000D01*
X135660000Y-73920000D02*
X136185000Y-73920000D01*
X139960000Y-73920000D02*
X139435000Y-73920000D01*
X139960000Y-69620000D02*
X139435000Y-69620000D01*
X139960000Y-56920000D02*
X139960000Y-57445000D01*
X135660000Y-61220000D02*
X135660000Y-60695000D01*
X139960000Y-61220000D02*
X139960000Y-60695000D01*
X135660000Y-56920000D02*
X136185000Y-56920000D01*
X135660000Y-61220000D02*
X136185000Y-61220000D01*
X139960000Y-61220000D02*
X139435000Y-61220000D01*
X139960000Y-56920000D02*
X139435000Y-56920000D01*
X124720000Y-56920000D02*
X124720000Y-57445000D01*
X120420000Y-61220000D02*
X120420000Y-60695000D01*
X124720000Y-61220000D02*
X124720000Y-60695000D01*
X120420000Y-56920000D02*
X120945000Y-56920000D01*
X120420000Y-61220000D02*
X120945000Y-61220000D01*
X124720000Y-61220000D02*
X124195000Y-61220000D01*
X124720000Y-56920000D02*
X124195000Y-56920000D01*
X78645000Y-58325000D02*
X78645000Y-59400000D01*
X88995000Y-58325000D02*
X88995000Y-59400000D01*
X88995000Y-68675000D02*
X88995000Y-67600000D01*
X78645000Y-68675000D02*
X78645000Y-67600000D01*
X78645000Y-58325000D02*
X79720000Y-58325000D01*
X78645000Y-68675000D02*
X79720000Y-68675000D01*
X88995000Y-68675000D02*
X87920000Y-68675000D01*
X88995000Y-58325000D02*
X87920000Y-58325000D01*
X78645000Y-59400000D02*
X77620000Y-59400000D01*
X80434371Y-100706940D02*
X80529609Y-100706940D01*
X80624847Y-100754560D01*
X80672466Y-100802179D01*
X80720085Y-100897417D01*
X80767704Y-101087893D01*
X80767704Y-101325988D01*
X80720085Y-101516464D01*
X80672466Y-101611702D01*
X80624847Y-101659321D01*
X80529609Y-101706940D01*
X80434371Y-101706940D01*
X80339133Y-101659321D01*
X80291514Y-101611702D01*
X80243895Y-101516464D01*
X80196276Y-101325988D01*
X80196276Y-101087893D01*
X80243895Y-100897417D01*
X80291514Y-100802179D01*
X80339133Y-100754560D01*
X80434371Y-100706940D01*
X81624847Y-100706940D02*
X81434371Y-100706940D01*
X81339133Y-100754560D01*
X81291514Y-100802179D01*
X81196276Y-100945036D01*
X81148657Y-101135512D01*
X81148657Y-101516464D01*
X81196276Y-101611702D01*
X81243895Y-101659321D01*
X81339133Y-101706940D01*
X81529609Y-101706940D01*
X81624847Y-101659321D01*
X81672466Y-101611702D01*
X81720085Y-101516464D01*
X81720085Y-101278369D01*
X81672466Y-101183131D01*
X81624847Y-101135512D01*
X81529609Y-101087893D01*
X81339133Y-101087893D01*
X81243895Y-101135512D01*
X81196276Y-101183131D01*
X81148657Y-101278369D01*
X82339133Y-100706940D02*
X82434371Y-100706940D01*
X82529609Y-100754560D01*
X82577228Y-100802179D01*
X82624847Y-100897417D01*
X82672466Y-101087893D01*
X82672466Y-101325988D01*
X82624847Y-101516464D01*
X82577228Y-101611702D01*
X82529609Y-101659321D01*
X82434371Y-101706940D01*
X82339133Y-101706940D01*
X82243895Y-101659321D01*
X82196276Y-101611702D01*
X82148657Y-101516464D01*
X82101038Y-101325988D01*
X82101038Y-101087893D01*
X82148657Y-100897417D01*
X82196276Y-100802179D01*
X82243895Y-100754560D01*
X82339133Y-100706940D01*
X83005800Y-100706940D02*
X83624847Y-100706940D01*
X83291514Y-101087893D01*
X83434371Y-101087893D01*
X83529609Y-101135512D01*
X83577228Y-101183131D01*
X83624847Y-101278369D01*
X83624847Y-101516464D01*
X83577228Y-101611702D01*
X83529609Y-101659321D01*
X83434371Y-101706940D01*
X83148657Y-101706940D01*
X83053419Y-101659321D01*
X83005800Y-101611702D01*
X84053419Y-101040274D02*
X84053419Y-101706940D01*
X84053419Y-101135512D02*
X84101038Y-101087893D01*
X84196276Y-101040274D01*
X84339133Y-101040274D01*
X84434371Y-101087893D01*
X84481990Y-101183131D01*
X84481990Y-101706940D01*
X85101038Y-101706940D02*
X85005800Y-101659321D01*
X84958180Y-101611702D01*
X84910561Y-101516464D01*
X84910561Y-101230750D01*
X84958180Y-101135512D01*
X85005800Y-101087893D01*
X85101038Y-101040274D01*
X85243895Y-101040274D01*
X85339133Y-101087893D01*
X85386752Y-101135512D01*
X85434371Y-101230750D01*
X85434371Y-101516464D01*
X85386752Y-101611702D01*
X85339133Y-101659321D01*
X85243895Y-101706940D01*
X85101038Y-101706940D01*
X85862942Y-101706940D02*
X85862942Y-101040274D01*
X85862942Y-101230750D02*
X85910561Y-101135512D01*
X85958180Y-101087893D01*
X86053419Y-101040274D01*
X86148657Y-101040274D01*
X86481990Y-101706940D02*
X86481990Y-101040274D01*
X86481990Y-101135512D02*
X86529609Y-101087893D01*
X86624847Y-101040274D01*
X86767704Y-101040274D01*
X86862942Y-101087893D01*
X86910561Y-101183131D01*
X86910561Y-101706940D01*
X86910561Y-101183131D02*
X86958180Y-101087893D01*
X87053419Y-101040274D01*
X87196276Y-101040274D01*
X87291514Y-101087893D01*
X87339133Y-101183131D01*
X87339133Y-101706940D01*
X88243895Y-101706940D02*
X88243895Y-101183131D01*
X88196276Y-101087893D01*
X88101038Y-101040274D01*
X87910561Y-101040274D01*
X87815323Y-101087893D01*
X88243895Y-101659321D02*
X88148657Y-101706940D01*
X87910561Y-101706940D01*
X87815323Y-101659321D01*
X87767704Y-101564083D01*
X87767704Y-101468845D01*
X87815323Y-101373607D01*
X87910561Y-101325988D01*
X88148657Y-101325988D01*
X88243895Y-101278369D01*
X88862942Y-101706940D02*
X88767704Y-101659321D01*
X88720085Y-101564083D01*
X88720085Y-100706940D01*
X93657611Y-100775520D02*
X93752849Y-100775520D01*
X93848087Y-100823140D01*
X93895706Y-100870759D01*
X93943325Y-100965997D01*
X93990944Y-101156473D01*
X93990944Y-101394568D01*
X93943325Y-101585044D01*
X93895706Y-101680282D01*
X93848087Y-101727901D01*
X93752849Y-101775520D01*
X93657611Y-101775520D01*
X93562373Y-101727901D01*
X93514754Y-101680282D01*
X93467135Y-101585044D01*
X93419516Y-101394568D01*
X93419516Y-101156473D01*
X93467135Y-100965997D01*
X93514754Y-100870759D01*
X93562373Y-100823140D01*
X93657611Y-100775520D01*
X94848087Y-100775520D02*
X94657611Y-100775520D01*
X94562373Y-100823140D01*
X94514754Y-100870759D01*
X94419516Y-101013616D01*
X94371897Y-101204092D01*
X94371897Y-101585044D01*
X94419516Y-101680282D01*
X94467135Y-101727901D01*
X94562373Y-101775520D01*
X94752849Y-101775520D01*
X94848087Y-101727901D01*
X94895706Y-101680282D01*
X94943325Y-101585044D01*
X94943325Y-101346949D01*
X94895706Y-101251711D01*
X94848087Y-101204092D01*
X94752849Y-101156473D01*
X94562373Y-101156473D01*
X94467135Y-101204092D01*
X94419516Y-101251711D01*
X94371897Y-101346949D01*
X95562373Y-100775520D02*
X95657611Y-100775520D01*
X95752849Y-100823140D01*
X95800468Y-100870759D01*
X95848087Y-100965997D01*
X95895706Y-101156473D01*
X95895706Y-101394568D01*
X95848087Y-101585044D01*
X95800468Y-101680282D01*
X95752849Y-101727901D01*
X95657611Y-101775520D01*
X95562373Y-101775520D01*
X95467135Y-101727901D01*
X95419516Y-101680282D01*
X95371897Y-101585044D01*
X95324278Y-101394568D01*
X95324278Y-101156473D01*
X95371897Y-100965997D01*
X95419516Y-100870759D01*
X95467135Y-100823140D01*
X95562373Y-100775520D01*
X96229040Y-100775520D02*
X96848087Y-100775520D01*
X96514754Y-101156473D01*
X96657611Y-101156473D01*
X96752849Y-101204092D01*
X96800468Y-101251711D01*
X96848087Y-101346949D01*
X96848087Y-101585044D01*
X96800468Y-101680282D01*
X96752849Y-101727901D01*
X96657611Y-101775520D01*
X96371897Y-101775520D01*
X96276659Y-101727901D01*
X96229040Y-101680282D01*
X97276659Y-101108854D02*
X97276659Y-101775520D01*
X97276659Y-101204092D02*
X97324278Y-101156473D01*
X97419516Y-101108854D01*
X97562373Y-101108854D01*
X97657611Y-101156473D01*
X97705230Y-101251711D01*
X97705230Y-101775520D01*
X98324278Y-101775520D02*
X98229040Y-101727901D01*
X98181420Y-101680282D01*
X98133801Y-101585044D01*
X98133801Y-101299330D01*
X98181420Y-101204092D01*
X98229040Y-101156473D01*
X98324278Y-101108854D01*
X98467135Y-101108854D01*
X98562373Y-101156473D01*
X98609992Y-101204092D01*
X98657611Y-101299330D01*
X98657611Y-101585044D01*
X98609992Y-101680282D01*
X98562373Y-101727901D01*
X98467135Y-101775520D01*
X98324278Y-101775520D01*
X99086182Y-101775520D02*
X99086182Y-101108854D01*
X99086182Y-101299330D02*
X99133801Y-101204092D01*
X99181420Y-101156473D01*
X99276659Y-101108854D01*
X99371897Y-101108854D01*
X99705230Y-101775520D02*
X99705230Y-101108854D01*
X99705230Y-101204092D02*
X99752849Y-101156473D01*
X99848087Y-101108854D01*
X99990944Y-101108854D01*
X100086182Y-101156473D01*
X100133801Y-101251711D01*
X100133801Y-101775520D01*
X100133801Y-101251711D02*
X100181420Y-101156473D01*
X100276659Y-101108854D01*
X100419516Y-101108854D01*
X100514754Y-101156473D01*
X100562373Y-101251711D01*
X100562373Y-101775520D01*
X101467135Y-101775520D02*
X101467135Y-101251711D01*
X101419516Y-101156473D01*
X101324278Y-101108854D01*
X101133801Y-101108854D01*
X101038563Y-101156473D01*
X101467135Y-101727901D02*
X101371897Y-101775520D01*
X101133801Y-101775520D01*
X101038563Y-101727901D01*
X100990944Y-101632663D01*
X100990944Y-101537425D01*
X101038563Y-101442187D01*
X101133801Y-101394568D01*
X101371897Y-101394568D01*
X101467135Y-101346949D01*
X102086182Y-101775520D02*
X101990944Y-101727901D01*
X101943325Y-101632663D01*
X101943325Y-100775520D01*
X90091451Y-109140880D02*
X90186689Y-109140880D01*
X90281927Y-109188500D01*
X90329546Y-109236119D01*
X90377165Y-109331357D01*
X90424784Y-109521833D01*
X90424784Y-109759928D01*
X90377165Y-109950404D01*
X90329546Y-110045642D01*
X90281927Y-110093261D01*
X90186689Y-110140880D01*
X90091451Y-110140880D01*
X89996213Y-110093261D01*
X89948594Y-110045642D01*
X89900975Y-109950404D01*
X89853356Y-109759928D01*
X89853356Y-109521833D01*
X89900975Y-109331357D01*
X89948594Y-109236119D01*
X89996213Y-109188500D01*
X90091451Y-109140880D01*
X90996213Y-109569452D02*
X90900975Y-109521833D01*
X90853356Y-109474214D01*
X90805737Y-109378976D01*
X90805737Y-109331357D01*
X90853356Y-109236119D01*
X90900975Y-109188500D01*
X90996213Y-109140880D01*
X91186689Y-109140880D01*
X91281927Y-109188500D01*
X91329546Y-109236119D01*
X91377165Y-109331357D01*
X91377165Y-109378976D01*
X91329546Y-109474214D01*
X91281927Y-109521833D01*
X91186689Y-109569452D01*
X90996213Y-109569452D01*
X90900975Y-109617071D01*
X90853356Y-109664690D01*
X90805737Y-109759928D01*
X90805737Y-109950404D01*
X90853356Y-110045642D01*
X90900975Y-110093261D01*
X90996213Y-110140880D01*
X91186689Y-110140880D01*
X91281927Y-110093261D01*
X91329546Y-110045642D01*
X91377165Y-109950404D01*
X91377165Y-109759928D01*
X91329546Y-109664690D01*
X91281927Y-109617071D01*
X91186689Y-109569452D01*
X91996213Y-109140880D02*
X92091451Y-109140880D01*
X92186689Y-109188500D01*
X92234308Y-109236119D01*
X92281927Y-109331357D01*
X92329546Y-109521833D01*
X92329546Y-109759928D01*
X92281927Y-109950404D01*
X92234308Y-110045642D01*
X92186689Y-110093261D01*
X92091451Y-110140880D01*
X91996213Y-110140880D01*
X91900975Y-110093261D01*
X91853356Y-110045642D01*
X91805737Y-109950404D01*
X91758118Y-109759928D01*
X91758118Y-109521833D01*
X91805737Y-109331357D01*
X91853356Y-109236119D01*
X91900975Y-109188500D01*
X91996213Y-109140880D01*
X93234308Y-109140880D02*
X92758118Y-109140880D01*
X92710499Y-109617071D01*
X92758118Y-109569452D01*
X92853356Y-109521833D01*
X93091451Y-109521833D01*
X93186689Y-109569452D01*
X93234308Y-109617071D01*
X93281927Y-109712309D01*
X93281927Y-109950404D01*
X93234308Y-110045642D01*
X93186689Y-110093261D01*
X93091451Y-110140880D01*
X92853356Y-110140880D01*
X92758118Y-110093261D01*
X92710499Y-110045642D01*
X93710499Y-109474214D02*
X93710499Y-110140880D01*
X93710499Y-109569452D02*
X93758118Y-109521833D01*
X93853356Y-109474214D01*
X93996213Y-109474214D01*
X94091451Y-109521833D01*
X94139070Y-109617071D01*
X94139070Y-110140880D01*
X94758118Y-110140880D02*
X94662880Y-110093261D01*
X94615260Y-110045642D01*
X94567641Y-109950404D01*
X94567641Y-109664690D01*
X94615260Y-109569452D01*
X94662880Y-109521833D01*
X94758118Y-109474214D01*
X94900975Y-109474214D01*
X94996213Y-109521833D01*
X95043832Y-109569452D01*
X95091451Y-109664690D01*
X95091451Y-109950404D01*
X95043832Y-110045642D01*
X94996213Y-110093261D01*
X94900975Y-110140880D01*
X94758118Y-110140880D01*
X95520022Y-110140880D02*
X95520022Y-109474214D01*
X95520022Y-109664690D02*
X95567641Y-109569452D01*
X95615260Y-109521833D01*
X95710499Y-109474214D01*
X95805737Y-109474214D01*
X96139070Y-110140880D02*
X96139070Y-109474214D01*
X96139070Y-109569452D02*
X96186689Y-109521833D01*
X96281927Y-109474214D01*
X96424784Y-109474214D01*
X96520022Y-109521833D01*
X96567641Y-109617071D01*
X96567641Y-110140880D01*
X96567641Y-109617071D02*
X96615260Y-109521833D01*
X96710499Y-109474214D01*
X96853356Y-109474214D01*
X96948594Y-109521833D01*
X96996213Y-109617071D01*
X96996213Y-110140880D01*
X97900975Y-110140880D02*
X97900975Y-109617071D01*
X97853356Y-109521833D01*
X97758118Y-109474214D01*
X97567641Y-109474214D01*
X97472403Y-109521833D01*
X97900975Y-110093261D02*
X97805737Y-110140880D01*
X97567641Y-110140880D01*
X97472403Y-110093261D01*
X97424784Y-109998023D01*
X97424784Y-109902785D01*
X97472403Y-109807547D01*
X97567641Y-109759928D01*
X97805737Y-109759928D01*
X97900975Y-109712309D01*
X98520022Y-110140880D02*
X98424784Y-110093261D01*
X98377165Y-109998023D01*
X98377165Y-109140880D01*
X89951751Y-105013380D02*
X90046989Y-105013380D01*
X90142227Y-105061000D01*
X90189846Y-105108619D01*
X90237465Y-105203857D01*
X90285084Y-105394333D01*
X90285084Y-105632428D01*
X90237465Y-105822904D01*
X90189846Y-105918142D01*
X90142227Y-105965761D01*
X90046989Y-106013380D01*
X89951751Y-106013380D01*
X89856513Y-105965761D01*
X89808894Y-105918142D01*
X89761275Y-105822904D01*
X89713656Y-105632428D01*
X89713656Y-105394333D01*
X89761275Y-105203857D01*
X89808894Y-105108619D01*
X89856513Y-105061000D01*
X89951751Y-105013380D01*
X90856513Y-105441952D02*
X90761275Y-105394333D01*
X90713656Y-105346714D01*
X90666037Y-105251476D01*
X90666037Y-105203857D01*
X90713656Y-105108619D01*
X90761275Y-105061000D01*
X90856513Y-105013380D01*
X91046989Y-105013380D01*
X91142227Y-105061000D01*
X91189846Y-105108619D01*
X91237465Y-105203857D01*
X91237465Y-105251476D01*
X91189846Y-105346714D01*
X91142227Y-105394333D01*
X91046989Y-105441952D01*
X90856513Y-105441952D01*
X90761275Y-105489571D01*
X90713656Y-105537190D01*
X90666037Y-105632428D01*
X90666037Y-105822904D01*
X90713656Y-105918142D01*
X90761275Y-105965761D01*
X90856513Y-106013380D01*
X91046989Y-106013380D01*
X91142227Y-105965761D01*
X91189846Y-105918142D01*
X91237465Y-105822904D01*
X91237465Y-105632428D01*
X91189846Y-105537190D01*
X91142227Y-105489571D01*
X91046989Y-105441952D01*
X91856513Y-105013380D02*
X91951751Y-105013380D01*
X92046989Y-105061000D01*
X92094608Y-105108619D01*
X92142227Y-105203857D01*
X92189846Y-105394333D01*
X92189846Y-105632428D01*
X92142227Y-105822904D01*
X92094608Y-105918142D01*
X92046989Y-105965761D01*
X91951751Y-106013380D01*
X91856513Y-106013380D01*
X91761275Y-105965761D01*
X91713656Y-105918142D01*
X91666037Y-105822904D01*
X91618418Y-105632428D01*
X91618418Y-105394333D01*
X91666037Y-105203857D01*
X91713656Y-105108619D01*
X91761275Y-105061000D01*
X91856513Y-105013380D01*
X93094608Y-105013380D02*
X92618418Y-105013380D01*
X92570799Y-105489571D01*
X92618418Y-105441952D01*
X92713656Y-105394333D01*
X92951751Y-105394333D01*
X93046989Y-105441952D01*
X93094608Y-105489571D01*
X93142227Y-105584809D01*
X93142227Y-105822904D01*
X93094608Y-105918142D01*
X93046989Y-105965761D01*
X92951751Y-106013380D01*
X92713656Y-106013380D01*
X92618418Y-105965761D01*
X92570799Y-105918142D01*
X93570799Y-105346714D02*
X93570799Y-106013380D01*
X93570799Y-105441952D02*
X93618418Y-105394333D01*
X93713656Y-105346714D01*
X93856513Y-105346714D01*
X93951751Y-105394333D01*
X93999370Y-105489571D01*
X93999370Y-106013380D01*
X94618418Y-106013380D02*
X94523180Y-105965761D01*
X94475560Y-105918142D01*
X94427941Y-105822904D01*
X94427941Y-105537190D01*
X94475560Y-105441952D01*
X94523180Y-105394333D01*
X94618418Y-105346714D01*
X94761275Y-105346714D01*
X94856513Y-105394333D01*
X94904132Y-105441952D01*
X94951751Y-105537190D01*
X94951751Y-105822904D01*
X94904132Y-105918142D01*
X94856513Y-105965761D01*
X94761275Y-106013380D01*
X94618418Y-106013380D01*
X95380322Y-106013380D02*
X95380322Y-105346714D01*
X95380322Y-105537190D02*
X95427941Y-105441952D01*
X95475560Y-105394333D01*
X95570799Y-105346714D01*
X95666037Y-105346714D01*
X95999370Y-106013380D02*
X95999370Y-105346714D01*
X95999370Y-105441952D02*
X96046989Y-105394333D01*
X96142227Y-105346714D01*
X96285084Y-105346714D01*
X96380322Y-105394333D01*
X96427941Y-105489571D01*
X96427941Y-106013380D01*
X96427941Y-105489571D02*
X96475560Y-105394333D01*
X96570799Y-105346714D01*
X96713656Y-105346714D01*
X96808894Y-105394333D01*
X96856513Y-105489571D01*
X96856513Y-106013380D01*
X97761275Y-106013380D02*
X97761275Y-105489571D01*
X97713656Y-105394333D01*
X97618418Y-105346714D01*
X97427941Y-105346714D01*
X97332703Y-105394333D01*
X97761275Y-105965761D02*
X97666037Y-106013380D01*
X97427941Y-106013380D01*
X97332703Y-105965761D01*
X97285084Y-105870523D01*
X97285084Y-105775285D01*
X97332703Y-105680047D01*
X97427941Y-105632428D01*
X97666037Y-105632428D01*
X97761275Y-105584809D01*
X98380322Y-106013380D02*
X98285084Y-105965761D01*
X98237465Y-105870523D01*
X98237465Y-105013380D01*
X115547330Y-119252639D02*
X115452092Y-119205020D01*
X115356854Y-119109781D01*
X115213997Y-118966924D01*
X115118759Y-118919305D01*
X115023520Y-118919305D01*
X115071140Y-119157400D02*
X114975901Y-119109781D01*
X114880663Y-119014543D01*
X114833044Y-118824067D01*
X114833044Y-118490734D01*
X114880663Y-118300258D01*
X114975901Y-118205020D01*
X115071140Y-118157400D01*
X115261616Y-118157400D01*
X115356854Y-118205020D01*
X115452092Y-118300258D01*
X115499711Y-118490734D01*
X115499711Y-118824067D01*
X115452092Y-119014543D01*
X115356854Y-119109781D01*
X115261616Y-119157400D01*
X115071140Y-119157400D01*
X116261616Y-118633591D02*
X115928282Y-118633591D01*
X115928282Y-119157400D02*
X115928282Y-118157400D01*
X116404473Y-118157400D01*
X116785425Y-119157400D02*
X116785425Y-118157400D01*
X117356854Y-119157400D01*
X117356854Y-118157400D01*
X117785425Y-118252639D02*
X117833044Y-118205020D01*
X117928282Y-118157400D01*
X118166378Y-118157400D01*
X118261616Y-118205020D01*
X118309235Y-118252639D01*
X118356854Y-118347877D01*
X118356854Y-118443115D01*
X118309235Y-118585972D01*
X117737806Y-119157400D01*
X118356854Y-119157400D01*
X119213997Y-118490734D02*
X119213997Y-119157400D01*
X118975901Y-118109781D02*
X118737806Y-118824067D01*
X119356854Y-118824067D01*
X93373130Y-119252639D02*
X93277892Y-119205020D01*
X93182654Y-119109781D01*
X93039797Y-118966924D01*
X92944559Y-118919305D01*
X92849320Y-118919305D01*
X92896940Y-119157400D02*
X92801701Y-119109781D01*
X92706463Y-119014543D01*
X92658844Y-118824067D01*
X92658844Y-118490734D01*
X92706463Y-118300258D01*
X92801701Y-118205020D01*
X92896940Y-118157400D01*
X93087416Y-118157400D01*
X93182654Y-118205020D01*
X93277892Y-118300258D01*
X93325511Y-118490734D01*
X93325511Y-118824067D01*
X93277892Y-119014543D01*
X93182654Y-119109781D01*
X93087416Y-119157400D01*
X92896940Y-119157400D01*
X94087416Y-118633591D02*
X93754082Y-118633591D01*
X93754082Y-119157400D02*
X93754082Y-118157400D01*
X94230273Y-118157400D01*
X94611225Y-119157400D02*
X94611225Y-118157400D01*
X95182654Y-119157400D01*
X95182654Y-118157400D01*
X95611225Y-118252639D02*
X95658844Y-118205020D01*
X95754082Y-118157400D01*
X95992178Y-118157400D01*
X96087416Y-118205020D01*
X96135035Y-118252639D01*
X96182654Y-118347877D01*
X96182654Y-118443115D01*
X96135035Y-118585972D01*
X95563606Y-119157400D01*
X96182654Y-119157400D01*
X97039797Y-118490734D02*
X97039797Y-119157400D01*
X96801701Y-118109781D02*
X96563606Y-118824067D01*
X97182654Y-118824067D01*
X131398474Y-119057219D02*
X131303236Y-119009600D01*
X131207998Y-118914361D01*
X131065140Y-118771504D01*
X130969902Y-118723885D01*
X130874664Y-118723885D01*
X130922283Y-118961980D02*
X130827045Y-118914361D01*
X130731807Y-118819123D01*
X130684188Y-118628647D01*
X130684188Y-118295314D01*
X130731807Y-118104838D01*
X130827045Y-118009600D01*
X130922283Y-117961980D01*
X131112760Y-117961980D01*
X131207998Y-118009600D01*
X131303236Y-118104838D01*
X131350855Y-118295314D01*
X131350855Y-118628647D01*
X131303236Y-118819123D01*
X131207998Y-118914361D01*
X131112760Y-118961980D01*
X130922283Y-118961980D01*
X132112760Y-118438171D02*
X131779426Y-118438171D01*
X131779426Y-118961980D02*
X131779426Y-117961980D01*
X132255617Y-117961980D01*
X132636569Y-118961980D02*
X132636569Y-117961980D01*
X133207998Y-118961980D01*
X133207998Y-117961980D01*
X134207998Y-118961980D02*
X133636569Y-118961980D01*
X133922283Y-118961980D02*
X133922283Y-117961980D01*
X133827045Y-118104838D01*
X133731807Y-118200076D01*
X133636569Y-118247695D01*
X134588950Y-118057219D02*
X134636569Y-118009600D01*
X134731807Y-117961980D01*
X134969902Y-117961980D01*
X135065140Y-118009600D01*
X135112760Y-118057219D01*
X135160379Y-118152457D01*
X135160379Y-118247695D01*
X135112760Y-118390552D01*
X134541331Y-118961980D01*
X135160379Y-118961980D01*
X136255617Y-117961980D02*
X136874664Y-117961980D01*
X136541331Y-118342933D01*
X136684188Y-118342933D01*
X136779426Y-118390552D01*
X136827045Y-118438171D01*
X136874664Y-118533409D01*
X136874664Y-118771504D01*
X136827045Y-118866742D01*
X136779426Y-118914361D01*
X136684188Y-118961980D01*
X136398474Y-118961980D01*
X136303236Y-118914361D01*
X136255617Y-118866742D01*
X137207998Y-117961980D02*
X137874664Y-118961980D01*
X137874664Y-117961980D02*
X137207998Y-118961980D01*
X138160379Y-117961980D02*
X138779426Y-117961980D01*
X138446093Y-118342933D01*
X138588950Y-118342933D01*
X138684188Y-118390552D01*
X138731807Y-118438171D01*
X138779426Y-118533409D01*
X138779426Y-118771504D01*
X138731807Y-118866742D01*
X138684188Y-118914361D01*
X138588950Y-118961980D01*
X138303236Y-118961980D01*
X138207998Y-118914361D01*
X138160379Y-118866742D01*
X146988994Y-118434919D02*
X146893756Y-118387300D01*
X146798518Y-118292061D01*
X146655660Y-118149204D01*
X146560422Y-118101585D01*
X146465184Y-118101585D01*
X146512803Y-118339680D02*
X146417565Y-118292061D01*
X146322327Y-118196823D01*
X146274708Y-118006347D01*
X146274708Y-117673014D01*
X146322327Y-117482538D01*
X146417565Y-117387300D01*
X146512803Y-117339680D01*
X146703280Y-117339680D01*
X146798518Y-117387300D01*
X146893756Y-117482538D01*
X146941375Y-117673014D01*
X146941375Y-118006347D01*
X146893756Y-118196823D01*
X146798518Y-118292061D01*
X146703280Y-118339680D01*
X146512803Y-118339680D01*
X147703280Y-117815871D02*
X147369946Y-117815871D01*
X147369946Y-118339680D02*
X147369946Y-117339680D01*
X147846137Y-117339680D01*
X148227089Y-118339680D02*
X148227089Y-117339680D01*
X148798518Y-118339680D01*
X148798518Y-117339680D01*
X149798518Y-118339680D02*
X149227089Y-118339680D01*
X149512803Y-118339680D02*
X149512803Y-117339680D01*
X149417565Y-117482538D01*
X149322327Y-117577776D01*
X149227089Y-117625395D01*
X150179470Y-117434919D02*
X150227089Y-117387300D01*
X150322327Y-117339680D01*
X150560422Y-117339680D01*
X150655660Y-117387300D01*
X150703280Y-117434919D01*
X150750899Y-117530157D01*
X150750899Y-117625395D01*
X150703280Y-117768252D01*
X150131851Y-118339680D01*
X150750899Y-118339680D01*
X151846137Y-117339680D02*
X152465184Y-117339680D01*
X152131851Y-117720633D01*
X152274708Y-117720633D01*
X152369946Y-117768252D01*
X152417565Y-117815871D01*
X152465184Y-117911109D01*
X152465184Y-118149204D01*
X152417565Y-118244442D01*
X152369946Y-118292061D01*
X152274708Y-118339680D01*
X151988994Y-118339680D01*
X151893756Y-118292061D01*
X151846137Y-118244442D01*
X152798518Y-117339680D02*
X153465184Y-118339680D01*
X153465184Y-117339680D02*
X152798518Y-118339680D01*
X153750899Y-117339680D02*
X154369946Y-117339680D01*
X154036613Y-117720633D01*
X154179470Y-117720633D01*
X154274708Y-117768252D01*
X154322327Y-117815871D01*
X154369946Y-117911109D01*
X154369946Y-118149204D01*
X154322327Y-118244442D01*
X154274708Y-118292061D01*
X154179470Y-118339680D01*
X153893756Y-118339680D01*
X153798518Y-118292061D01*
X153750899Y-118244442D01*
X76152168Y-115553920D02*
X76485501Y-116553920D01*
X76818835Y-115553920D01*
X77104549Y-116506301D02*
X77247406Y-116553920D01*
X77485501Y-116553920D01*
X77580740Y-116506301D01*
X77628359Y-116458682D01*
X77675978Y-116363444D01*
X77675978Y-116268206D01*
X77628359Y-116172968D01*
X77580740Y-116125349D01*
X77485501Y-116077730D01*
X77295025Y-116030111D01*
X77199787Y-115982492D01*
X77152168Y-115934873D01*
X77104549Y-115839635D01*
X77104549Y-115744397D01*
X77152168Y-115649159D01*
X77199787Y-115601540D01*
X77295025Y-115553920D01*
X77533120Y-115553920D01*
X77675978Y-115601540D01*
X78295025Y-115553920D02*
X78485501Y-115553920D01*
X78580740Y-115601540D01*
X78675978Y-115696778D01*
X78723597Y-115887254D01*
X78723597Y-116220587D01*
X78675978Y-116411063D01*
X78580740Y-116506301D01*
X78485501Y-116553920D01*
X78295025Y-116553920D01*
X78199787Y-116506301D01*
X78104549Y-116411063D01*
X78056930Y-116220587D01*
X78056930Y-115887254D01*
X78104549Y-115696778D01*
X78199787Y-115601540D01*
X78295025Y-115553920D01*
X79152168Y-116553920D02*
X79152168Y-115553920D01*
X79723597Y-116553920D01*
X79723597Y-115553920D01*
X80199787Y-116172968D02*
X80961692Y-116172968D01*
X81961692Y-116553920D02*
X81390263Y-116553920D01*
X81675978Y-116553920D02*
X81675978Y-115553920D01*
X81580740Y-115696778D01*
X81485501Y-115792016D01*
X81390263Y-115839635D01*
X82580740Y-115553920D02*
X82675978Y-115553920D01*
X82771216Y-115601540D01*
X82818835Y-115649159D01*
X82866454Y-115744397D01*
X82914073Y-115934873D01*
X82914073Y-116172968D01*
X82866454Y-116363444D01*
X82818835Y-116458682D01*
X82771216Y-116506301D01*
X82675978Y-116553920D01*
X82580740Y-116553920D01*
X82485501Y-116506301D01*
X82437882Y-116458682D01*
X82390263Y-116363444D01*
X82342644Y-116172968D01*
X82342644Y-115934873D01*
X82390263Y-115744397D01*
X82437882Y-115649159D01*
X82485501Y-115601540D01*
X82580740Y-115553920D01*
X61044248Y-115650440D02*
X61377581Y-116650440D01*
X61710915Y-115650440D01*
X61996629Y-116602821D02*
X62139486Y-116650440D01*
X62377581Y-116650440D01*
X62472820Y-116602821D01*
X62520439Y-116555202D01*
X62568058Y-116459964D01*
X62568058Y-116364726D01*
X62520439Y-116269488D01*
X62472820Y-116221869D01*
X62377581Y-116174250D01*
X62187105Y-116126631D01*
X62091867Y-116079012D01*
X62044248Y-116031393D01*
X61996629Y-115936155D01*
X61996629Y-115840917D01*
X62044248Y-115745679D01*
X62091867Y-115698060D01*
X62187105Y-115650440D01*
X62425200Y-115650440D01*
X62568058Y-115698060D01*
X63187105Y-115650440D02*
X63377581Y-115650440D01*
X63472820Y-115698060D01*
X63568058Y-115793298D01*
X63615677Y-115983774D01*
X63615677Y-116317107D01*
X63568058Y-116507583D01*
X63472820Y-116602821D01*
X63377581Y-116650440D01*
X63187105Y-116650440D01*
X63091867Y-116602821D01*
X62996629Y-116507583D01*
X62949010Y-116317107D01*
X62949010Y-115983774D01*
X62996629Y-115793298D01*
X63091867Y-115698060D01*
X63187105Y-115650440D01*
X64044248Y-116650440D02*
X64044248Y-115650440D01*
X64615677Y-116650440D01*
X64615677Y-115650440D01*
X65091867Y-116269488D02*
X65853772Y-116269488D01*
X66853772Y-116650440D02*
X66282343Y-116650440D01*
X66568058Y-116650440D02*
X66568058Y-115650440D01*
X66472820Y-115793298D01*
X66377581Y-115888536D01*
X66282343Y-115936155D01*
X67472820Y-115650440D02*
X67568058Y-115650440D01*
X67663296Y-115698060D01*
X67710915Y-115745679D01*
X67758534Y-115840917D01*
X67806153Y-116031393D01*
X67806153Y-116269488D01*
X67758534Y-116459964D01*
X67710915Y-116555202D01*
X67663296Y-116602821D01*
X67568058Y-116650440D01*
X67472820Y-116650440D01*
X67377581Y-116602821D01*
X67329962Y-116555202D01*
X67282343Y-116459964D01*
X67234724Y-116269488D01*
X67234724Y-116031393D01*
X67282343Y-115840917D01*
X67329962Y-115745679D01*
X67377581Y-115698060D01*
X67472820Y-115650440D01*
X63119166Y-43105119D02*
X63023928Y-43057500D01*
X62928690Y-42962261D01*
X62785833Y-42819404D01*
X62690595Y-42771785D01*
X62595357Y-42771785D01*
X62642976Y-43009880D02*
X62547738Y-42962261D01*
X62452500Y-42867023D01*
X62404880Y-42676547D01*
X62404880Y-42343214D01*
X62452500Y-42152738D01*
X62547738Y-42057500D01*
X62642976Y-42009880D01*
X62833452Y-42009880D01*
X62928690Y-42057500D01*
X63023928Y-42152738D01*
X63071547Y-42343214D01*
X63071547Y-42676547D01*
X63023928Y-42867023D01*
X62928690Y-42962261D01*
X62833452Y-43009880D01*
X62642976Y-43009880D01*
X63833452Y-42486071D02*
X63500119Y-42486071D01*
X63500119Y-43009880D02*
X63500119Y-42009880D01*
X63976309Y-42009880D01*
X64357261Y-43009880D02*
X64357261Y-42009880D01*
X64928690Y-43009880D01*
X64928690Y-42009880D01*
X65928690Y-43009880D02*
X65357261Y-43009880D01*
X65642976Y-43009880D02*
X65642976Y-42009880D01*
X65547738Y-42152738D01*
X65452500Y-42247976D01*
X65357261Y-42295595D01*
X66309642Y-42105119D02*
X66357261Y-42057500D01*
X66452500Y-42009880D01*
X66690595Y-42009880D01*
X66785833Y-42057500D01*
X66833452Y-42105119D01*
X66881071Y-42200357D01*
X66881071Y-42295595D01*
X66833452Y-42438452D01*
X66262023Y-43009880D01*
X66881071Y-43009880D01*
X67976309Y-42009880D02*
X68595357Y-42009880D01*
X68262023Y-42390833D01*
X68404880Y-42390833D01*
X68500119Y-42438452D01*
X68547738Y-42486071D01*
X68595357Y-42581309D01*
X68595357Y-42819404D01*
X68547738Y-42914642D01*
X68500119Y-42962261D01*
X68404880Y-43009880D01*
X68119166Y-43009880D01*
X68023928Y-42962261D01*
X67976309Y-42914642D01*
X68928690Y-42009880D02*
X69595357Y-43009880D01*
X69595357Y-42009880D02*
X68928690Y-43009880D01*
X69881071Y-42009880D02*
X70500119Y-42009880D01*
X70166785Y-42390833D01*
X70309642Y-42390833D01*
X70404880Y-42438452D01*
X70452500Y-42486071D01*
X70500119Y-42581309D01*
X70500119Y-42819404D01*
X70452500Y-42914642D01*
X70404880Y-42962261D01*
X70309642Y-43009880D01*
X70023928Y-43009880D01*
X69928690Y-42962261D01*
X69881071Y-42914642D01*
X59785714Y-79077619D02*
X59690476Y-79030000D01*
X59595238Y-78934761D01*
X59452380Y-78791904D01*
X59357142Y-78744285D01*
X59261904Y-78744285D01*
X59309523Y-78982380D02*
X59214285Y-78934761D01*
X59119047Y-78839523D01*
X59071428Y-78649047D01*
X59071428Y-78315714D01*
X59119047Y-78125238D01*
X59214285Y-78030000D01*
X59309523Y-77982380D01*
X59500000Y-77982380D01*
X59595238Y-78030000D01*
X59690476Y-78125238D01*
X59738095Y-78315714D01*
X59738095Y-78649047D01*
X59690476Y-78839523D01*
X59595238Y-78934761D01*
X59500000Y-78982380D01*
X59309523Y-78982380D01*
X60500000Y-78458571D02*
X60166666Y-78458571D01*
X60166666Y-78982380D02*
X60166666Y-77982380D01*
X60642857Y-77982380D01*
X61023809Y-78982380D02*
X61023809Y-77982380D01*
X61595238Y-78982380D01*
X61595238Y-77982380D01*
X62595238Y-78982380D02*
X62023809Y-78982380D01*
X62309523Y-78982380D02*
X62309523Y-77982380D01*
X62214285Y-78125238D01*
X62119047Y-78220476D01*
X62023809Y-78268095D01*
X62976190Y-78077619D02*
X63023809Y-78030000D01*
X63119047Y-77982380D01*
X63357142Y-77982380D01*
X63452380Y-78030000D01*
X63500000Y-78077619D01*
X63547619Y-78172857D01*
X63547619Y-78268095D01*
X63500000Y-78410952D01*
X62928571Y-78982380D01*
X63547619Y-78982380D01*
X64642857Y-77982380D02*
X65261904Y-77982380D01*
X64928571Y-78363333D01*
X65071428Y-78363333D01*
X65166666Y-78410952D01*
X65214285Y-78458571D01*
X65261904Y-78553809D01*
X65261904Y-78791904D01*
X65214285Y-78887142D01*
X65166666Y-78934761D01*
X65071428Y-78982380D01*
X64785714Y-78982380D01*
X64690476Y-78934761D01*
X64642857Y-78887142D01*
X65595238Y-77982380D02*
X66261904Y-78982380D01*
X66261904Y-77982380D02*
X65595238Y-78982380D01*
X66547619Y-77982380D02*
X67166666Y-77982380D01*
X66833333Y-78363333D01*
X66976190Y-78363333D01*
X67071428Y-78410952D01*
X67119047Y-78458571D01*
X67166666Y-78553809D01*
X67166666Y-78791904D01*
X67119047Y-78887142D01*
X67071428Y-78934761D01*
X66976190Y-78982380D01*
X66690476Y-78982380D01*
X66595238Y-78934761D01*
X66547619Y-78887142D01*
X59785714Y-91777619D02*
X59690476Y-91730000D01*
X59595238Y-91634761D01*
X59452380Y-91491904D01*
X59357142Y-91444285D01*
X59261904Y-91444285D01*
X59309523Y-91682380D02*
X59214285Y-91634761D01*
X59119047Y-91539523D01*
X59071428Y-91349047D01*
X59071428Y-91015714D01*
X59119047Y-90825238D01*
X59214285Y-90730000D01*
X59309523Y-90682380D01*
X59500000Y-90682380D01*
X59595238Y-90730000D01*
X59690476Y-90825238D01*
X59738095Y-91015714D01*
X59738095Y-91349047D01*
X59690476Y-91539523D01*
X59595238Y-91634761D01*
X59500000Y-91682380D01*
X59309523Y-91682380D01*
X60500000Y-91158571D02*
X60166666Y-91158571D01*
X60166666Y-91682380D02*
X60166666Y-90682380D01*
X60642857Y-90682380D01*
X61023809Y-91682380D02*
X61023809Y-90682380D01*
X61595238Y-91682380D01*
X61595238Y-90682380D01*
X62595238Y-91682380D02*
X62023809Y-91682380D01*
X62309523Y-91682380D02*
X62309523Y-90682380D01*
X62214285Y-90825238D01*
X62119047Y-90920476D01*
X62023809Y-90968095D01*
X62976190Y-90777619D02*
X63023809Y-90730000D01*
X63119047Y-90682380D01*
X63357142Y-90682380D01*
X63452380Y-90730000D01*
X63500000Y-90777619D01*
X63547619Y-90872857D01*
X63547619Y-90968095D01*
X63500000Y-91110952D01*
X62928571Y-91682380D01*
X63547619Y-91682380D01*
X64642857Y-90682380D02*
X65261904Y-90682380D01*
X64928571Y-91063333D01*
X65071428Y-91063333D01*
X65166666Y-91110952D01*
X65214285Y-91158571D01*
X65261904Y-91253809D01*
X65261904Y-91491904D01*
X65214285Y-91587142D01*
X65166666Y-91634761D01*
X65071428Y-91682380D01*
X64785714Y-91682380D01*
X64690476Y-91634761D01*
X64642857Y-91587142D01*
X65595238Y-90682380D02*
X66261904Y-91682380D01*
X66261904Y-90682380D02*
X65595238Y-91682380D01*
X66547619Y-90682380D02*
X67166666Y-90682380D01*
X66833333Y-91063333D01*
X66976190Y-91063333D01*
X67071428Y-91110952D01*
X67119047Y-91158571D01*
X67166666Y-91253809D01*
X67166666Y-91491904D01*
X67119047Y-91587142D01*
X67071428Y-91634761D01*
X66976190Y-91682380D01*
X66690476Y-91682380D01*
X66595238Y-91634761D01*
X66547619Y-91587142D01*
X59785714Y-104477619D02*
X59690476Y-104430000D01*
X59595238Y-104334761D01*
X59452380Y-104191904D01*
X59357142Y-104144285D01*
X59261904Y-104144285D01*
X59309523Y-104382380D02*
X59214285Y-104334761D01*
X59119047Y-104239523D01*
X59071428Y-104049047D01*
X59071428Y-103715714D01*
X59119047Y-103525238D01*
X59214285Y-103430000D01*
X59309523Y-103382380D01*
X59500000Y-103382380D01*
X59595238Y-103430000D01*
X59690476Y-103525238D01*
X59738095Y-103715714D01*
X59738095Y-104049047D01*
X59690476Y-104239523D01*
X59595238Y-104334761D01*
X59500000Y-104382380D01*
X59309523Y-104382380D01*
X60500000Y-103858571D02*
X60166666Y-103858571D01*
X60166666Y-104382380D02*
X60166666Y-103382380D01*
X60642857Y-103382380D01*
X61023809Y-104382380D02*
X61023809Y-103382380D01*
X61595238Y-104382380D01*
X61595238Y-103382380D01*
X62595238Y-104382380D02*
X62023809Y-104382380D01*
X62309523Y-104382380D02*
X62309523Y-103382380D01*
X62214285Y-103525238D01*
X62119047Y-103620476D01*
X62023809Y-103668095D01*
X62976190Y-103477619D02*
X63023809Y-103430000D01*
X63119047Y-103382380D01*
X63357142Y-103382380D01*
X63452380Y-103430000D01*
X63500000Y-103477619D01*
X63547619Y-103572857D01*
X63547619Y-103668095D01*
X63500000Y-103810952D01*
X62928571Y-104382380D01*
X63547619Y-104382380D01*
X64642857Y-103382380D02*
X65261904Y-103382380D01*
X64928571Y-103763333D01*
X65071428Y-103763333D01*
X65166666Y-103810952D01*
X65214285Y-103858571D01*
X65261904Y-103953809D01*
X65261904Y-104191904D01*
X65214285Y-104287142D01*
X65166666Y-104334761D01*
X65071428Y-104382380D01*
X64785714Y-104382380D01*
X64690476Y-104334761D01*
X64642857Y-104287142D01*
X65595238Y-103382380D02*
X66261904Y-104382380D01*
X66261904Y-103382380D02*
X65595238Y-104382380D01*
X66547619Y-103382380D02*
X67166666Y-103382380D01*
X66833333Y-103763333D01*
X66976190Y-103763333D01*
X67071428Y-103810952D01*
X67119047Y-103858571D01*
X67166666Y-103953809D01*
X67166666Y-104191904D01*
X67119047Y-104287142D01*
X67071428Y-104334761D01*
X66976190Y-104382380D01*
X66690476Y-104382380D01*
X66595238Y-104334761D01*
X66547619Y-104287142D01*
X62325714Y-63837619D02*
X62230476Y-63790000D01*
X62135238Y-63694761D01*
X61992380Y-63551904D01*
X61897142Y-63504285D01*
X61801904Y-63504285D01*
X61849523Y-63742380D02*
X61754285Y-63694761D01*
X61659047Y-63599523D01*
X61611428Y-63409047D01*
X61611428Y-63075714D01*
X61659047Y-62885238D01*
X61754285Y-62790000D01*
X61849523Y-62742380D01*
X62040000Y-62742380D01*
X62135238Y-62790000D01*
X62230476Y-62885238D01*
X62278095Y-63075714D01*
X62278095Y-63409047D01*
X62230476Y-63599523D01*
X62135238Y-63694761D01*
X62040000Y-63742380D01*
X61849523Y-63742380D01*
X63040000Y-63218571D02*
X62706666Y-63218571D01*
X62706666Y-63742380D02*
X62706666Y-62742380D01*
X63182857Y-62742380D01*
X63563809Y-63742380D02*
X63563809Y-62742380D01*
X64135238Y-63742380D01*
X64135238Y-62742380D01*
X65135238Y-63742380D02*
X64563809Y-63742380D01*
X64849523Y-63742380D02*
X64849523Y-62742380D01*
X64754285Y-62885238D01*
X64659047Y-62980476D01*
X64563809Y-63028095D01*
X65516190Y-62837619D02*
X65563809Y-62790000D01*
X65659047Y-62742380D01*
X65897142Y-62742380D01*
X65992380Y-62790000D01*
X66040000Y-62837619D01*
X66087619Y-62932857D01*
X66087619Y-63028095D01*
X66040000Y-63170952D01*
X65468571Y-63742380D01*
X66087619Y-63742380D01*
X67182857Y-62742380D02*
X67801904Y-62742380D01*
X67468571Y-63123333D01*
X67611428Y-63123333D01*
X67706666Y-63170952D01*
X67754285Y-63218571D01*
X67801904Y-63313809D01*
X67801904Y-63551904D01*
X67754285Y-63647142D01*
X67706666Y-63694761D01*
X67611428Y-63742380D01*
X67325714Y-63742380D01*
X67230476Y-63694761D01*
X67182857Y-63647142D01*
X68135238Y-62742380D02*
X68801904Y-63742380D01*
X68801904Y-62742380D02*
X68135238Y-63742380D01*
X69087619Y-62742380D02*
X69706666Y-62742380D01*
X69373333Y-63123333D01*
X69516190Y-63123333D01*
X69611428Y-63170952D01*
X69659047Y-63218571D01*
X69706666Y-63313809D01*
X69706666Y-63551904D01*
X69659047Y-63647142D01*
X69611428Y-63694761D01*
X69516190Y-63742380D01*
X69230476Y-63742380D01*
X69135238Y-63694761D01*
X69087619Y-63647142D01*
X62706666Y-53677619D02*
X62611428Y-53630000D01*
X62516190Y-53534761D01*
X62373333Y-53391904D01*
X62278095Y-53344285D01*
X62182857Y-53344285D01*
X62230476Y-53582380D02*
X62135238Y-53534761D01*
X62040000Y-53439523D01*
X61992380Y-53249047D01*
X61992380Y-52915714D01*
X62040000Y-52725238D01*
X62135238Y-52630000D01*
X62230476Y-52582380D01*
X62420952Y-52582380D01*
X62516190Y-52630000D01*
X62611428Y-52725238D01*
X62659047Y-52915714D01*
X62659047Y-53249047D01*
X62611428Y-53439523D01*
X62516190Y-53534761D01*
X62420952Y-53582380D01*
X62230476Y-53582380D01*
X63420952Y-53058571D02*
X63087619Y-53058571D01*
X63087619Y-53582380D02*
X63087619Y-52582380D01*
X63563809Y-52582380D01*
X63944761Y-53582380D02*
X63944761Y-52582380D01*
X64516190Y-53582380D01*
X64516190Y-52582380D01*
X65516190Y-53582380D02*
X64944761Y-53582380D01*
X65230476Y-53582380D02*
X65230476Y-52582380D01*
X65135238Y-52725238D01*
X65040000Y-52820476D01*
X64944761Y-52868095D01*
X65897142Y-52677619D02*
X65944761Y-52630000D01*
X66040000Y-52582380D01*
X66278095Y-52582380D01*
X66373333Y-52630000D01*
X66420952Y-52677619D01*
X66468571Y-52772857D01*
X66468571Y-52868095D01*
X66420952Y-53010952D01*
X65849523Y-53582380D01*
X66468571Y-53582380D01*
X67563809Y-52582380D02*
X68182857Y-52582380D01*
X67849523Y-52963333D01*
X67992380Y-52963333D01*
X68087619Y-53010952D01*
X68135238Y-53058571D01*
X68182857Y-53153809D01*
X68182857Y-53391904D01*
X68135238Y-53487142D01*
X68087619Y-53534761D01*
X67992380Y-53582380D01*
X67706666Y-53582380D01*
X67611428Y-53534761D01*
X67563809Y-53487142D01*
X68516190Y-52582380D02*
X69182857Y-53582380D01*
X69182857Y-52582380D02*
X68516190Y-53582380D01*
X69468571Y-52582380D02*
X70087619Y-52582380D01*
X69754285Y-52963333D01*
X69897142Y-52963333D01*
X69992380Y-53010952D01*
X70040000Y-53058571D01*
X70087619Y-53153809D01*
X70087619Y-53391904D01*
X70040000Y-53487142D01*
X69992380Y-53534761D01*
X69897142Y-53582380D01*
X69611428Y-53582380D01*
X69516190Y-53534761D01*
X69468571Y-53487142D01*
X130603809Y-82022380D02*
X130699047Y-82022380D01*
X130794285Y-82070000D01*
X130841904Y-82117619D01*
X130889523Y-82212857D01*
X130937142Y-82403333D01*
X130937142Y-82641428D01*
X130889523Y-82831904D01*
X130841904Y-82927142D01*
X130794285Y-82974761D01*
X130699047Y-83022380D01*
X130603809Y-83022380D01*
X130508571Y-82974761D01*
X130460952Y-82927142D01*
X130413333Y-82831904D01*
X130365714Y-82641428D01*
X130365714Y-82403333D01*
X130413333Y-82212857D01*
X130460952Y-82117619D01*
X130508571Y-82070000D01*
X130603809Y-82022380D01*
X131794285Y-82022380D02*
X131603809Y-82022380D01*
X131508571Y-82070000D01*
X131460952Y-82117619D01*
X131365714Y-82260476D01*
X131318095Y-82450952D01*
X131318095Y-82831904D01*
X131365714Y-82927142D01*
X131413333Y-82974761D01*
X131508571Y-83022380D01*
X131699047Y-83022380D01*
X131794285Y-82974761D01*
X131841904Y-82927142D01*
X131889523Y-82831904D01*
X131889523Y-82593809D01*
X131841904Y-82498571D01*
X131794285Y-82450952D01*
X131699047Y-82403333D01*
X131508571Y-82403333D01*
X131413333Y-82450952D01*
X131365714Y-82498571D01*
X131318095Y-82593809D01*
X132508571Y-82022380D02*
X132603809Y-82022380D01*
X132699047Y-82070000D01*
X132746666Y-82117619D01*
X132794285Y-82212857D01*
X132841904Y-82403333D01*
X132841904Y-82641428D01*
X132794285Y-82831904D01*
X132746666Y-82927142D01*
X132699047Y-82974761D01*
X132603809Y-83022380D01*
X132508571Y-83022380D01*
X132413333Y-82974761D01*
X132365714Y-82927142D01*
X132318095Y-82831904D01*
X132270476Y-82641428D01*
X132270476Y-82403333D01*
X132318095Y-82212857D01*
X132365714Y-82117619D01*
X132413333Y-82070000D01*
X132508571Y-82022380D01*
X133175238Y-82022380D02*
X133794285Y-82022380D01*
X133460952Y-82403333D01*
X133603809Y-82403333D01*
X133699047Y-82450952D01*
X133746666Y-82498571D01*
X133794285Y-82593809D01*
X133794285Y-82831904D01*
X133746666Y-82927142D01*
X133699047Y-82974761D01*
X133603809Y-83022380D01*
X133318095Y-83022380D01*
X133222857Y-82974761D01*
X133175238Y-82927142D01*
X122983809Y-69322380D02*
X123079047Y-69322380D01*
X123174285Y-69370000D01*
X123221904Y-69417619D01*
X123269523Y-69512857D01*
X123317142Y-69703333D01*
X123317142Y-69941428D01*
X123269523Y-70131904D01*
X123221904Y-70227142D01*
X123174285Y-70274761D01*
X123079047Y-70322380D01*
X122983809Y-70322380D01*
X122888571Y-70274761D01*
X122840952Y-70227142D01*
X122793333Y-70131904D01*
X122745714Y-69941428D01*
X122745714Y-69703333D01*
X122793333Y-69512857D01*
X122840952Y-69417619D01*
X122888571Y-69370000D01*
X122983809Y-69322380D01*
X124174285Y-69322380D02*
X123983809Y-69322380D01*
X123888571Y-69370000D01*
X123840952Y-69417619D01*
X123745714Y-69560476D01*
X123698095Y-69750952D01*
X123698095Y-70131904D01*
X123745714Y-70227142D01*
X123793333Y-70274761D01*
X123888571Y-70322380D01*
X124079047Y-70322380D01*
X124174285Y-70274761D01*
X124221904Y-70227142D01*
X124269523Y-70131904D01*
X124269523Y-69893809D01*
X124221904Y-69798571D01*
X124174285Y-69750952D01*
X124079047Y-69703333D01*
X123888571Y-69703333D01*
X123793333Y-69750952D01*
X123745714Y-69798571D01*
X123698095Y-69893809D01*
X124888571Y-69322380D02*
X124983809Y-69322380D01*
X125079047Y-69370000D01*
X125126666Y-69417619D01*
X125174285Y-69512857D01*
X125221904Y-69703333D01*
X125221904Y-69941428D01*
X125174285Y-70131904D01*
X125126666Y-70227142D01*
X125079047Y-70274761D01*
X124983809Y-70322380D01*
X124888571Y-70322380D01*
X124793333Y-70274761D01*
X124745714Y-70227142D01*
X124698095Y-70131904D01*
X124650476Y-69941428D01*
X124650476Y-69703333D01*
X124698095Y-69512857D01*
X124745714Y-69417619D01*
X124793333Y-69370000D01*
X124888571Y-69322380D01*
X125555238Y-69322380D02*
X126174285Y-69322380D01*
X125840952Y-69703333D01*
X125983809Y-69703333D01*
X126079047Y-69750952D01*
X126126666Y-69798571D01*
X126174285Y-69893809D01*
X126174285Y-70131904D01*
X126126666Y-70227142D01*
X126079047Y-70274761D01*
X125983809Y-70322380D01*
X125698095Y-70322380D01*
X125602857Y-70274761D01*
X125555238Y-70227142D01*
X122983809Y-74402380D02*
X123079047Y-74402380D01*
X123174285Y-74450000D01*
X123221904Y-74497619D01*
X123269523Y-74592857D01*
X123317142Y-74783333D01*
X123317142Y-75021428D01*
X123269523Y-75211904D01*
X123221904Y-75307142D01*
X123174285Y-75354761D01*
X123079047Y-75402380D01*
X122983809Y-75402380D01*
X122888571Y-75354761D01*
X122840952Y-75307142D01*
X122793333Y-75211904D01*
X122745714Y-75021428D01*
X122745714Y-74783333D01*
X122793333Y-74592857D01*
X122840952Y-74497619D01*
X122888571Y-74450000D01*
X122983809Y-74402380D01*
X124174285Y-74402380D02*
X123983809Y-74402380D01*
X123888571Y-74450000D01*
X123840952Y-74497619D01*
X123745714Y-74640476D01*
X123698095Y-74830952D01*
X123698095Y-75211904D01*
X123745714Y-75307142D01*
X123793333Y-75354761D01*
X123888571Y-75402380D01*
X124079047Y-75402380D01*
X124174285Y-75354761D01*
X124221904Y-75307142D01*
X124269523Y-75211904D01*
X124269523Y-74973809D01*
X124221904Y-74878571D01*
X124174285Y-74830952D01*
X124079047Y-74783333D01*
X123888571Y-74783333D01*
X123793333Y-74830952D01*
X123745714Y-74878571D01*
X123698095Y-74973809D01*
X124888571Y-74402380D02*
X124983809Y-74402380D01*
X125079047Y-74450000D01*
X125126666Y-74497619D01*
X125174285Y-74592857D01*
X125221904Y-74783333D01*
X125221904Y-75021428D01*
X125174285Y-75211904D01*
X125126666Y-75307142D01*
X125079047Y-75354761D01*
X124983809Y-75402380D01*
X124888571Y-75402380D01*
X124793333Y-75354761D01*
X124745714Y-75307142D01*
X124698095Y-75211904D01*
X124650476Y-75021428D01*
X124650476Y-74783333D01*
X124698095Y-74592857D01*
X124745714Y-74497619D01*
X124793333Y-74450000D01*
X124888571Y-74402380D01*
X125555238Y-74402380D02*
X126174285Y-74402380D01*
X125840952Y-74783333D01*
X125983809Y-74783333D01*
X126079047Y-74830952D01*
X126126666Y-74878571D01*
X126174285Y-74973809D01*
X126174285Y-75211904D01*
X126126666Y-75307142D01*
X126079047Y-75354761D01*
X125983809Y-75402380D01*
X125698095Y-75402380D01*
X125602857Y-75354761D01*
X125555238Y-75307142D01*
X112823809Y-74402380D02*
X112919047Y-74402380D01*
X113014285Y-74450000D01*
X113061904Y-74497619D01*
X113109523Y-74592857D01*
X113157142Y-74783333D01*
X113157142Y-75021428D01*
X113109523Y-75211904D01*
X113061904Y-75307142D01*
X113014285Y-75354761D01*
X112919047Y-75402380D01*
X112823809Y-75402380D01*
X112728571Y-75354761D01*
X112680952Y-75307142D01*
X112633333Y-75211904D01*
X112585714Y-75021428D01*
X112585714Y-74783333D01*
X112633333Y-74592857D01*
X112680952Y-74497619D01*
X112728571Y-74450000D01*
X112823809Y-74402380D01*
X114014285Y-74402380D02*
X113823809Y-74402380D01*
X113728571Y-74450000D01*
X113680952Y-74497619D01*
X113585714Y-74640476D01*
X113538095Y-74830952D01*
X113538095Y-75211904D01*
X113585714Y-75307142D01*
X113633333Y-75354761D01*
X113728571Y-75402380D01*
X113919047Y-75402380D01*
X114014285Y-75354761D01*
X114061904Y-75307142D01*
X114109523Y-75211904D01*
X114109523Y-74973809D01*
X114061904Y-74878571D01*
X114014285Y-74830952D01*
X113919047Y-74783333D01*
X113728571Y-74783333D01*
X113633333Y-74830952D01*
X113585714Y-74878571D01*
X113538095Y-74973809D01*
X114728571Y-74402380D02*
X114823809Y-74402380D01*
X114919047Y-74450000D01*
X114966666Y-74497619D01*
X115014285Y-74592857D01*
X115061904Y-74783333D01*
X115061904Y-75021428D01*
X115014285Y-75211904D01*
X114966666Y-75307142D01*
X114919047Y-75354761D01*
X114823809Y-75402380D01*
X114728571Y-75402380D01*
X114633333Y-75354761D01*
X114585714Y-75307142D01*
X114538095Y-75211904D01*
X114490476Y-75021428D01*
X114490476Y-74783333D01*
X114538095Y-74592857D01*
X114585714Y-74497619D01*
X114633333Y-74450000D01*
X114728571Y-74402380D01*
X115395238Y-74402380D02*
X116014285Y-74402380D01*
X115680952Y-74783333D01*
X115823809Y-74783333D01*
X115919047Y-74830952D01*
X115966666Y-74878571D01*
X116014285Y-74973809D01*
X116014285Y-75211904D01*
X115966666Y-75307142D01*
X115919047Y-75354761D01*
X115823809Y-75402380D01*
X115538095Y-75402380D01*
X115442857Y-75354761D01*
X115395238Y-75307142D01*
X90913809Y-41382380D02*
X91009047Y-41382380D01*
X91104285Y-41430000D01*
X91151904Y-41477619D01*
X91199523Y-41572857D01*
X91247142Y-41763333D01*
X91247142Y-42001428D01*
X91199523Y-42191904D01*
X91151904Y-42287142D01*
X91104285Y-42334761D01*
X91009047Y-42382380D01*
X90913809Y-42382380D01*
X90818571Y-42334761D01*
X90770952Y-42287142D01*
X90723333Y-42191904D01*
X90675714Y-42001428D01*
X90675714Y-41763333D01*
X90723333Y-41572857D01*
X90770952Y-41477619D01*
X90818571Y-41430000D01*
X90913809Y-41382380D01*
X92104285Y-41382380D02*
X91913809Y-41382380D01*
X91818571Y-41430000D01*
X91770952Y-41477619D01*
X91675714Y-41620476D01*
X91628095Y-41810952D01*
X91628095Y-42191904D01*
X91675714Y-42287142D01*
X91723333Y-42334761D01*
X91818571Y-42382380D01*
X92009047Y-42382380D01*
X92104285Y-42334761D01*
X92151904Y-42287142D01*
X92199523Y-42191904D01*
X92199523Y-41953809D01*
X92151904Y-41858571D01*
X92104285Y-41810952D01*
X92009047Y-41763333D01*
X91818571Y-41763333D01*
X91723333Y-41810952D01*
X91675714Y-41858571D01*
X91628095Y-41953809D01*
X92818571Y-41382380D02*
X92913809Y-41382380D01*
X93009047Y-41430000D01*
X93056666Y-41477619D01*
X93104285Y-41572857D01*
X93151904Y-41763333D01*
X93151904Y-42001428D01*
X93104285Y-42191904D01*
X93056666Y-42287142D01*
X93009047Y-42334761D01*
X92913809Y-42382380D01*
X92818571Y-42382380D01*
X92723333Y-42334761D01*
X92675714Y-42287142D01*
X92628095Y-42191904D01*
X92580476Y-42001428D01*
X92580476Y-41763333D01*
X92628095Y-41572857D01*
X92675714Y-41477619D01*
X92723333Y-41430000D01*
X92818571Y-41382380D01*
X93485238Y-41382380D02*
X94104285Y-41382380D01*
X93770952Y-41763333D01*
X93913809Y-41763333D01*
X94009047Y-41810952D01*
X94056666Y-41858571D01*
X94104285Y-41953809D01*
X94104285Y-42191904D01*
X94056666Y-42287142D01*
X94009047Y-42334761D01*
X93913809Y-42382380D01*
X93628095Y-42382380D01*
X93532857Y-42334761D01*
X93485238Y-42287142D01*
X143303809Y-97262380D02*
X143399047Y-97262380D01*
X143494285Y-97310000D01*
X143541904Y-97357619D01*
X143589523Y-97452857D01*
X143637142Y-97643333D01*
X143637142Y-97881428D01*
X143589523Y-98071904D01*
X143541904Y-98167142D01*
X143494285Y-98214761D01*
X143399047Y-98262380D01*
X143303809Y-98262380D01*
X143208571Y-98214761D01*
X143160952Y-98167142D01*
X143113333Y-98071904D01*
X143065714Y-97881428D01*
X143065714Y-97643333D01*
X143113333Y-97452857D01*
X143160952Y-97357619D01*
X143208571Y-97310000D01*
X143303809Y-97262380D01*
X144208571Y-97690952D02*
X144113333Y-97643333D01*
X144065714Y-97595714D01*
X144018095Y-97500476D01*
X144018095Y-97452857D01*
X144065714Y-97357619D01*
X144113333Y-97310000D01*
X144208571Y-97262380D01*
X144399047Y-97262380D01*
X144494285Y-97310000D01*
X144541904Y-97357619D01*
X144589523Y-97452857D01*
X144589523Y-97500476D01*
X144541904Y-97595714D01*
X144494285Y-97643333D01*
X144399047Y-97690952D01*
X144208571Y-97690952D01*
X144113333Y-97738571D01*
X144065714Y-97786190D01*
X144018095Y-97881428D01*
X144018095Y-98071904D01*
X144065714Y-98167142D01*
X144113333Y-98214761D01*
X144208571Y-98262380D01*
X144399047Y-98262380D01*
X144494285Y-98214761D01*
X144541904Y-98167142D01*
X144589523Y-98071904D01*
X144589523Y-97881428D01*
X144541904Y-97786190D01*
X144494285Y-97738571D01*
X144399047Y-97690952D01*
X145208571Y-97262380D02*
X145303809Y-97262380D01*
X145399047Y-97310000D01*
X145446666Y-97357619D01*
X145494285Y-97452857D01*
X145541904Y-97643333D01*
X145541904Y-97881428D01*
X145494285Y-98071904D01*
X145446666Y-98167142D01*
X145399047Y-98214761D01*
X145303809Y-98262380D01*
X145208571Y-98262380D01*
X145113333Y-98214761D01*
X145065714Y-98167142D01*
X145018095Y-98071904D01*
X144970476Y-97881428D01*
X144970476Y-97643333D01*
X145018095Y-97452857D01*
X145065714Y-97357619D01*
X145113333Y-97310000D01*
X145208571Y-97262380D01*
X146446666Y-97262380D02*
X145970476Y-97262380D01*
X145922857Y-97738571D01*
X145970476Y-97690952D01*
X146065714Y-97643333D01*
X146303809Y-97643333D01*
X146399047Y-97690952D01*
X146446666Y-97738571D01*
X146494285Y-97833809D01*
X146494285Y-98071904D01*
X146446666Y-98167142D01*
X146399047Y-98214761D01*
X146303809Y-98262380D01*
X146065714Y-98262380D01*
X145970476Y-98214761D01*
X145922857Y-98167142D01*
X130603809Y-97262380D02*
X130699047Y-97262380D01*
X130794285Y-97310000D01*
X130841904Y-97357619D01*
X130889523Y-97452857D01*
X130937142Y-97643333D01*
X130937142Y-97881428D01*
X130889523Y-98071904D01*
X130841904Y-98167142D01*
X130794285Y-98214761D01*
X130699047Y-98262380D01*
X130603809Y-98262380D01*
X130508571Y-98214761D01*
X130460952Y-98167142D01*
X130413333Y-98071904D01*
X130365714Y-97881428D01*
X130365714Y-97643333D01*
X130413333Y-97452857D01*
X130460952Y-97357619D01*
X130508571Y-97310000D01*
X130603809Y-97262380D01*
X131794285Y-97262380D02*
X131603809Y-97262380D01*
X131508571Y-97310000D01*
X131460952Y-97357619D01*
X131365714Y-97500476D01*
X131318095Y-97690952D01*
X131318095Y-98071904D01*
X131365714Y-98167142D01*
X131413333Y-98214761D01*
X131508571Y-98262380D01*
X131699047Y-98262380D01*
X131794285Y-98214761D01*
X131841904Y-98167142D01*
X131889523Y-98071904D01*
X131889523Y-97833809D01*
X131841904Y-97738571D01*
X131794285Y-97690952D01*
X131699047Y-97643333D01*
X131508571Y-97643333D01*
X131413333Y-97690952D01*
X131365714Y-97738571D01*
X131318095Y-97833809D01*
X132508571Y-97262380D02*
X132603809Y-97262380D01*
X132699047Y-97310000D01*
X132746666Y-97357619D01*
X132794285Y-97452857D01*
X132841904Y-97643333D01*
X132841904Y-97881428D01*
X132794285Y-98071904D01*
X132746666Y-98167142D01*
X132699047Y-98214761D01*
X132603809Y-98262380D01*
X132508571Y-98262380D01*
X132413333Y-98214761D01*
X132365714Y-98167142D01*
X132318095Y-98071904D01*
X132270476Y-97881428D01*
X132270476Y-97643333D01*
X132318095Y-97452857D01*
X132365714Y-97357619D01*
X132413333Y-97310000D01*
X132508571Y-97262380D01*
X133175238Y-97262380D02*
X133794285Y-97262380D01*
X133460952Y-97643333D01*
X133603809Y-97643333D01*
X133699047Y-97690952D01*
X133746666Y-97738571D01*
X133794285Y-97833809D01*
X133794285Y-98071904D01*
X133746666Y-98167142D01*
X133699047Y-98214761D01*
X133603809Y-98262380D01*
X133318095Y-98262380D01*
X133222857Y-98214761D01*
X133175238Y-98167142D01*
X142113809Y-81572380D02*
X142209047Y-81572380D01*
X142304285Y-81620000D01*
X142351904Y-81667619D01*
X142399523Y-81762857D01*
X142447142Y-81953333D01*
X142447142Y-82191428D01*
X142399523Y-82381904D01*
X142351904Y-82477142D01*
X142304285Y-82524761D01*
X142209047Y-82572380D01*
X142113809Y-82572380D01*
X142018571Y-82524761D01*
X141970952Y-82477142D01*
X141923333Y-82381904D01*
X141875714Y-82191428D01*
X141875714Y-81953333D01*
X141923333Y-81762857D01*
X141970952Y-81667619D01*
X142018571Y-81620000D01*
X142113809Y-81572380D01*
X143018571Y-82000952D02*
X142923333Y-81953333D01*
X142875714Y-81905714D01*
X142828095Y-81810476D01*
X142828095Y-81762857D01*
X142875714Y-81667619D01*
X142923333Y-81620000D01*
X143018571Y-81572380D01*
X143209047Y-81572380D01*
X143304285Y-81620000D01*
X143351904Y-81667619D01*
X143399523Y-81762857D01*
X143399523Y-81810476D01*
X143351904Y-81905714D01*
X143304285Y-81953333D01*
X143209047Y-82000952D01*
X143018571Y-82000952D01*
X142923333Y-82048571D01*
X142875714Y-82096190D01*
X142828095Y-82191428D01*
X142828095Y-82381904D01*
X142875714Y-82477142D01*
X142923333Y-82524761D01*
X143018571Y-82572380D01*
X143209047Y-82572380D01*
X143304285Y-82524761D01*
X143351904Y-82477142D01*
X143399523Y-82381904D01*
X143399523Y-82191428D01*
X143351904Y-82096190D01*
X143304285Y-82048571D01*
X143209047Y-82000952D01*
X144018571Y-81572380D02*
X144113809Y-81572380D01*
X144209047Y-81620000D01*
X144256666Y-81667619D01*
X144304285Y-81762857D01*
X144351904Y-81953333D01*
X144351904Y-82191428D01*
X144304285Y-82381904D01*
X144256666Y-82477142D01*
X144209047Y-82524761D01*
X144113809Y-82572380D01*
X144018571Y-82572380D01*
X143923333Y-82524761D01*
X143875714Y-82477142D01*
X143828095Y-82381904D01*
X143780476Y-82191428D01*
X143780476Y-81953333D01*
X143828095Y-81762857D01*
X143875714Y-81667619D01*
X143923333Y-81620000D01*
X144018571Y-81572380D01*
X145256666Y-81572380D02*
X144780476Y-81572380D01*
X144732857Y-82048571D01*
X144780476Y-82000952D01*
X144875714Y-81953333D01*
X145113809Y-81953333D01*
X145209047Y-82000952D01*
X145256666Y-82048571D01*
X145304285Y-82143809D01*
X145304285Y-82381904D01*
X145256666Y-82477142D01*
X145209047Y-82524761D01*
X145113809Y-82572380D01*
X144875714Y-82572380D01*
X144780476Y-82524761D01*
X144732857Y-82477142D01*
X143303809Y-89192380D02*
X143399047Y-89192380D01*
X143494285Y-89240000D01*
X143541904Y-89287619D01*
X143589523Y-89382857D01*
X143637142Y-89573333D01*
X143637142Y-89811428D01*
X143589523Y-90001904D01*
X143541904Y-90097142D01*
X143494285Y-90144761D01*
X143399047Y-90192380D01*
X143303809Y-90192380D01*
X143208571Y-90144761D01*
X143160952Y-90097142D01*
X143113333Y-90001904D01*
X143065714Y-89811428D01*
X143065714Y-89573333D01*
X143113333Y-89382857D01*
X143160952Y-89287619D01*
X143208571Y-89240000D01*
X143303809Y-89192380D01*
X144208571Y-89620952D02*
X144113333Y-89573333D01*
X144065714Y-89525714D01*
X144018095Y-89430476D01*
X144018095Y-89382857D01*
X144065714Y-89287619D01*
X144113333Y-89240000D01*
X144208571Y-89192380D01*
X144399047Y-89192380D01*
X144494285Y-89240000D01*
X144541904Y-89287619D01*
X144589523Y-89382857D01*
X144589523Y-89430476D01*
X144541904Y-89525714D01*
X144494285Y-89573333D01*
X144399047Y-89620952D01*
X144208571Y-89620952D01*
X144113333Y-89668571D01*
X144065714Y-89716190D01*
X144018095Y-89811428D01*
X144018095Y-90001904D01*
X144065714Y-90097142D01*
X144113333Y-90144761D01*
X144208571Y-90192380D01*
X144399047Y-90192380D01*
X144494285Y-90144761D01*
X144541904Y-90097142D01*
X144589523Y-90001904D01*
X144589523Y-89811428D01*
X144541904Y-89716190D01*
X144494285Y-89668571D01*
X144399047Y-89620952D01*
X145208571Y-89192380D02*
X145303809Y-89192380D01*
X145399047Y-89240000D01*
X145446666Y-89287619D01*
X145494285Y-89382857D01*
X145541904Y-89573333D01*
X145541904Y-89811428D01*
X145494285Y-90001904D01*
X145446666Y-90097142D01*
X145399047Y-90144761D01*
X145303809Y-90192380D01*
X145208571Y-90192380D01*
X145113333Y-90144761D01*
X145065714Y-90097142D01*
X145018095Y-90001904D01*
X144970476Y-89811428D01*
X144970476Y-89573333D01*
X145018095Y-89382857D01*
X145065714Y-89287619D01*
X145113333Y-89240000D01*
X145208571Y-89192380D01*
X146446666Y-89192380D02*
X145970476Y-89192380D01*
X145922857Y-89668571D01*
X145970476Y-89620952D01*
X146065714Y-89573333D01*
X146303809Y-89573333D01*
X146399047Y-89620952D01*
X146446666Y-89668571D01*
X146494285Y-89763809D01*
X146494285Y-90001904D01*
X146446666Y-90097142D01*
X146399047Y-90144761D01*
X146303809Y-90192380D01*
X146065714Y-90192380D01*
X145970476Y-90144761D01*
X145922857Y-90097142D01*
X130603809Y-89192380D02*
X130699047Y-89192380D01*
X130794285Y-89240000D01*
X130841904Y-89287619D01*
X130889523Y-89382857D01*
X130937142Y-89573333D01*
X130937142Y-89811428D01*
X130889523Y-90001904D01*
X130841904Y-90097142D01*
X130794285Y-90144761D01*
X130699047Y-90192380D01*
X130603809Y-90192380D01*
X130508571Y-90144761D01*
X130460952Y-90097142D01*
X130413333Y-90001904D01*
X130365714Y-89811428D01*
X130365714Y-89573333D01*
X130413333Y-89382857D01*
X130460952Y-89287619D01*
X130508571Y-89240000D01*
X130603809Y-89192380D01*
X131508571Y-89620952D02*
X131413333Y-89573333D01*
X131365714Y-89525714D01*
X131318095Y-89430476D01*
X131318095Y-89382857D01*
X131365714Y-89287619D01*
X131413333Y-89240000D01*
X131508571Y-89192380D01*
X131699047Y-89192380D01*
X131794285Y-89240000D01*
X131841904Y-89287619D01*
X131889523Y-89382857D01*
X131889523Y-89430476D01*
X131841904Y-89525714D01*
X131794285Y-89573333D01*
X131699047Y-89620952D01*
X131508571Y-89620952D01*
X131413333Y-89668571D01*
X131365714Y-89716190D01*
X131318095Y-89811428D01*
X131318095Y-90001904D01*
X131365714Y-90097142D01*
X131413333Y-90144761D01*
X131508571Y-90192380D01*
X131699047Y-90192380D01*
X131794285Y-90144761D01*
X131841904Y-90097142D01*
X131889523Y-90001904D01*
X131889523Y-89811428D01*
X131841904Y-89716190D01*
X131794285Y-89668571D01*
X131699047Y-89620952D01*
X132508571Y-89192380D02*
X132603809Y-89192380D01*
X132699047Y-89240000D01*
X132746666Y-89287619D01*
X132794285Y-89382857D01*
X132841904Y-89573333D01*
X132841904Y-89811428D01*
X132794285Y-90001904D01*
X132746666Y-90097142D01*
X132699047Y-90144761D01*
X132603809Y-90192380D01*
X132508571Y-90192380D01*
X132413333Y-90144761D01*
X132365714Y-90097142D01*
X132318095Y-90001904D01*
X132270476Y-89811428D01*
X132270476Y-89573333D01*
X132318095Y-89382857D01*
X132365714Y-89287619D01*
X132413333Y-89240000D01*
X132508571Y-89192380D01*
X133746666Y-89192380D02*
X133270476Y-89192380D01*
X133222857Y-89668571D01*
X133270476Y-89620952D01*
X133365714Y-89573333D01*
X133603809Y-89573333D01*
X133699047Y-89620952D01*
X133746666Y-89668571D01*
X133794285Y-89763809D01*
X133794285Y-90001904D01*
X133746666Y-90097142D01*
X133699047Y-90144761D01*
X133603809Y-90192380D01*
X133365714Y-90192380D01*
X133270476Y-90144761D01*
X133222857Y-90097142D01*
X100123809Y-73952380D02*
X100219047Y-73952380D01*
X100314285Y-74000000D01*
X100361904Y-74047619D01*
X100409523Y-74142857D01*
X100457142Y-74333333D01*
X100457142Y-74571428D01*
X100409523Y-74761904D01*
X100361904Y-74857142D01*
X100314285Y-74904761D01*
X100219047Y-74952380D01*
X100123809Y-74952380D01*
X100028571Y-74904761D01*
X99980952Y-74857142D01*
X99933333Y-74761904D01*
X99885714Y-74571428D01*
X99885714Y-74333333D01*
X99933333Y-74142857D01*
X99980952Y-74047619D01*
X100028571Y-74000000D01*
X100123809Y-73952380D01*
X101028571Y-74380952D02*
X100933333Y-74333333D01*
X100885714Y-74285714D01*
X100838095Y-74190476D01*
X100838095Y-74142857D01*
X100885714Y-74047619D01*
X100933333Y-74000000D01*
X101028571Y-73952380D01*
X101219047Y-73952380D01*
X101314285Y-74000000D01*
X101361904Y-74047619D01*
X101409523Y-74142857D01*
X101409523Y-74190476D01*
X101361904Y-74285714D01*
X101314285Y-74333333D01*
X101219047Y-74380952D01*
X101028571Y-74380952D01*
X100933333Y-74428571D01*
X100885714Y-74476190D01*
X100838095Y-74571428D01*
X100838095Y-74761904D01*
X100885714Y-74857142D01*
X100933333Y-74904761D01*
X101028571Y-74952380D01*
X101219047Y-74952380D01*
X101314285Y-74904761D01*
X101361904Y-74857142D01*
X101409523Y-74761904D01*
X101409523Y-74571428D01*
X101361904Y-74476190D01*
X101314285Y-74428571D01*
X101219047Y-74380952D01*
X102028571Y-73952380D02*
X102123809Y-73952380D01*
X102219047Y-74000000D01*
X102266666Y-74047619D01*
X102314285Y-74142857D01*
X102361904Y-74333333D01*
X102361904Y-74571428D01*
X102314285Y-74761904D01*
X102266666Y-74857142D01*
X102219047Y-74904761D01*
X102123809Y-74952380D01*
X102028571Y-74952380D01*
X101933333Y-74904761D01*
X101885714Y-74857142D01*
X101838095Y-74761904D01*
X101790476Y-74571428D01*
X101790476Y-74333333D01*
X101838095Y-74142857D01*
X101885714Y-74047619D01*
X101933333Y-74000000D01*
X102028571Y-73952380D01*
X103266666Y-73952380D02*
X102790476Y-73952380D01*
X102742857Y-74428571D01*
X102790476Y-74380952D01*
X102885714Y-74333333D01*
X103123809Y-74333333D01*
X103219047Y-74380952D01*
X103266666Y-74428571D01*
X103314285Y-74523809D01*
X103314285Y-74761904D01*
X103266666Y-74857142D01*
X103219047Y-74904761D01*
X103123809Y-74952380D01*
X102885714Y-74952380D01*
X102790476Y-74904761D01*
X102742857Y-74857142D01*
X84883809Y-73952380D02*
X84979047Y-73952380D01*
X85074285Y-74000000D01*
X85121904Y-74047619D01*
X85169523Y-74142857D01*
X85217142Y-74333333D01*
X85217142Y-74571428D01*
X85169523Y-74761904D01*
X85121904Y-74857142D01*
X85074285Y-74904761D01*
X84979047Y-74952380D01*
X84883809Y-74952380D01*
X84788571Y-74904761D01*
X84740952Y-74857142D01*
X84693333Y-74761904D01*
X84645714Y-74571428D01*
X84645714Y-74333333D01*
X84693333Y-74142857D01*
X84740952Y-74047619D01*
X84788571Y-74000000D01*
X84883809Y-73952380D01*
X85788571Y-74380952D02*
X85693333Y-74333333D01*
X85645714Y-74285714D01*
X85598095Y-74190476D01*
X85598095Y-74142857D01*
X85645714Y-74047619D01*
X85693333Y-74000000D01*
X85788571Y-73952380D01*
X85979047Y-73952380D01*
X86074285Y-74000000D01*
X86121904Y-74047619D01*
X86169523Y-74142857D01*
X86169523Y-74190476D01*
X86121904Y-74285714D01*
X86074285Y-74333333D01*
X85979047Y-74380952D01*
X85788571Y-74380952D01*
X85693333Y-74428571D01*
X85645714Y-74476190D01*
X85598095Y-74571428D01*
X85598095Y-74761904D01*
X85645714Y-74857142D01*
X85693333Y-74904761D01*
X85788571Y-74952380D01*
X85979047Y-74952380D01*
X86074285Y-74904761D01*
X86121904Y-74857142D01*
X86169523Y-74761904D01*
X86169523Y-74571428D01*
X86121904Y-74476190D01*
X86074285Y-74428571D01*
X85979047Y-74380952D01*
X86788571Y-73952380D02*
X86883809Y-73952380D01*
X86979047Y-74000000D01*
X87026666Y-74047619D01*
X87074285Y-74142857D01*
X87121904Y-74333333D01*
X87121904Y-74571428D01*
X87074285Y-74761904D01*
X87026666Y-74857142D01*
X86979047Y-74904761D01*
X86883809Y-74952380D01*
X86788571Y-74952380D01*
X86693333Y-74904761D01*
X86645714Y-74857142D01*
X86598095Y-74761904D01*
X86550476Y-74571428D01*
X86550476Y-74333333D01*
X86598095Y-74142857D01*
X86645714Y-74047619D01*
X86693333Y-74000000D01*
X86788571Y-73952380D01*
X88026666Y-73952380D02*
X87550476Y-73952380D01*
X87502857Y-74428571D01*
X87550476Y-74380952D01*
X87645714Y-74333333D01*
X87883809Y-74333333D01*
X87979047Y-74380952D01*
X88026666Y-74428571D01*
X88074285Y-74523809D01*
X88074285Y-74761904D01*
X88026666Y-74857142D01*
X87979047Y-74904761D01*
X87883809Y-74952380D01*
X87645714Y-74952380D01*
X87550476Y-74904761D01*
X87502857Y-74857142D01*
X72183809Y-73952380D02*
X72279047Y-73952380D01*
X72374285Y-74000000D01*
X72421904Y-74047619D01*
X72469523Y-74142857D01*
X72517142Y-74333333D01*
X72517142Y-74571428D01*
X72469523Y-74761904D01*
X72421904Y-74857142D01*
X72374285Y-74904761D01*
X72279047Y-74952380D01*
X72183809Y-74952380D01*
X72088571Y-74904761D01*
X72040952Y-74857142D01*
X71993333Y-74761904D01*
X71945714Y-74571428D01*
X71945714Y-74333333D01*
X71993333Y-74142857D01*
X72040952Y-74047619D01*
X72088571Y-74000000D01*
X72183809Y-73952380D01*
X73088571Y-74380952D02*
X72993333Y-74333333D01*
X72945714Y-74285714D01*
X72898095Y-74190476D01*
X72898095Y-74142857D01*
X72945714Y-74047619D01*
X72993333Y-74000000D01*
X73088571Y-73952380D01*
X73279047Y-73952380D01*
X73374285Y-74000000D01*
X73421904Y-74047619D01*
X73469523Y-74142857D01*
X73469523Y-74190476D01*
X73421904Y-74285714D01*
X73374285Y-74333333D01*
X73279047Y-74380952D01*
X73088571Y-74380952D01*
X72993333Y-74428571D01*
X72945714Y-74476190D01*
X72898095Y-74571428D01*
X72898095Y-74761904D01*
X72945714Y-74857142D01*
X72993333Y-74904761D01*
X73088571Y-74952380D01*
X73279047Y-74952380D01*
X73374285Y-74904761D01*
X73421904Y-74857142D01*
X73469523Y-74761904D01*
X73469523Y-74571428D01*
X73421904Y-74476190D01*
X73374285Y-74428571D01*
X73279047Y-74380952D01*
X74088571Y-73952380D02*
X74183809Y-73952380D01*
X74279047Y-74000000D01*
X74326666Y-74047619D01*
X74374285Y-74142857D01*
X74421904Y-74333333D01*
X74421904Y-74571428D01*
X74374285Y-74761904D01*
X74326666Y-74857142D01*
X74279047Y-74904761D01*
X74183809Y-74952380D01*
X74088571Y-74952380D01*
X73993333Y-74904761D01*
X73945714Y-74857142D01*
X73898095Y-74761904D01*
X73850476Y-74571428D01*
X73850476Y-74333333D01*
X73898095Y-74142857D01*
X73945714Y-74047619D01*
X73993333Y-74000000D01*
X74088571Y-73952380D01*
X75326666Y-73952380D02*
X74850476Y-73952380D01*
X74802857Y-74428571D01*
X74850476Y-74380952D01*
X74945714Y-74333333D01*
X75183809Y-74333333D01*
X75279047Y-74380952D01*
X75326666Y-74428571D01*
X75374285Y-74523809D01*
X75374285Y-74761904D01*
X75326666Y-74857142D01*
X75279047Y-74904761D01*
X75183809Y-74952380D01*
X74945714Y-74952380D01*
X74850476Y-74904761D01*
X74802857Y-74857142D01*
X148971428Y-105772380D02*
X149304761Y-106772380D01*
X149638095Y-105772380D01*
X149923809Y-106724761D02*
X150066666Y-106772380D01*
X150304761Y-106772380D01*
X150400000Y-106724761D01*
X150447619Y-106677142D01*
X150495238Y-106581904D01*
X150495238Y-106486666D01*
X150447619Y-106391428D01*
X150400000Y-106343809D01*
X150304761Y-106296190D01*
X150114285Y-106248571D01*
X150019047Y-106200952D01*
X149971428Y-106153333D01*
X149923809Y-106058095D01*
X149923809Y-105962857D01*
X149971428Y-105867619D01*
X150019047Y-105820000D01*
X150114285Y-105772380D01*
X150352380Y-105772380D01*
X150495238Y-105820000D01*
X151114285Y-105772380D02*
X151304761Y-105772380D01*
X151400000Y-105820000D01*
X151495238Y-105915238D01*
X151542857Y-106105714D01*
X151542857Y-106439047D01*
X151495238Y-106629523D01*
X151400000Y-106724761D01*
X151304761Y-106772380D01*
X151114285Y-106772380D01*
X151019047Y-106724761D01*
X150923809Y-106629523D01*
X150876190Y-106439047D01*
X150876190Y-106105714D01*
X150923809Y-105915238D01*
X151019047Y-105820000D01*
X151114285Y-105772380D01*
X151971428Y-106772380D02*
X151971428Y-105772380D01*
X152542857Y-106772380D01*
X152542857Y-105772380D01*
X153019047Y-106391428D02*
X153780952Y-106391428D01*
X154780952Y-106772380D02*
X154209523Y-106772380D01*
X154495238Y-106772380D02*
X154495238Y-105772380D01*
X154400000Y-105915238D01*
X154304761Y-106010476D01*
X154209523Y-106058095D01*
X155400000Y-105772380D02*
X155495238Y-105772380D01*
X155590476Y-105820000D01*
X155638095Y-105867619D01*
X155685714Y-105962857D01*
X155733333Y-106153333D01*
X155733333Y-106391428D01*
X155685714Y-106581904D01*
X155638095Y-106677142D01*
X155590476Y-106724761D01*
X155495238Y-106772380D01*
X155400000Y-106772380D01*
X155304761Y-106724761D01*
X155257142Y-106677142D01*
X155209523Y-106581904D01*
X155161904Y-106391428D01*
X155161904Y-106153333D01*
X155209523Y-105962857D01*
X155257142Y-105867619D01*
X155304761Y-105820000D01*
X155400000Y-105772380D01*
X138366666Y-42922380D02*
X138033333Y-42446190D01*
X137795238Y-42922380D02*
X137795238Y-41922380D01*
X138176190Y-41922380D01*
X138271428Y-41970000D01*
X138319047Y-42017619D01*
X138366666Y-42112857D01*
X138366666Y-42255714D01*
X138319047Y-42350952D01*
X138271428Y-42398571D01*
X138176190Y-42446190D01*
X137795238Y-42446190D01*
X138795238Y-42398571D02*
X139128571Y-42398571D01*
X139271428Y-42922380D02*
X138795238Y-42922380D01*
X138795238Y-41922380D01*
X139271428Y-41922380D01*
X140033333Y-42398571D02*
X139700000Y-42398571D01*
X139700000Y-42922380D02*
X139700000Y-41922380D01*
X140176190Y-41922380D01*
X140700000Y-41922380D02*
X140700000Y-42160476D01*
X140461904Y-42065238D02*
X140700000Y-42160476D01*
X140938095Y-42065238D01*
X140557142Y-42350952D02*
X140700000Y-42160476D01*
X140842857Y-42350952D01*
X141461904Y-41922380D02*
X141461904Y-42160476D01*
X141223809Y-42065238D02*
X141461904Y-42160476D01*
X141700000Y-42065238D01*
X141319047Y-42350952D02*
X141461904Y-42160476D01*
X141604761Y-42350952D01*
X118586666Y-43017619D02*
X118491428Y-42970000D01*
X118396190Y-42874761D01*
X118253333Y-42731904D01*
X118158095Y-42684285D01*
X118062857Y-42684285D01*
X118110476Y-42922380D02*
X118015238Y-42874761D01*
X117920000Y-42779523D01*
X117872380Y-42589047D01*
X117872380Y-42255714D01*
X117920000Y-42065238D01*
X118015238Y-41970000D01*
X118110476Y-41922380D01*
X118300952Y-41922380D01*
X118396190Y-41970000D01*
X118491428Y-42065238D01*
X118539047Y-42255714D01*
X118539047Y-42589047D01*
X118491428Y-42779523D01*
X118396190Y-42874761D01*
X118300952Y-42922380D01*
X118110476Y-42922380D01*
X119300952Y-42398571D02*
X118967619Y-42398571D01*
X118967619Y-42922380D02*
X118967619Y-41922380D01*
X119443809Y-41922380D01*
X119824761Y-42922380D02*
X119824761Y-41922380D01*
X120396190Y-42922380D01*
X120396190Y-41922380D01*
X120824761Y-42017619D02*
X120872380Y-41970000D01*
X120967619Y-41922380D01*
X121205714Y-41922380D01*
X121300952Y-41970000D01*
X121348571Y-42017619D01*
X121396190Y-42112857D01*
X121396190Y-42208095D01*
X121348571Y-42350952D01*
X120777142Y-42922380D01*
X121396190Y-42922380D01*
X122015238Y-41922380D02*
X122110476Y-41922380D01*
X122205714Y-41970000D01*
X122253333Y-42017619D01*
X122300952Y-42112857D01*
X122348571Y-42303333D01*
X122348571Y-42541428D01*
X122300952Y-42731904D01*
X122253333Y-42827142D01*
X122205714Y-42874761D01*
X122110476Y-42922380D01*
X122015238Y-42922380D01*
X121920000Y-42874761D01*
X121872380Y-42827142D01*
X121824761Y-42731904D01*
X121777142Y-42541428D01*
X121777142Y-42303333D01*
X121824761Y-42112857D01*
X121872380Y-42017619D01*
X121920000Y-41970000D01*
X122015238Y-41922380D01*
X123443809Y-41922380D02*
X124062857Y-41922380D01*
X123729523Y-42303333D01*
X123872380Y-42303333D01*
X123967619Y-42350952D01*
X124015238Y-42398571D01*
X124062857Y-42493809D01*
X124062857Y-42731904D01*
X124015238Y-42827142D01*
X123967619Y-42874761D01*
X123872380Y-42922380D01*
X123586666Y-42922380D01*
X123491428Y-42874761D01*
X123443809Y-42827142D01*
X124396190Y-41922380D02*
X125062857Y-42922380D01*
X125062857Y-41922380D02*
X124396190Y-42922380D01*
X125872380Y-42255714D02*
X125872380Y-42922380D01*
X125634285Y-41874761D02*
X125396190Y-42589047D01*
X126015238Y-42589047D01*
X100806666Y-43017619D02*
X100711428Y-42970000D01*
X100616190Y-42874761D01*
X100473333Y-42731904D01*
X100378095Y-42684285D01*
X100282857Y-42684285D01*
X100330476Y-42922380D02*
X100235238Y-42874761D01*
X100140000Y-42779523D01*
X100092380Y-42589047D01*
X100092380Y-42255714D01*
X100140000Y-42065238D01*
X100235238Y-41970000D01*
X100330476Y-41922380D01*
X100520952Y-41922380D01*
X100616190Y-41970000D01*
X100711428Y-42065238D01*
X100759047Y-42255714D01*
X100759047Y-42589047D01*
X100711428Y-42779523D01*
X100616190Y-42874761D01*
X100520952Y-42922380D01*
X100330476Y-42922380D01*
X101520952Y-42398571D02*
X101187619Y-42398571D01*
X101187619Y-42922380D02*
X101187619Y-41922380D01*
X101663809Y-41922380D01*
X102044761Y-42922380D02*
X102044761Y-41922380D01*
X102616190Y-42922380D01*
X102616190Y-41922380D01*
X103044761Y-42017619D02*
X103092380Y-41970000D01*
X103187619Y-41922380D01*
X103425714Y-41922380D01*
X103520952Y-41970000D01*
X103568571Y-42017619D01*
X103616190Y-42112857D01*
X103616190Y-42208095D01*
X103568571Y-42350952D01*
X102997142Y-42922380D01*
X103616190Y-42922380D01*
X104235238Y-41922380D02*
X104330476Y-41922380D01*
X104425714Y-41970000D01*
X104473333Y-42017619D01*
X104520952Y-42112857D01*
X104568571Y-42303333D01*
X104568571Y-42541428D01*
X104520952Y-42731904D01*
X104473333Y-42827142D01*
X104425714Y-42874761D01*
X104330476Y-42922380D01*
X104235238Y-42922380D01*
X104140000Y-42874761D01*
X104092380Y-42827142D01*
X104044761Y-42731904D01*
X103997142Y-42541428D01*
X103997142Y-42303333D01*
X104044761Y-42112857D01*
X104092380Y-42017619D01*
X104140000Y-41970000D01*
X104235238Y-41922380D01*
X105663809Y-41922380D02*
X106282857Y-41922380D01*
X105949523Y-42303333D01*
X106092380Y-42303333D01*
X106187619Y-42350952D01*
X106235238Y-42398571D01*
X106282857Y-42493809D01*
X106282857Y-42731904D01*
X106235238Y-42827142D01*
X106187619Y-42874761D01*
X106092380Y-42922380D01*
X105806666Y-42922380D01*
X105711428Y-42874761D01*
X105663809Y-42827142D01*
X106616190Y-41922380D02*
X107282857Y-42922380D01*
X107282857Y-41922380D02*
X106616190Y-42922380D01*
X108092380Y-42255714D02*
X108092380Y-42922380D01*
X107854285Y-41874761D02*
X107616190Y-42589047D01*
X108235238Y-42589047D01*
X75406666Y-43017619D02*
X75311428Y-42970000D01*
X75216190Y-42874761D01*
X75073333Y-42731904D01*
X74978095Y-42684285D01*
X74882857Y-42684285D01*
X74930476Y-42922380D02*
X74835238Y-42874761D01*
X74740000Y-42779523D01*
X74692380Y-42589047D01*
X74692380Y-42255714D01*
X74740000Y-42065238D01*
X74835238Y-41970000D01*
X74930476Y-41922380D01*
X75120952Y-41922380D01*
X75216190Y-41970000D01*
X75311428Y-42065238D01*
X75359047Y-42255714D01*
X75359047Y-42589047D01*
X75311428Y-42779523D01*
X75216190Y-42874761D01*
X75120952Y-42922380D01*
X74930476Y-42922380D01*
X76120952Y-42398571D02*
X75787619Y-42398571D01*
X75787619Y-42922380D02*
X75787619Y-41922380D01*
X76263809Y-41922380D01*
X76644761Y-42922380D02*
X76644761Y-41922380D01*
X77216190Y-42922380D01*
X77216190Y-41922380D01*
X77644761Y-42017619D02*
X77692380Y-41970000D01*
X77787619Y-41922380D01*
X78025714Y-41922380D01*
X78120952Y-41970000D01*
X78168571Y-42017619D01*
X78216190Y-42112857D01*
X78216190Y-42208095D01*
X78168571Y-42350952D01*
X77597142Y-42922380D01*
X78216190Y-42922380D01*
X78835238Y-41922380D02*
X78930476Y-41922380D01*
X79025714Y-41970000D01*
X79073333Y-42017619D01*
X79120952Y-42112857D01*
X79168571Y-42303333D01*
X79168571Y-42541428D01*
X79120952Y-42731904D01*
X79073333Y-42827142D01*
X79025714Y-42874761D01*
X78930476Y-42922380D01*
X78835238Y-42922380D01*
X78740000Y-42874761D01*
X78692380Y-42827142D01*
X78644761Y-42731904D01*
X78597142Y-42541428D01*
X78597142Y-42303333D01*
X78644761Y-42112857D01*
X78692380Y-42017619D01*
X78740000Y-41970000D01*
X78835238Y-41922380D01*
X80263809Y-41922380D02*
X80882857Y-41922380D01*
X80549523Y-42303333D01*
X80692380Y-42303333D01*
X80787619Y-42350952D01*
X80835238Y-42398571D01*
X80882857Y-42493809D01*
X80882857Y-42731904D01*
X80835238Y-42827142D01*
X80787619Y-42874761D01*
X80692380Y-42922380D01*
X80406666Y-42922380D01*
X80311428Y-42874761D01*
X80263809Y-42827142D01*
X81216190Y-41922380D02*
X81882857Y-42922380D01*
X81882857Y-41922380D02*
X81216190Y-42922380D01*
X82692380Y-42255714D02*
X82692380Y-42922380D01*
X82454285Y-41874761D02*
X82216190Y-42589047D01*
X82835238Y-42589047D01*
X128651428Y-105772380D02*
X128984761Y-106772380D01*
X129318095Y-105772380D01*
X129603809Y-106724761D02*
X129746666Y-106772380D01*
X129984761Y-106772380D01*
X130080000Y-106724761D01*
X130127619Y-106677142D01*
X130175238Y-106581904D01*
X130175238Y-106486666D01*
X130127619Y-106391428D01*
X130080000Y-106343809D01*
X129984761Y-106296190D01*
X129794285Y-106248571D01*
X129699047Y-106200952D01*
X129651428Y-106153333D01*
X129603809Y-106058095D01*
X129603809Y-105962857D01*
X129651428Y-105867619D01*
X129699047Y-105820000D01*
X129794285Y-105772380D01*
X130032380Y-105772380D01*
X130175238Y-105820000D01*
X130794285Y-105772380D02*
X130984761Y-105772380D01*
X131080000Y-105820000D01*
X131175238Y-105915238D01*
X131222857Y-106105714D01*
X131222857Y-106439047D01*
X131175238Y-106629523D01*
X131080000Y-106724761D01*
X130984761Y-106772380D01*
X130794285Y-106772380D01*
X130699047Y-106724761D01*
X130603809Y-106629523D01*
X130556190Y-106439047D01*
X130556190Y-106105714D01*
X130603809Y-105915238D01*
X130699047Y-105820000D01*
X130794285Y-105772380D01*
X131651428Y-106772380D02*
X131651428Y-105772380D01*
X132222857Y-106772380D01*
X132222857Y-105772380D01*
X132699047Y-106391428D02*
X133460952Y-106391428D01*
X134460952Y-106772380D02*
X133889523Y-106772380D01*
X134175238Y-106772380D02*
X134175238Y-105772380D01*
X134080000Y-105915238D01*
X133984761Y-106010476D01*
X133889523Y-106058095D01*
X135080000Y-105772380D02*
X135175238Y-105772380D01*
X135270476Y-105820000D01*
X135318095Y-105867619D01*
X135365714Y-105962857D01*
X135413333Y-106153333D01*
X135413333Y-106391428D01*
X135365714Y-106581904D01*
X135318095Y-106677142D01*
X135270476Y-106724761D01*
X135175238Y-106772380D01*
X135080000Y-106772380D01*
X134984761Y-106724761D01*
X134937142Y-106677142D01*
X134889523Y-106581904D01*
X134841904Y-106391428D01*
X134841904Y-106153333D01*
X134889523Y-105962857D01*
X134937142Y-105867619D01*
X134984761Y-105820000D01*
X135080000Y-105772380D01*
X103251428Y-105772380D02*
X103584761Y-106772380D01*
X103918095Y-105772380D01*
X104203809Y-106724761D02*
X104346666Y-106772380D01*
X104584761Y-106772380D01*
X104680000Y-106724761D01*
X104727619Y-106677142D01*
X104775238Y-106581904D01*
X104775238Y-106486666D01*
X104727619Y-106391428D01*
X104680000Y-106343809D01*
X104584761Y-106296190D01*
X104394285Y-106248571D01*
X104299047Y-106200952D01*
X104251428Y-106153333D01*
X104203809Y-106058095D01*
X104203809Y-105962857D01*
X104251428Y-105867619D01*
X104299047Y-105820000D01*
X104394285Y-105772380D01*
X104632380Y-105772380D01*
X104775238Y-105820000D01*
X105394285Y-105772380D02*
X105584761Y-105772380D01*
X105680000Y-105820000D01*
X105775238Y-105915238D01*
X105822857Y-106105714D01*
X105822857Y-106439047D01*
X105775238Y-106629523D01*
X105680000Y-106724761D01*
X105584761Y-106772380D01*
X105394285Y-106772380D01*
X105299047Y-106724761D01*
X105203809Y-106629523D01*
X105156190Y-106439047D01*
X105156190Y-106105714D01*
X105203809Y-105915238D01*
X105299047Y-105820000D01*
X105394285Y-105772380D01*
X106251428Y-106772380D02*
X106251428Y-105772380D01*
X106822857Y-106772380D01*
X106822857Y-105772380D01*
X107299047Y-106391428D02*
X108060952Y-106391428D01*
X109060952Y-106772380D02*
X108489523Y-106772380D01*
X108775238Y-106772380D02*
X108775238Y-105772380D01*
X108680000Y-105915238D01*
X108584761Y-106010476D01*
X108489523Y-106058095D01*
X109680000Y-105772380D02*
X109775238Y-105772380D01*
X109870476Y-105820000D01*
X109918095Y-105867619D01*
X109965714Y-105962857D01*
X110013333Y-106153333D01*
X110013333Y-106391428D01*
X109965714Y-106581904D01*
X109918095Y-106677142D01*
X109870476Y-106724761D01*
X109775238Y-106772380D01*
X109680000Y-106772380D01*
X109584761Y-106724761D01*
X109537142Y-106677142D01*
X109489523Y-106581904D01*
X109441904Y-106391428D01*
X109441904Y-106153333D01*
X109489523Y-105962857D01*
X109537142Y-105867619D01*
X109584761Y-105820000D01*
X109680000Y-105772380D01*
X77851428Y-105772380D02*
X78184761Y-106772380D01*
X78518095Y-105772380D01*
X78803809Y-106724761D02*
X78946666Y-106772380D01*
X79184761Y-106772380D01*
X79280000Y-106724761D01*
X79327619Y-106677142D01*
X79375238Y-106581904D01*
X79375238Y-106486666D01*
X79327619Y-106391428D01*
X79280000Y-106343809D01*
X79184761Y-106296190D01*
X78994285Y-106248571D01*
X78899047Y-106200952D01*
X78851428Y-106153333D01*
X78803809Y-106058095D01*
X78803809Y-105962857D01*
X78851428Y-105867619D01*
X78899047Y-105820000D01*
X78994285Y-105772380D01*
X79232380Y-105772380D01*
X79375238Y-105820000D01*
X79994285Y-105772380D02*
X80184761Y-105772380D01*
X80280000Y-105820000D01*
X80375238Y-105915238D01*
X80422857Y-106105714D01*
X80422857Y-106439047D01*
X80375238Y-106629523D01*
X80280000Y-106724761D01*
X80184761Y-106772380D01*
X79994285Y-106772380D01*
X79899047Y-106724761D01*
X79803809Y-106629523D01*
X79756190Y-106439047D01*
X79756190Y-106105714D01*
X79803809Y-105915238D01*
X79899047Y-105820000D01*
X79994285Y-105772380D01*
X80851428Y-106772380D02*
X80851428Y-105772380D01*
X81422857Y-106772380D01*
X81422857Y-105772380D01*
X81899047Y-106391428D02*
X82660952Y-106391428D01*
X83660952Y-106772380D02*
X83089523Y-106772380D01*
X83375238Y-106772380D02*
X83375238Y-105772380D01*
X83280000Y-105915238D01*
X83184761Y-106010476D01*
X83089523Y-106058095D01*
X84280000Y-105772380D02*
X84375238Y-105772380D01*
X84470476Y-105820000D01*
X84518095Y-105867619D01*
X84565714Y-105962857D01*
X84613333Y-106153333D01*
X84613333Y-106391428D01*
X84565714Y-106581904D01*
X84518095Y-106677142D01*
X84470476Y-106724761D01*
X84375238Y-106772380D01*
X84280000Y-106772380D01*
X84184761Y-106724761D01*
X84137142Y-106677142D01*
X84089523Y-106581904D01*
X84041904Y-106391428D01*
X84041904Y-106153333D01*
X84089523Y-105962857D01*
X84137142Y-105867619D01*
X84184761Y-105820000D01*
X84280000Y-105772380D01*
X74961904Y-82352380D02*
X74961904Y-83161904D01*
X75009523Y-83257142D01*
X75057142Y-83304761D01*
X75152380Y-83352380D01*
X75342857Y-83352380D01*
X75438095Y-83304761D01*
X75485714Y-83257142D01*
X75533333Y-83161904D01*
X75533333Y-82352380D01*
X76533333Y-83352380D02*
X75961904Y-83352380D01*
X76247619Y-83352380D02*
X76247619Y-82352380D01*
X76152380Y-82495238D01*
X76057142Y-82590476D01*
X75961904Y-82638095D01*
X77152380Y-82352380D02*
X77247619Y-82352380D01*
X77342857Y-82400000D01*
X77390476Y-82447619D01*
X77438095Y-82542857D01*
X77485714Y-82733333D01*
X77485714Y-82971428D01*
X77438095Y-83161904D01*
X77390476Y-83257142D01*
X77342857Y-83304761D01*
X77247619Y-83352380D01*
X77152380Y-83352380D01*
X77057142Y-83304761D01*
X77009523Y-83257142D01*
X76961904Y-83161904D01*
X76914285Y-82971428D01*
X76914285Y-82733333D01*
X76961904Y-82542857D01*
X77009523Y-82447619D01*
X77057142Y-82400000D01*
X77152380Y-82352380D01*
X116078095Y-82352380D02*
X116078095Y-83161904D01*
X116125714Y-83257142D01*
X116173333Y-83304761D01*
X116268571Y-83352380D01*
X116459047Y-83352380D01*
X116554285Y-83304761D01*
X116601904Y-83257142D01*
X116649523Y-83161904D01*
X116649523Y-82352380D01*
X117173333Y-83352380D02*
X117363809Y-83352380D01*
X117459047Y-83304761D01*
X117506666Y-83257142D01*
X117601904Y-83114285D01*
X117649523Y-82923809D01*
X117649523Y-82542857D01*
X117601904Y-82447619D01*
X117554285Y-82400000D01*
X117459047Y-82352380D01*
X117268571Y-82352380D01*
X117173333Y-82400000D01*
X117125714Y-82447619D01*
X117078095Y-82542857D01*
X117078095Y-82780952D01*
X117125714Y-82876190D01*
X117173333Y-82923809D01*
X117268571Y-82971428D01*
X117459047Y-82971428D01*
X117554285Y-82923809D01*
X117601904Y-82876190D01*
X117649523Y-82780952D01*
X95758095Y-82352380D02*
X95758095Y-83161904D01*
X95805714Y-83257142D01*
X95853333Y-83304761D01*
X95948571Y-83352380D01*
X96139047Y-83352380D01*
X96234285Y-83304761D01*
X96281904Y-83257142D01*
X96329523Y-83161904D01*
X96329523Y-82352380D01*
X96948571Y-82780952D02*
X96853333Y-82733333D01*
X96805714Y-82685714D01*
X96758095Y-82590476D01*
X96758095Y-82542857D01*
X96805714Y-82447619D01*
X96853333Y-82400000D01*
X96948571Y-82352380D01*
X97139047Y-82352380D01*
X97234285Y-82400000D01*
X97281904Y-82447619D01*
X97329523Y-82542857D01*
X97329523Y-82590476D01*
X97281904Y-82685714D01*
X97234285Y-82733333D01*
X97139047Y-82780952D01*
X96948571Y-82780952D01*
X96853333Y-82828571D01*
X96805714Y-82876190D01*
X96758095Y-82971428D01*
X96758095Y-83161904D01*
X96805714Y-83257142D01*
X96853333Y-83304761D01*
X96948571Y-83352380D01*
X97139047Y-83352380D01*
X97234285Y-83304761D01*
X97281904Y-83257142D01*
X97329523Y-83161904D01*
X97329523Y-82971428D01*
X97281904Y-82876190D01*
X97234285Y-82828571D01*
X97139047Y-82780952D01*
X103378095Y-55752380D02*
X103378095Y-56561904D01*
X103425714Y-56657142D01*
X103473333Y-56704761D01*
X103568571Y-56752380D01*
X103759047Y-56752380D01*
X103854285Y-56704761D01*
X103901904Y-56657142D01*
X103949523Y-56561904D01*
X103949523Y-55752380D01*
X104330476Y-55752380D02*
X104997142Y-55752380D01*
X104568571Y-56752380D01*
X151526190Y-56242619D02*
X151430952Y-56195000D01*
X151335714Y-56099761D01*
X151192857Y-55956904D01*
X151097619Y-55909285D01*
X151002380Y-55909285D01*
X151050000Y-56147380D02*
X150954761Y-56099761D01*
X150859523Y-56004523D01*
X150811904Y-55814047D01*
X150811904Y-55480714D01*
X150859523Y-55290238D01*
X150954761Y-55195000D01*
X151050000Y-55147380D01*
X151240476Y-55147380D01*
X151335714Y-55195000D01*
X151430952Y-55290238D01*
X151478571Y-55480714D01*
X151478571Y-55814047D01*
X151430952Y-56004523D01*
X151335714Y-56099761D01*
X151240476Y-56147380D01*
X151050000Y-56147380D01*
X152240476Y-55623571D02*
X151907142Y-55623571D01*
X151907142Y-56147380D02*
X151907142Y-55147380D01*
X152383333Y-55147380D01*
X152764285Y-56147380D02*
X152764285Y-55147380D01*
X153335714Y-56147380D01*
X153335714Y-55147380D01*
X153764285Y-55242619D02*
X153811904Y-55195000D01*
X153907142Y-55147380D01*
X154145238Y-55147380D01*
X154240476Y-55195000D01*
X154288095Y-55242619D01*
X154335714Y-55337857D01*
X154335714Y-55433095D01*
X154288095Y-55575952D01*
X153716666Y-56147380D01*
X154335714Y-56147380D01*
X155192857Y-55480714D02*
X155192857Y-56147380D01*
X154954761Y-55099761D02*
X154716666Y-55814047D01*
X155335714Y-55814047D01*
X150286190Y-69042619D02*
X150190952Y-68995000D01*
X150095714Y-68899761D01*
X149952857Y-68756904D01*
X149857619Y-68709285D01*
X149762380Y-68709285D01*
X149810000Y-68947380D02*
X149714761Y-68899761D01*
X149619523Y-68804523D01*
X149571904Y-68614047D01*
X149571904Y-68280714D01*
X149619523Y-68090238D01*
X149714761Y-67995000D01*
X149810000Y-67947380D01*
X150000476Y-67947380D01*
X150095714Y-67995000D01*
X150190952Y-68090238D01*
X150238571Y-68280714D01*
X150238571Y-68614047D01*
X150190952Y-68804523D01*
X150095714Y-68899761D01*
X150000476Y-68947380D01*
X149810000Y-68947380D01*
X151000476Y-68423571D02*
X150667142Y-68423571D01*
X150667142Y-68947380D02*
X150667142Y-67947380D01*
X151143333Y-67947380D01*
X151524285Y-68947380D02*
X151524285Y-67947380D01*
X152095714Y-68947380D01*
X152095714Y-67947380D01*
X152524285Y-68042619D02*
X152571904Y-67995000D01*
X152667142Y-67947380D01*
X152905238Y-67947380D01*
X153000476Y-67995000D01*
X153048095Y-68042619D01*
X153095714Y-68137857D01*
X153095714Y-68233095D01*
X153048095Y-68375952D01*
X152476666Y-68947380D01*
X153095714Y-68947380D01*
X153952857Y-68280714D02*
X153952857Y-68947380D01*
X153714761Y-67899761D02*
X153476666Y-68614047D01*
X154095714Y-68614047D01*
X136286190Y-68942619D02*
X136190952Y-68895000D01*
X136095714Y-68799761D01*
X135952857Y-68656904D01*
X135857619Y-68609285D01*
X135762380Y-68609285D01*
X135810000Y-68847380D02*
X135714761Y-68799761D01*
X135619523Y-68704523D01*
X135571904Y-68514047D01*
X135571904Y-68180714D01*
X135619523Y-67990238D01*
X135714761Y-67895000D01*
X135810000Y-67847380D01*
X136000476Y-67847380D01*
X136095714Y-67895000D01*
X136190952Y-67990238D01*
X136238571Y-68180714D01*
X136238571Y-68514047D01*
X136190952Y-68704523D01*
X136095714Y-68799761D01*
X136000476Y-68847380D01*
X135810000Y-68847380D01*
X137000476Y-68323571D02*
X136667142Y-68323571D01*
X136667142Y-68847380D02*
X136667142Y-67847380D01*
X137143333Y-67847380D01*
X137524285Y-68847380D02*
X137524285Y-67847380D01*
X138095714Y-68847380D01*
X138095714Y-67847380D01*
X138524285Y-67942619D02*
X138571904Y-67895000D01*
X138667142Y-67847380D01*
X138905238Y-67847380D01*
X139000476Y-67895000D01*
X139048095Y-67942619D01*
X139095714Y-68037857D01*
X139095714Y-68133095D01*
X139048095Y-68275952D01*
X138476666Y-68847380D01*
X139095714Y-68847380D01*
X139952857Y-68180714D02*
X139952857Y-68847380D01*
X139714761Y-67799761D02*
X139476666Y-68514047D01*
X140095714Y-68514047D01*
X136286190Y-56242619D02*
X136190952Y-56195000D01*
X136095714Y-56099761D01*
X135952857Y-55956904D01*
X135857619Y-55909285D01*
X135762380Y-55909285D01*
X135810000Y-56147380D02*
X135714761Y-56099761D01*
X135619523Y-56004523D01*
X135571904Y-55814047D01*
X135571904Y-55480714D01*
X135619523Y-55290238D01*
X135714761Y-55195000D01*
X135810000Y-55147380D01*
X136000476Y-55147380D01*
X136095714Y-55195000D01*
X136190952Y-55290238D01*
X136238571Y-55480714D01*
X136238571Y-55814047D01*
X136190952Y-56004523D01*
X136095714Y-56099761D01*
X136000476Y-56147380D01*
X135810000Y-56147380D01*
X137000476Y-55623571D02*
X136667142Y-55623571D01*
X136667142Y-56147380D02*
X136667142Y-55147380D01*
X137143333Y-55147380D01*
X137524285Y-56147380D02*
X137524285Y-55147380D01*
X138095714Y-56147380D01*
X138095714Y-55147380D01*
X138524285Y-55242619D02*
X138571904Y-55195000D01*
X138667142Y-55147380D01*
X138905238Y-55147380D01*
X139000476Y-55195000D01*
X139048095Y-55242619D01*
X139095714Y-55337857D01*
X139095714Y-55433095D01*
X139048095Y-55575952D01*
X138476666Y-56147380D01*
X139095714Y-56147380D01*
X139952857Y-55480714D02*
X139952857Y-56147380D01*
X139714761Y-55099761D02*
X139476666Y-55814047D01*
X140095714Y-55814047D01*
X121046190Y-56242619D02*
X120950952Y-56195000D01*
X120855714Y-56099761D01*
X120712857Y-55956904D01*
X120617619Y-55909285D01*
X120522380Y-55909285D01*
X120570000Y-56147380D02*
X120474761Y-56099761D01*
X120379523Y-56004523D01*
X120331904Y-55814047D01*
X120331904Y-55480714D01*
X120379523Y-55290238D01*
X120474761Y-55195000D01*
X120570000Y-55147380D01*
X120760476Y-55147380D01*
X120855714Y-55195000D01*
X120950952Y-55290238D01*
X120998571Y-55480714D01*
X120998571Y-55814047D01*
X120950952Y-56004523D01*
X120855714Y-56099761D01*
X120760476Y-56147380D01*
X120570000Y-56147380D01*
X121760476Y-55623571D02*
X121427142Y-55623571D01*
X121427142Y-56147380D02*
X121427142Y-55147380D01*
X121903333Y-55147380D01*
X122284285Y-56147380D02*
X122284285Y-55147380D01*
X122855714Y-56147380D01*
X122855714Y-55147380D01*
X123284285Y-55242619D02*
X123331904Y-55195000D01*
X123427142Y-55147380D01*
X123665238Y-55147380D01*
X123760476Y-55195000D01*
X123808095Y-55242619D01*
X123855714Y-55337857D01*
X123855714Y-55433095D01*
X123808095Y-55575952D01*
X123236666Y-56147380D01*
X123855714Y-56147380D01*
X124712857Y-55480714D02*
X124712857Y-56147380D01*
X124474761Y-55099761D02*
X124236666Y-55814047D01*
X124855714Y-55814047D01*
X83058095Y-55752380D02*
X83058095Y-56561904D01*
X83105714Y-56657142D01*
X83153333Y-56704761D01*
X83248571Y-56752380D01*
X83439047Y-56752380D01*
X83534285Y-56704761D01*
X83581904Y-56657142D01*
X83629523Y-56561904D01*
X83629523Y-55752380D01*
X84629523Y-56752380D02*
X84058095Y-56752380D01*
X84343809Y-56752380D02*
X84343809Y-55752380D01*
X84248571Y-55895238D01*
X84153333Y-55990476D01*
X84058095Y-56038095D01*
M02*
