G04 #@! TF.GenerationSoftware,KiCad,Pcbnew,(5.1.5)-3*
G04 #@! TF.CreationDate,2020-04-26T20:22:25+03:00*
G04 #@! TF.ProjectId,PCB soldering test board,50434220-736f-46c6-9465-72696e672074,rev?*
G04 #@! TF.SameCoordinates,Original*
G04 #@! TF.FileFunction,Paste,Bot*
G04 #@! TF.FilePolarity,Positive*
%FSLAX46Y46*%
G04 Gerber Fmt 4.6, Leading zero omitted, Abs format (unit mm)*
G04 Created by KiCad (PCBNEW (5.1.5)-3) date 2020-04-26 20:22:25*
%MOMM*%
%LPD*%
G04 APERTURE LIST*
%ADD10R,0.780000X0.780000*%
%ADD11R,0.250000X1.000000*%
%ADD12R,1.000000X0.250000*%
%ADD13R,0.250000X1.300000*%
%ADD14R,1.300000X0.250000*%
G04 APERTURE END LIST*
D10*
X86762900Y-60905080D03*
X85462900Y-60905080D03*
X84162900Y-60905080D03*
X82862900Y-60905080D03*
X81562900Y-60905080D03*
X86762900Y-62205080D03*
X85462900Y-62205080D03*
X84162900Y-62205080D03*
X82862900Y-62205080D03*
X81562900Y-62205080D03*
X86762900Y-63505080D03*
X85462900Y-63505080D03*
X84162900Y-63505080D03*
X82862900Y-63505080D03*
X81562900Y-63505080D03*
X86762900Y-64805080D03*
X85462900Y-64805080D03*
X84162900Y-64805080D03*
X82862900Y-64805080D03*
X81562900Y-64805080D03*
X86762900Y-66105080D03*
X85462900Y-66105080D03*
X84162900Y-66105080D03*
X82862900Y-66105080D03*
X81562900Y-66105080D03*
D11*
X80412900Y-69205080D03*
X80912900Y-69205080D03*
X81412900Y-69205080D03*
X81912900Y-69205080D03*
X82412900Y-69205080D03*
X82912900Y-69205080D03*
X83412900Y-69205080D03*
X83912900Y-69205080D03*
X84412900Y-69205080D03*
X84912900Y-69205080D03*
X85412900Y-69205080D03*
X85912900Y-69205080D03*
X86412900Y-69205080D03*
X86912900Y-69205080D03*
X87412900Y-69205080D03*
X87912900Y-69205080D03*
D12*
X89862900Y-67255080D03*
X89862900Y-66755080D03*
X89862900Y-66255080D03*
X89862900Y-65755080D03*
X89862900Y-65255080D03*
X89862900Y-64755080D03*
X89862900Y-64255080D03*
X89862900Y-63755080D03*
X89862900Y-63255080D03*
X89862900Y-62755080D03*
X89862900Y-62255080D03*
X89862900Y-61755080D03*
X89862900Y-61255080D03*
X89862900Y-60755080D03*
X89862900Y-60255080D03*
X89862900Y-59755080D03*
D11*
X87912900Y-57805080D03*
X87412900Y-57805080D03*
X86912900Y-57805080D03*
X86412900Y-57805080D03*
X85912900Y-57805080D03*
X85412900Y-57805080D03*
X84912900Y-57805080D03*
X84412900Y-57805080D03*
X83912900Y-57805080D03*
X83412900Y-57805080D03*
X82912900Y-57805080D03*
X82412900Y-57805080D03*
X81912900Y-57805080D03*
X81412900Y-57805080D03*
X80912900Y-57805080D03*
X80412900Y-57805080D03*
D12*
X78462900Y-59755080D03*
X78462900Y-60255080D03*
X78462900Y-60755080D03*
X78462900Y-61255080D03*
X78462900Y-61755080D03*
X78462900Y-62255080D03*
X78462900Y-62755080D03*
X78462900Y-63255080D03*
X78462900Y-63755080D03*
X78462900Y-64255080D03*
X78462900Y-64755080D03*
X78462900Y-65255080D03*
X78462900Y-65755080D03*
X78462900Y-66255080D03*
X78462900Y-66755080D03*
X78462900Y-67255080D03*
D11*
X100732900Y-69205080D03*
X101232900Y-69205080D03*
X101732900Y-69205080D03*
X102232900Y-69205080D03*
X102732900Y-69205080D03*
X103232900Y-69205080D03*
X103732900Y-69205080D03*
X104232900Y-69205080D03*
X104732900Y-69205080D03*
X105232900Y-69205080D03*
X105732900Y-69205080D03*
X106232900Y-69205080D03*
X106732900Y-69205080D03*
X107232900Y-69205080D03*
X107732900Y-69205080D03*
X108232900Y-69205080D03*
D12*
X110182900Y-67255080D03*
X110182900Y-66755080D03*
X110182900Y-66255080D03*
X110182900Y-65755080D03*
X110182900Y-65255080D03*
X110182900Y-64755080D03*
X110182900Y-64255080D03*
X110182900Y-63755080D03*
X110182900Y-63255080D03*
X110182900Y-62755080D03*
X110182900Y-62255080D03*
X110182900Y-61755080D03*
X110182900Y-61255080D03*
X110182900Y-60755080D03*
X110182900Y-60255080D03*
X110182900Y-59755080D03*
D11*
X108232900Y-57805080D03*
X107732900Y-57805080D03*
X107232900Y-57805080D03*
X106732900Y-57805080D03*
X106232900Y-57805080D03*
X105732900Y-57805080D03*
X105232900Y-57805080D03*
X104732900Y-57805080D03*
X104232900Y-57805080D03*
X103732900Y-57805080D03*
X103232900Y-57805080D03*
X102732900Y-57805080D03*
X102232900Y-57805080D03*
X101732900Y-57805080D03*
X101232900Y-57805080D03*
X100732900Y-57805080D03*
D12*
X98782900Y-59755080D03*
X98782900Y-60255080D03*
X98782900Y-60755080D03*
X98782900Y-61255080D03*
X98782900Y-61755080D03*
X98782900Y-62255080D03*
X98782900Y-62755080D03*
X98782900Y-63255080D03*
X98782900Y-63755080D03*
X98782900Y-64255080D03*
X98782900Y-64755080D03*
X98782900Y-65255080D03*
X98782900Y-65755080D03*
X98782900Y-66255080D03*
X98782900Y-66755080D03*
X98782900Y-67255080D03*
D13*
X73381420Y-93176340D03*
X73881420Y-93176340D03*
X74381420Y-93176340D03*
X74881420Y-93176340D03*
X75381420Y-93176340D03*
X75881420Y-93176340D03*
X76381420Y-93176340D03*
X76881420Y-93176340D03*
X77381420Y-93176340D03*
X77881420Y-93176340D03*
X78381420Y-93176340D03*
X78881420Y-93176340D03*
D14*
X80481420Y-91576340D03*
X80481420Y-91076340D03*
X80481420Y-90576340D03*
X80481420Y-90076340D03*
X80481420Y-89576340D03*
X80481420Y-89076340D03*
X80481420Y-88576340D03*
X80481420Y-88076340D03*
X80481420Y-87576340D03*
X80481420Y-87076340D03*
X80481420Y-86576340D03*
X80481420Y-86076340D03*
D13*
X78881420Y-84476340D03*
X78381420Y-84476340D03*
X77881420Y-84476340D03*
X77381420Y-84476340D03*
X76881420Y-84476340D03*
X76381420Y-84476340D03*
X75881420Y-84476340D03*
X75381420Y-84476340D03*
X74881420Y-84476340D03*
X74381420Y-84476340D03*
X73881420Y-84476340D03*
X73381420Y-84476340D03*
D14*
X71781420Y-86076340D03*
X71781420Y-86576340D03*
X71781420Y-87076340D03*
X71781420Y-87576340D03*
X71781420Y-88076340D03*
X71781420Y-88576340D03*
X71781420Y-89076340D03*
X71781420Y-89576340D03*
X71781420Y-90076340D03*
X71781420Y-90576340D03*
X71781420Y-91076340D03*
X71781420Y-91576340D03*
D13*
X114074760Y-93176340D03*
X114574760Y-93176340D03*
X115074760Y-93176340D03*
X115574760Y-93176340D03*
X116074760Y-93176340D03*
X116574760Y-93176340D03*
X117074760Y-93176340D03*
X117574760Y-93176340D03*
X118074760Y-93176340D03*
X118574760Y-93176340D03*
X119074760Y-93176340D03*
X119574760Y-93176340D03*
D14*
X121174760Y-91576340D03*
X121174760Y-91076340D03*
X121174760Y-90576340D03*
X121174760Y-90076340D03*
X121174760Y-89576340D03*
X121174760Y-89076340D03*
X121174760Y-88576340D03*
X121174760Y-88076340D03*
X121174760Y-87576340D03*
X121174760Y-87076340D03*
X121174760Y-86576340D03*
X121174760Y-86076340D03*
D13*
X119574760Y-84476340D03*
X119074760Y-84476340D03*
X118574760Y-84476340D03*
X118074760Y-84476340D03*
X117574760Y-84476340D03*
X117074760Y-84476340D03*
X116574760Y-84476340D03*
X116074760Y-84476340D03*
X115574760Y-84476340D03*
X115074760Y-84476340D03*
X114574760Y-84476340D03*
X114074760Y-84476340D03*
D14*
X112474760Y-86076340D03*
X112474760Y-86576340D03*
X112474760Y-87076340D03*
X112474760Y-87576340D03*
X112474760Y-88076340D03*
X112474760Y-88576340D03*
X112474760Y-89076340D03*
X112474760Y-89576340D03*
X112474760Y-90076340D03*
X112474760Y-90576340D03*
X112474760Y-91076340D03*
X112474760Y-91576340D03*
D13*
X93729360Y-93176340D03*
X94229360Y-93176340D03*
X94729360Y-93176340D03*
X95229360Y-93176340D03*
X95729360Y-93176340D03*
X96229360Y-93176340D03*
X96729360Y-93176340D03*
X97229360Y-93176340D03*
X97729360Y-93176340D03*
X98229360Y-93176340D03*
X98729360Y-93176340D03*
X99229360Y-93176340D03*
D14*
X100829360Y-91576340D03*
X100829360Y-91076340D03*
X100829360Y-90576340D03*
X100829360Y-90076340D03*
X100829360Y-89576340D03*
X100829360Y-89076340D03*
X100829360Y-88576340D03*
X100829360Y-88076340D03*
X100829360Y-87576340D03*
X100829360Y-87076340D03*
X100829360Y-86576340D03*
X100829360Y-86076340D03*
D13*
X99229360Y-84476340D03*
X98729360Y-84476340D03*
X98229360Y-84476340D03*
X97729360Y-84476340D03*
X97229360Y-84476340D03*
X96729360Y-84476340D03*
X96229360Y-84476340D03*
X95729360Y-84476340D03*
X95229360Y-84476340D03*
X94729360Y-84476340D03*
X94229360Y-84476340D03*
X93729360Y-84476340D03*
D14*
X92129360Y-86076340D03*
X92129360Y-86576340D03*
X92129360Y-87076340D03*
X92129360Y-87576340D03*
X92129360Y-88076340D03*
X92129360Y-88576340D03*
X92129360Y-89076340D03*
X92129360Y-89576340D03*
X92129360Y-90076340D03*
X92129360Y-90576340D03*
X92129360Y-91076340D03*
X92129360Y-91576340D03*
M02*
