G04 #@! TF.GenerationSoftware,KiCad,Pcbnew,(5.1.5)-3*
G04 #@! TF.CreationDate,2020-04-26T20:22:25+03:00*
G04 #@! TF.ProjectId,PCB soldering test board,50434220-736f-46c6-9465-72696e672074,rev?*
G04 #@! TF.SameCoordinates,Original*
G04 #@! TF.FileFunction,Soldermask,Top*
G04 #@! TF.FilePolarity,Negative*
%FSLAX46Y46*%
G04 Gerber Fmt 4.6, Leading zero omitted, Abs format (unit mm)*
G04 Created by KiCad (PCBNEW (5.1.5)-3) date 2020-04-26 20:22:25*
%MOMM*%
%LPD*%
G04 APERTURE LIST*
%ADD10C,0.100000*%
G04 APERTURE END LIST*
D10*
G36*
X118522140Y-120504021D02*
G01*
X118524542Y-120528407D01*
X118531655Y-120551856D01*
X118543206Y-120573467D01*
X118558751Y-120592409D01*
X118577693Y-120607954D01*
X118599304Y-120619505D01*
X118622753Y-120626618D01*
X118647139Y-120629020D01*
X119497140Y-120629020D01*
X119497140Y-123531020D01*
X118647139Y-123531020D01*
X118622753Y-123533422D01*
X118599304Y-123540535D01*
X118577693Y-123552086D01*
X118558751Y-123567631D01*
X118543206Y-123586573D01*
X118531655Y-123608184D01*
X118524542Y-123631633D01*
X118522140Y-123656019D01*
X118522140Y-124506020D01*
X115620140Y-124506020D01*
X115620140Y-123656019D01*
X115617738Y-123631633D01*
X115610625Y-123608184D01*
X115599074Y-123586573D01*
X115583529Y-123567631D01*
X115564587Y-123552086D01*
X115542976Y-123540535D01*
X115519527Y-123533422D01*
X115495141Y-123531020D01*
X114645140Y-123531020D01*
X114645140Y-120629020D01*
X115495141Y-120629020D01*
X115519527Y-120626618D01*
X115542976Y-120619505D01*
X115564587Y-120607954D01*
X115583529Y-120592409D01*
X115599074Y-120573467D01*
X115610625Y-120551856D01*
X115617738Y-120528407D01*
X115620140Y-120504021D01*
X115620140Y-119654020D01*
X118522140Y-119654020D01*
X118522140Y-120504021D01*
G37*
G36*
X96347940Y-120504021D02*
G01*
X96350342Y-120528407D01*
X96357455Y-120551856D01*
X96369006Y-120573467D01*
X96384551Y-120592409D01*
X96403493Y-120607954D01*
X96425104Y-120619505D01*
X96448553Y-120626618D01*
X96472939Y-120629020D01*
X97322940Y-120629020D01*
X97322940Y-123531020D01*
X96472939Y-123531020D01*
X96448553Y-123533422D01*
X96425104Y-123540535D01*
X96403493Y-123552086D01*
X96384551Y-123567631D01*
X96369006Y-123586573D01*
X96357455Y-123608184D01*
X96350342Y-123631633D01*
X96347940Y-123656019D01*
X96347940Y-124506020D01*
X93445940Y-124506020D01*
X93445940Y-123656019D01*
X93443538Y-123631633D01*
X93436425Y-123608184D01*
X93424874Y-123586573D01*
X93409329Y-123567631D01*
X93390387Y-123552086D01*
X93368776Y-123540535D01*
X93345327Y-123533422D01*
X93320941Y-123531020D01*
X92470940Y-123531020D01*
X92470940Y-120629020D01*
X93320941Y-120629020D01*
X93345327Y-120626618D01*
X93368776Y-120619505D01*
X93390387Y-120607954D01*
X93409329Y-120592409D01*
X93424874Y-120573467D01*
X93436425Y-120551856D01*
X93443538Y-120528407D01*
X93445940Y-120504021D01*
X93445940Y-119654020D01*
X96347940Y-119654020D01*
X96347940Y-120504021D01*
G37*
G36*
X135788760Y-120258601D02*
G01*
X135791162Y-120282987D01*
X135798275Y-120306436D01*
X135809826Y-120328047D01*
X135825371Y-120346989D01*
X135844313Y-120362534D01*
X135865924Y-120374085D01*
X135889373Y-120381198D01*
X135913759Y-120383600D01*
X135988760Y-120383600D01*
X135988760Y-120458601D01*
X135991162Y-120482987D01*
X135998275Y-120506436D01*
X136009826Y-120528047D01*
X136025371Y-120546989D01*
X136044313Y-120562534D01*
X136065924Y-120574085D01*
X136089373Y-120581198D01*
X136113759Y-120583600D01*
X136913760Y-120583600D01*
X136913760Y-121935600D01*
X136113759Y-121935600D01*
X136089373Y-121938002D01*
X136065924Y-121945115D01*
X136044313Y-121956666D01*
X136025371Y-121972211D01*
X136009826Y-121991153D01*
X135998275Y-122012764D01*
X135991162Y-122036213D01*
X135988760Y-122060599D01*
X135988760Y-122135600D01*
X135913759Y-122135600D01*
X135889373Y-122138002D01*
X135865924Y-122145115D01*
X135844313Y-122156666D01*
X135825371Y-122172211D01*
X135809826Y-122191153D01*
X135798275Y-122212764D01*
X135791162Y-122236213D01*
X135788760Y-122260599D01*
X135788760Y-123060600D01*
X134436760Y-123060600D01*
X134436760Y-122260599D01*
X134434358Y-122236213D01*
X134427245Y-122212764D01*
X134415694Y-122191153D01*
X134400149Y-122172211D01*
X134381207Y-122156666D01*
X134359596Y-122145115D01*
X134336147Y-122138002D01*
X134311761Y-122135600D01*
X134236760Y-122135600D01*
X134236760Y-122060599D01*
X134234358Y-122036213D01*
X134227245Y-122012764D01*
X134215694Y-121991153D01*
X134200149Y-121972211D01*
X134181207Y-121956666D01*
X134159596Y-121945115D01*
X134136147Y-121938002D01*
X134111761Y-121935600D01*
X133311760Y-121935600D01*
X133311760Y-120583600D01*
X134111761Y-120583600D01*
X134136147Y-120581198D01*
X134159596Y-120574085D01*
X134181207Y-120562534D01*
X134200149Y-120546989D01*
X134215694Y-120528047D01*
X134227245Y-120506436D01*
X134234358Y-120482987D01*
X134236760Y-120458601D01*
X134236760Y-120383600D01*
X134311761Y-120383600D01*
X134336147Y-120381198D01*
X134359596Y-120374085D01*
X134381207Y-120362534D01*
X134400149Y-120346989D01*
X134415694Y-120328047D01*
X134427245Y-120306436D01*
X134434358Y-120282987D01*
X134436760Y-120258601D01*
X134436760Y-119458600D01*
X135788760Y-119458600D01*
X135788760Y-120258601D01*
G37*
G36*
X151379280Y-119636301D02*
G01*
X151381682Y-119660687D01*
X151388795Y-119684136D01*
X151400346Y-119705747D01*
X151415891Y-119724689D01*
X151434833Y-119740234D01*
X151456444Y-119751785D01*
X151479893Y-119758898D01*
X151504279Y-119761300D01*
X151579280Y-119761300D01*
X151579280Y-119836301D01*
X151581682Y-119860687D01*
X151588795Y-119884136D01*
X151600346Y-119905747D01*
X151615891Y-119924689D01*
X151634833Y-119940234D01*
X151656444Y-119951785D01*
X151679893Y-119958898D01*
X151704279Y-119961300D01*
X152504280Y-119961300D01*
X152504280Y-121313300D01*
X151704279Y-121313300D01*
X151679893Y-121315702D01*
X151656444Y-121322815D01*
X151634833Y-121334366D01*
X151615891Y-121349911D01*
X151600346Y-121368853D01*
X151588795Y-121390464D01*
X151581682Y-121413913D01*
X151579280Y-121438299D01*
X151579280Y-121513300D01*
X151504279Y-121513300D01*
X151479893Y-121515702D01*
X151456444Y-121522815D01*
X151434833Y-121534366D01*
X151415891Y-121549911D01*
X151400346Y-121568853D01*
X151388795Y-121590464D01*
X151381682Y-121613913D01*
X151379280Y-121638299D01*
X151379280Y-122438300D01*
X150027280Y-122438300D01*
X150027280Y-121638299D01*
X150024878Y-121613913D01*
X150017765Y-121590464D01*
X150006214Y-121568853D01*
X149990669Y-121549911D01*
X149971727Y-121534366D01*
X149950116Y-121522815D01*
X149926667Y-121515702D01*
X149902281Y-121513300D01*
X149827280Y-121513300D01*
X149827280Y-121438299D01*
X149824878Y-121413913D01*
X149817765Y-121390464D01*
X149806214Y-121368853D01*
X149790669Y-121349911D01*
X149771727Y-121334366D01*
X149750116Y-121322815D01*
X149726667Y-121315702D01*
X149702281Y-121313300D01*
X148902280Y-121313300D01*
X148902280Y-119961300D01*
X149702281Y-119961300D01*
X149726667Y-119958898D01*
X149750116Y-119951785D01*
X149771727Y-119940234D01*
X149790669Y-119924689D01*
X149806214Y-119905747D01*
X149817765Y-119884136D01*
X149824878Y-119860687D01*
X149827280Y-119836301D01*
X149827280Y-119761300D01*
X149902281Y-119761300D01*
X149926667Y-119758898D01*
X149950116Y-119751785D01*
X149971727Y-119740234D01*
X149990669Y-119724689D01*
X150006214Y-119705747D01*
X150017765Y-119684136D01*
X150024878Y-119660687D01*
X150027280Y-119636301D01*
X150027280Y-118836300D01*
X151379280Y-118836300D01*
X151379280Y-119636301D01*
G37*
G36*
X64913820Y-117722061D02*
G01*
X64916222Y-117746447D01*
X64923335Y-117769896D01*
X64934886Y-117791507D01*
X64950431Y-117810449D01*
X64969373Y-117825994D01*
X64990984Y-117837545D01*
X65014433Y-117844658D01*
X65038819Y-117847060D01*
X65367509Y-117847060D01*
X65369886Y-117851507D01*
X65385431Y-117870449D01*
X65404373Y-117885994D01*
X65425984Y-117897545D01*
X65449433Y-117904658D01*
X65473819Y-117907060D01*
X66423820Y-117907060D01*
X66423820Y-120289060D01*
X65473819Y-120289060D01*
X65449433Y-120291462D01*
X65425984Y-120298575D01*
X65404373Y-120310126D01*
X65385431Y-120325671D01*
X65369886Y-120344613D01*
X65367509Y-120349060D01*
X65038819Y-120349060D01*
X65014433Y-120351462D01*
X64990984Y-120358575D01*
X64969373Y-120370126D01*
X64950431Y-120385671D01*
X64934886Y-120404613D01*
X64923335Y-120426224D01*
X64916222Y-120449673D01*
X64913820Y-120474059D01*
X64913820Y-121049060D01*
X64031820Y-121049060D01*
X64031820Y-120474059D01*
X64029418Y-120449673D01*
X64022305Y-120426224D01*
X64010754Y-120404613D01*
X63995209Y-120385671D01*
X63976267Y-120370126D01*
X63954656Y-120358575D01*
X63931207Y-120351462D01*
X63906821Y-120349060D01*
X63578131Y-120349060D01*
X63575754Y-120344613D01*
X63560209Y-120325671D01*
X63541267Y-120310126D01*
X63519656Y-120298575D01*
X63496207Y-120291462D01*
X63471821Y-120289060D01*
X62521820Y-120289060D01*
X62521820Y-117907060D01*
X63471821Y-117907060D01*
X63496207Y-117904658D01*
X63519656Y-117897545D01*
X63541267Y-117885994D01*
X63560209Y-117870449D01*
X63575754Y-117851507D01*
X63578131Y-117847060D01*
X63906821Y-117847060D01*
X63931207Y-117844658D01*
X63954656Y-117837545D01*
X63976267Y-117825994D01*
X63995209Y-117810449D01*
X64010754Y-117791507D01*
X64022305Y-117769896D01*
X64029418Y-117746447D01*
X64031820Y-117722061D01*
X64031820Y-117147060D01*
X64913820Y-117147060D01*
X64913820Y-117722061D01*
G37*
G36*
X80021740Y-117625541D02*
G01*
X80024142Y-117649927D01*
X80031255Y-117673376D01*
X80042806Y-117694987D01*
X80058351Y-117713929D01*
X80077293Y-117729474D01*
X80098904Y-117741025D01*
X80122353Y-117748138D01*
X80146739Y-117750540D01*
X80475429Y-117750540D01*
X80477806Y-117754987D01*
X80493351Y-117773929D01*
X80512293Y-117789474D01*
X80533904Y-117801025D01*
X80557353Y-117808138D01*
X80581739Y-117810540D01*
X81531740Y-117810540D01*
X81531740Y-120192540D01*
X80581739Y-120192540D01*
X80557353Y-120194942D01*
X80533904Y-120202055D01*
X80512293Y-120213606D01*
X80493351Y-120229151D01*
X80477806Y-120248093D01*
X80475429Y-120252540D01*
X80146739Y-120252540D01*
X80122353Y-120254942D01*
X80098904Y-120262055D01*
X80077293Y-120273606D01*
X80058351Y-120289151D01*
X80042806Y-120308093D01*
X80031255Y-120329704D01*
X80024142Y-120353153D01*
X80021740Y-120377539D01*
X80021740Y-120952540D01*
X79139740Y-120952540D01*
X79139740Y-120377539D01*
X79137338Y-120353153D01*
X79130225Y-120329704D01*
X79118674Y-120308093D01*
X79103129Y-120289151D01*
X79084187Y-120273606D01*
X79062576Y-120262055D01*
X79039127Y-120254942D01*
X79014741Y-120252540D01*
X78686051Y-120252540D01*
X78683674Y-120248093D01*
X78668129Y-120229151D01*
X78649187Y-120213606D01*
X78627576Y-120202055D01*
X78604127Y-120194942D01*
X78579741Y-120192540D01*
X77629740Y-120192540D01*
X77629740Y-117810540D01*
X78579741Y-117810540D01*
X78604127Y-117808138D01*
X78627576Y-117801025D01*
X78649187Y-117789474D01*
X78668129Y-117773929D01*
X78683674Y-117754987D01*
X78686051Y-117750540D01*
X79014741Y-117750540D01*
X79039127Y-117748138D01*
X79062576Y-117741025D01*
X79084187Y-117729474D01*
X79103129Y-117713929D01*
X79118674Y-117694987D01*
X79130225Y-117673376D01*
X79137338Y-117649927D01*
X79139740Y-117625541D01*
X79139740Y-117050540D01*
X80021740Y-117050540D01*
X80021740Y-117625541D01*
G37*
G36*
X93713880Y-111864500D02*
G01*
X92611880Y-111864500D01*
X92611880Y-110512500D01*
X93713880Y-110512500D01*
X93713880Y-111864500D01*
G37*
G36*
X95713880Y-111864500D02*
G01*
X94611880Y-111864500D01*
X94611880Y-110512500D01*
X95713880Y-110512500D01*
X95713880Y-111864500D01*
G37*
G36*
X152841000Y-107844001D02*
G01*
X152843402Y-107868387D01*
X152850515Y-107891836D01*
X152862066Y-107913447D01*
X152877611Y-107932389D01*
X152896553Y-107947934D01*
X152918164Y-107959485D01*
X152941613Y-107966598D01*
X152965999Y-107969000D01*
X153294689Y-107969000D01*
X153297066Y-107973447D01*
X153312611Y-107992389D01*
X153331553Y-108007934D01*
X153353164Y-108019485D01*
X153376613Y-108026598D01*
X153400999Y-108029000D01*
X154351000Y-108029000D01*
X154351000Y-110411000D01*
X153400999Y-110411000D01*
X153376613Y-110413402D01*
X153353164Y-110420515D01*
X153331553Y-110432066D01*
X153312611Y-110447611D01*
X153297066Y-110466553D01*
X153294689Y-110471000D01*
X152965999Y-110471000D01*
X152941613Y-110473402D01*
X152918164Y-110480515D01*
X152896553Y-110492066D01*
X152877611Y-110507611D01*
X152862066Y-110526553D01*
X152850515Y-110548164D01*
X152843402Y-110571613D01*
X152841000Y-110595999D01*
X152841000Y-111171000D01*
X151959000Y-111171000D01*
X151959000Y-110595999D01*
X151956598Y-110571613D01*
X151949485Y-110548164D01*
X151937934Y-110526553D01*
X151922389Y-110507611D01*
X151903447Y-110492066D01*
X151881836Y-110480515D01*
X151858387Y-110473402D01*
X151834001Y-110471000D01*
X151505311Y-110471000D01*
X151502934Y-110466553D01*
X151487389Y-110447611D01*
X151468447Y-110432066D01*
X151446836Y-110420515D01*
X151423387Y-110413402D01*
X151399001Y-110411000D01*
X150449000Y-110411000D01*
X150449000Y-108029000D01*
X151399001Y-108029000D01*
X151423387Y-108026598D01*
X151446836Y-108019485D01*
X151468447Y-108007934D01*
X151487389Y-107992389D01*
X151502934Y-107973447D01*
X151505311Y-107969000D01*
X151834001Y-107969000D01*
X151858387Y-107966598D01*
X151881836Y-107959485D01*
X151903447Y-107947934D01*
X151922389Y-107932389D01*
X151937934Y-107913447D01*
X151949485Y-107891836D01*
X151956598Y-107868387D01*
X151959000Y-107844001D01*
X151959000Y-107269000D01*
X152841000Y-107269000D01*
X152841000Y-107844001D01*
G37*
G36*
X81721000Y-107844001D02*
G01*
X81723402Y-107868387D01*
X81730515Y-107891836D01*
X81742066Y-107913447D01*
X81757611Y-107932389D01*
X81776553Y-107947934D01*
X81798164Y-107959485D01*
X81821613Y-107966598D01*
X81845999Y-107969000D01*
X82174689Y-107969000D01*
X82177066Y-107973447D01*
X82192611Y-107992389D01*
X82211553Y-108007934D01*
X82233164Y-108019485D01*
X82256613Y-108026598D01*
X82280999Y-108029000D01*
X83231000Y-108029000D01*
X83231000Y-110411000D01*
X82280999Y-110411000D01*
X82256613Y-110413402D01*
X82233164Y-110420515D01*
X82211553Y-110432066D01*
X82192611Y-110447611D01*
X82177066Y-110466553D01*
X82174689Y-110471000D01*
X81845999Y-110471000D01*
X81821613Y-110473402D01*
X81798164Y-110480515D01*
X81776553Y-110492066D01*
X81757611Y-110507611D01*
X81742066Y-110526553D01*
X81730515Y-110548164D01*
X81723402Y-110571613D01*
X81721000Y-110595999D01*
X81721000Y-111171000D01*
X80839000Y-111171000D01*
X80839000Y-110595999D01*
X80836598Y-110571613D01*
X80829485Y-110548164D01*
X80817934Y-110526553D01*
X80802389Y-110507611D01*
X80783447Y-110492066D01*
X80761836Y-110480515D01*
X80738387Y-110473402D01*
X80714001Y-110471000D01*
X80385311Y-110471000D01*
X80382934Y-110466553D01*
X80367389Y-110447611D01*
X80348447Y-110432066D01*
X80326836Y-110420515D01*
X80303387Y-110413402D01*
X80279001Y-110411000D01*
X79329000Y-110411000D01*
X79329000Y-108029000D01*
X80279001Y-108029000D01*
X80303387Y-108026598D01*
X80326836Y-108019485D01*
X80348447Y-108007934D01*
X80367389Y-107992389D01*
X80382934Y-107973447D01*
X80385311Y-107969000D01*
X80714001Y-107969000D01*
X80738387Y-107966598D01*
X80761836Y-107959485D01*
X80783447Y-107947934D01*
X80802389Y-107932389D01*
X80817934Y-107913447D01*
X80829485Y-107891836D01*
X80836598Y-107868387D01*
X80839000Y-107844001D01*
X80839000Y-107269000D01*
X81721000Y-107269000D01*
X81721000Y-107844001D01*
G37*
G36*
X107121000Y-107844001D02*
G01*
X107123402Y-107868387D01*
X107130515Y-107891836D01*
X107142066Y-107913447D01*
X107157611Y-107932389D01*
X107176553Y-107947934D01*
X107198164Y-107959485D01*
X107221613Y-107966598D01*
X107245999Y-107969000D01*
X107574689Y-107969000D01*
X107577066Y-107973447D01*
X107592611Y-107992389D01*
X107611553Y-108007934D01*
X107633164Y-108019485D01*
X107656613Y-108026598D01*
X107680999Y-108029000D01*
X108631000Y-108029000D01*
X108631000Y-110411000D01*
X107680999Y-110411000D01*
X107656613Y-110413402D01*
X107633164Y-110420515D01*
X107611553Y-110432066D01*
X107592611Y-110447611D01*
X107577066Y-110466553D01*
X107574689Y-110471000D01*
X107245999Y-110471000D01*
X107221613Y-110473402D01*
X107198164Y-110480515D01*
X107176553Y-110492066D01*
X107157611Y-110507611D01*
X107142066Y-110526553D01*
X107130515Y-110548164D01*
X107123402Y-110571613D01*
X107121000Y-110595999D01*
X107121000Y-111171000D01*
X106239000Y-111171000D01*
X106239000Y-110595999D01*
X106236598Y-110571613D01*
X106229485Y-110548164D01*
X106217934Y-110526553D01*
X106202389Y-110507611D01*
X106183447Y-110492066D01*
X106161836Y-110480515D01*
X106138387Y-110473402D01*
X106114001Y-110471000D01*
X105785311Y-110471000D01*
X105782934Y-110466553D01*
X105767389Y-110447611D01*
X105748447Y-110432066D01*
X105726836Y-110420515D01*
X105703387Y-110413402D01*
X105679001Y-110411000D01*
X104729000Y-110411000D01*
X104729000Y-108029000D01*
X105679001Y-108029000D01*
X105703387Y-108026598D01*
X105726836Y-108019485D01*
X105748447Y-108007934D01*
X105767389Y-107992389D01*
X105782934Y-107973447D01*
X105785311Y-107969000D01*
X106114001Y-107969000D01*
X106138387Y-107966598D01*
X106161836Y-107959485D01*
X106183447Y-107947934D01*
X106202389Y-107932389D01*
X106217934Y-107913447D01*
X106229485Y-107891836D01*
X106236598Y-107868387D01*
X106239000Y-107844001D01*
X106239000Y-107269000D01*
X107121000Y-107269000D01*
X107121000Y-107844001D01*
G37*
G36*
X132521000Y-107844001D02*
G01*
X132523402Y-107868387D01*
X132530515Y-107891836D01*
X132542066Y-107913447D01*
X132557611Y-107932389D01*
X132576553Y-107947934D01*
X132598164Y-107959485D01*
X132621613Y-107966598D01*
X132645999Y-107969000D01*
X132974689Y-107969000D01*
X132977066Y-107973447D01*
X132992611Y-107992389D01*
X133011553Y-108007934D01*
X133033164Y-108019485D01*
X133056613Y-108026598D01*
X133080999Y-108029000D01*
X134031000Y-108029000D01*
X134031000Y-110411000D01*
X133080999Y-110411000D01*
X133056613Y-110413402D01*
X133033164Y-110420515D01*
X133011553Y-110432066D01*
X132992611Y-110447611D01*
X132977066Y-110466553D01*
X132974689Y-110471000D01*
X132645999Y-110471000D01*
X132621613Y-110473402D01*
X132598164Y-110480515D01*
X132576553Y-110492066D01*
X132557611Y-110507611D01*
X132542066Y-110526553D01*
X132530515Y-110548164D01*
X132523402Y-110571613D01*
X132521000Y-110595999D01*
X132521000Y-111171000D01*
X131639000Y-111171000D01*
X131639000Y-110595999D01*
X131636598Y-110571613D01*
X131629485Y-110548164D01*
X131617934Y-110526553D01*
X131602389Y-110507611D01*
X131583447Y-110492066D01*
X131561836Y-110480515D01*
X131538387Y-110473402D01*
X131514001Y-110471000D01*
X131185311Y-110471000D01*
X131182934Y-110466553D01*
X131167389Y-110447611D01*
X131148447Y-110432066D01*
X131126836Y-110420515D01*
X131103387Y-110413402D01*
X131079001Y-110411000D01*
X130129000Y-110411000D01*
X130129000Y-108029000D01*
X131079001Y-108029000D01*
X131103387Y-108026598D01*
X131126836Y-108019485D01*
X131148447Y-108007934D01*
X131167389Y-107992389D01*
X131182934Y-107973447D01*
X131185311Y-107969000D01*
X131514001Y-107969000D01*
X131538387Y-107966598D01*
X131561836Y-107959485D01*
X131583447Y-107947934D01*
X131602389Y-107932389D01*
X131617934Y-107913447D01*
X131629485Y-107891836D01*
X131636598Y-107868387D01*
X131639000Y-107844001D01*
X131639000Y-107269000D01*
X132521000Y-107269000D01*
X132521000Y-107844001D01*
G37*
G36*
X64176000Y-105679001D02*
G01*
X64178402Y-105703387D01*
X64185515Y-105726836D01*
X64197066Y-105748447D01*
X64212611Y-105767389D01*
X64231553Y-105782934D01*
X64253164Y-105794485D01*
X64276613Y-105801598D01*
X64300999Y-105804000D01*
X64376000Y-105804000D01*
X64376000Y-105879001D01*
X64378402Y-105903387D01*
X64385515Y-105926836D01*
X64397066Y-105948447D01*
X64412611Y-105967389D01*
X64431553Y-105982934D01*
X64453164Y-105994485D01*
X64476613Y-106001598D01*
X64500999Y-106004000D01*
X65301000Y-106004000D01*
X65301000Y-107356000D01*
X64500999Y-107356000D01*
X64476613Y-107358402D01*
X64453164Y-107365515D01*
X64431553Y-107377066D01*
X64412611Y-107392611D01*
X64397066Y-107411553D01*
X64385515Y-107433164D01*
X64378402Y-107456613D01*
X64376000Y-107480999D01*
X64376000Y-107556000D01*
X64300999Y-107556000D01*
X64276613Y-107558402D01*
X64253164Y-107565515D01*
X64231553Y-107577066D01*
X64212611Y-107592611D01*
X64197066Y-107611553D01*
X64185515Y-107633164D01*
X64178402Y-107656613D01*
X64176000Y-107680999D01*
X64176000Y-108481000D01*
X62824000Y-108481000D01*
X62824000Y-107680999D01*
X62821598Y-107656613D01*
X62814485Y-107633164D01*
X62802934Y-107611553D01*
X62787389Y-107592611D01*
X62768447Y-107577066D01*
X62746836Y-107565515D01*
X62723387Y-107558402D01*
X62699001Y-107556000D01*
X62624000Y-107556000D01*
X62624000Y-107480999D01*
X62621598Y-107456613D01*
X62614485Y-107433164D01*
X62602934Y-107411553D01*
X62587389Y-107392611D01*
X62568447Y-107377066D01*
X62546836Y-107365515D01*
X62523387Y-107358402D01*
X62499001Y-107356000D01*
X61699000Y-107356000D01*
X61699000Y-106004000D01*
X62499001Y-106004000D01*
X62523387Y-106001598D01*
X62546836Y-105994485D01*
X62568447Y-105982934D01*
X62587389Y-105967389D01*
X62602934Y-105948447D01*
X62614485Y-105926836D01*
X62621598Y-105903387D01*
X62624000Y-105879001D01*
X62624000Y-105804000D01*
X62699001Y-105804000D01*
X62723387Y-105801598D01*
X62746836Y-105794485D01*
X62768447Y-105782934D01*
X62787389Y-105767389D01*
X62802934Y-105748447D01*
X62814485Y-105726836D01*
X62821598Y-105703387D01*
X62824000Y-105679001D01*
X62824000Y-104879000D01*
X64176000Y-104879000D01*
X64176000Y-105679001D01*
G37*
G36*
X93574180Y-107737000D02*
G01*
X92472180Y-107737000D01*
X92472180Y-106385000D01*
X93574180Y-106385000D01*
X93574180Y-107737000D01*
G37*
G36*
X95574180Y-107737000D02*
G01*
X94472180Y-107737000D01*
X94472180Y-106385000D01*
X95574180Y-106385000D01*
X95574180Y-107737000D01*
G37*
G36*
X93792760Y-103359500D02*
G01*
X92890760Y-103359500D01*
X92890760Y-102507500D01*
X93792760Y-102507500D01*
X93792760Y-103359500D01*
G37*
G36*
X95292760Y-103359500D02*
G01*
X94390760Y-103359500D01*
X94390760Y-102507500D01*
X95292760Y-102507500D01*
X95292760Y-103359500D01*
G37*
G36*
X88924980Y-103288380D02*
G01*
X88022980Y-103288380D01*
X88022980Y-102436380D01*
X88924980Y-102436380D01*
X88924980Y-103288380D01*
G37*
G36*
X87424980Y-103288380D02*
G01*
X86522980Y-103288380D01*
X86522980Y-102436380D01*
X87424980Y-102436380D01*
X87424980Y-103288380D01*
G37*
G36*
X146381000Y-99486000D02*
G01*
X145079000Y-99486000D01*
X145079000Y-98634000D01*
X146381000Y-98634000D01*
X146381000Y-99486000D01*
G37*
G36*
X144481000Y-99486000D02*
G01*
X143179000Y-99486000D01*
X143179000Y-98634000D01*
X144481000Y-98634000D01*
X144481000Y-99486000D01*
G37*
G36*
X133681000Y-99486000D02*
G01*
X132379000Y-99486000D01*
X132379000Y-98634000D01*
X133681000Y-98634000D01*
X133681000Y-99486000D01*
G37*
G36*
X131781000Y-99486000D02*
G01*
X130479000Y-99486000D01*
X130479000Y-98634000D01*
X131781000Y-98634000D01*
X131781000Y-99486000D01*
G37*
G36*
X64176000Y-92979001D02*
G01*
X64178402Y-93003387D01*
X64185515Y-93026836D01*
X64197066Y-93048447D01*
X64212611Y-93067389D01*
X64231553Y-93082934D01*
X64253164Y-93094485D01*
X64276613Y-93101598D01*
X64300999Y-93104000D01*
X64376000Y-93104000D01*
X64376000Y-93179001D01*
X64378402Y-93203387D01*
X64385515Y-93226836D01*
X64397066Y-93248447D01*
X64412611Y-93267389D01*
X64431553Y-93282934D01*
X64453164Y-93294485D01*
X64476613Y-93301598D01*
X64500999Y-93304000D01*
X65301000Y-93304000D01*
X65301000Y-94656000D01*
X64500999Y-94656000D01*
X64476613Y-94658402D01*
X64453164Y-94665515D01*
X64431553Y-94677066D01*
X64412611Y-94692611D01*
X64397066Y-94711553D01*
X64385515Y-94733164D01*
X64378402Y-94756613D01*
X64376000Y-94780999D01*
X64376000Y-94856000D01*
X64300999Y-94856000D01*
X64276613Y-94858402D01*
X64253164Y-94865515D01*
X64231553Y-94877066D01*
X64212611Y-94892611D01*
X64197066Y-94911553D01*
X64185515Y-94933164D01*
X64178402Y-94956613D01*
X64176000Y-94980999D01*
X64176000Y-95781000D01*
X62824000Y-95781000D01*
X62824000Y-94980999D01*
X62821598Y-94956613D01*
X62814485Y-94933164D01*
X62802934Y-94911553D01*
X62787389Y-94892611D01*
X62768447Y-94877066D01*
X62746836Y-94865515D01*
X62723387Y-94858402D01*
X62699001Y-94856000D01*
X62624000Y-94856000D01*
X62624000Y-94780999D01*
X62621598Y-94756613D01*
X62614485Y-94733164D01*
X62602934Y-94711553D01*
X62587389Y-94692611D01*
X62568447Y-94677066D01*
X62546836Y-94665515D01*
X62523387Y-94658402D01*
X62499001Y-94656000D01*
X61699000Y-94656000D01*
X61699000Y-93304000D01*
X62499001Y-93304000D01*
X62523387Y-93301598D01*
X62546836Y-93294485D01*
X62568447Y-93282934D01*
X62587389Y-93267389D01*
X62602934Y-93248447D01*
X62614485Y-93226836D01*
X62621598Y-93203387D01*
X62624000Y-93179001D01*
X62624000Y-93104000D01*
X62699001Y-93104000D01*
X62723387Y-93101598D01*
X62746836Y-93094485D01*
X62768447Y-93082934D01*
X62787389Y-93067389D01*
X62802934Y-93048447D01*
X62814485Y-93026836D01*
X62821598Y-93003387D01*
X62824000Y-92979001D01*
X62824000Y-92179000D01*
X64176000Y-92179000D01*
X64176000Y-92979001D01*
G37*
G36*
X99446000Y-93951000D02*
G01*
X93594000Y-93951000D01*
X93594000Y-92549000D01*
X99446000Y-92549000D01*
X99446000Y-93951000D01*
G37*
G36*
X119766000Y-93951000D02*
G01*
X113914000Y-93951000D01*
X113914000Y-92549000D01*
X119766000Y-92549000D01*
X119766000Y-93951000D01*
G37*
G36*
X79126000Y-93951000D02*
G01*
X73274000Y-93951000D01*
X73274000Y-92549000D01*
X79126000Y-92549000D01*
X79126000Y-93951000D01*
G37*
G36*
X146931000Y-92141000D02*
G01*
X145329000Y-92141000D01*
X145329000Y-90739000D01*
X146931000Y-90739000D01*
X146931000Y-92141000D01*
G37*
G36*
X131531000Y-92141000D02*
G01*
X129929000Y-92141000D01*
X129929000Y-90739000D01*
X131531000Y-90739000D01*
X131531000Y-92141000D01*
G37*
G36*
X134231000Y-92141000D02*
G01*
X132629000Y-92141000D01*
X132629000Y-90739000D01*
X134231000Y-90739000D01*
X134231000Y-92141000D01*
G37*
G36*
X144231000Y-92141000D02*
G01*
X142629000Y-92141000D01*
X142629000Y-90739000D01*
X144231000Y-90739000D01*
X144231000Y-92141000D01*
G37*
G36*
X72551000Y-91826000D02*
G01*
X71149000Y-91826000D01*
X71149000Y-85974000D01*
X72551000Y-85974000D01*
X72551000Y-91826000D01*
G37*
G36*
X113191000Y-91826000D02*
G01*
X111789000Y-91826000D01*
X111789000Y-85974000D01*
X113191000Y-85974000D01*
X113191000Y-91826000D01*
G37*
G36*
X121891000Y-91826000D02*
G01*
X120489000Y-91826000D01*
X120489000Y-85974000D01*
X121891000Y-85974000D01*
X121891000Y-91826000D01*
G37*
G36*
X101571000Y-91826000D02*
G01*
X100169000Y-91826000D01*
X100169000Y-85974000D01*
X101571000Y-85974000D01*
X101571000Y-91826000D01*
G37*
G36*
X81251000Y-91826000D02*
G01*
X79849000Y-91826000D01*
X79849000Y-85974000D01*
X81251000Y-85974000D01*
X81251000Y-91826000D01*
G37*
G36*
X92871000Y-91826000D02*
G01*
X91469000Y-91826000D01*
X91469000Y-85974000D01*
X92871000Y-85974000D01*
X92871000Y-91826000D01*
G37*
G36*
X99446000Y-85251000D02*
G01*
X93594000Y-85251000D01*
X93594000Y-83849000D01*
X99446000Y-83849000D01*
X99446000Y-85251000D01*
G37*
G36*
X79126000Y-85251000D02*
G01*
X73274000Y-85251000D01*
X73274000Y-83849000D01*
X79126000Y-83849000D01*
X79126000Y-85251000D01*
G37*
G36*
X119766000Y-85251000D02*
G01*
X113914000Y-85251000D01*
X113914000Y-83849000D01*
X119766000Y-83849000D01*
X119766000Y-85251000D01*
G37*
G36*
X145741000Y-84521000D02*
G01*
X144139000Y-84521000D01*
X144139000Y-83119000D01*
X145741000Y-83119000D01*
X145741000Y-84521000D01*
G37*
G36*
X143041000Y-84521000D02*
G01*
X141439000Y-84521000D01*
X141439000Y-83119000D01*
X143041000Y-83119000D01*
X143041000Y-84521000D01*
G37*
G36*
X133681000Y-84246000D02*
G01*
X132379000Y-84246000D01*
X132379000Y-83394000D01*
X133681000Y-83394000D01*
X133681000Y-84246000D01*
G37*
G36*
X131781000Y-84246000D02*
G01*
X130479000Y-84246000D01*
X130479000Y-83394000D01*
X131781000Y-83394000D01*
X131781000Y-84246000D01*
G37*
G36*
X64176000Y-80279001D02*
G01*
X64178402Y-80303387D01*
X64185515Y-80326836D01*
X64197066Y-80348447D01*
X64212611Y-80367389D01*
X64231553Y-80382934D01*
X64253164Y-80394485D01*
X64276613Y-80401598D01*
X64300999Y-80404000D01*
X64376000Y-80404000D01*
X64376000Y-80479001D01*
X64378402Y-80503387D01*
X64385515Y-80526836D01*
X64397066Y-80548447D01*
X64412611Y-80567389D01*
X64431553Y-80582934D01*
X64453164Y-80594485D01*
X64476613Y-80601598D01*
X64500999Y-80604000D01*
X65301000Y-80604000D01*
X65301000Y-81956000D01*
X64500999Y-81956000D01*
X64476613Y-81958402D01*
X64453164Y-81965515D01*
X64431553Y-81977066D01*
X64412611Y-81992611D01*
X64397066Y-82011553D01*
X64385515Y-82033164D01*
X64378402Y-82056613D01*
X64376000Y-82080999D01*
X64376000Y-82156000D01*
X64300999Y-82156000D01*
X64276613Y-82158402D01*
X64253164Y-82165515D01*
X64231553Y-82177066D01*
X64212611Y-82192611D01*
X64197066Y-82211553D01*
X64185515Y-82233164D01*
X64178402Y-82256613D01*
X64176000Y-82280999D01*
X64176000Y-83081000D01*
X62824000Y-83081000D01*
X62824000Y-82280999D01*
X62821598Y-82256613D01*
X62814485Y-82233164D01*
X62802934Y-82211553D01*
X62787389Y-82192611D01*
X62768447Y-82177066D01*
X62746836Y-82165515D01*
X62723387Y-82158402D01*
X62699001Y-82156000D01*
X62624000Y-82156000D01*
X62624000Y-82080999D01*
X62621598Y-82056613D01*
X62614485Y-82033164D01*
X62602934Y-82011553D01*
X62587389Y-81992611D01*
X62568447Y-81977066D01*
X62546836Y-81965515D01*
X62523387Y-81958402D01*
X62499001Y-81956000D01*
X61699000Y-81956000D01*
X61699000Y-80604000D01*
X62499001Y-80604000D01*
X62523387Y-80601598D01*
X62546836Y-80594485D01*
X62568447Y-80582934D01*
X62587389Y-80567389D01*
X62602934Y-80548447D01*
X62614485Y-80526836D01*
X62621598Y-80503387D01*
X62624000Y-80479001D01*
X62624000Y-80404000D01*
X62699001Y-80404000D01*
X62723387Y-80401598D01*
X62746836Y-80394485D01*
X62768447Y-80382934D01*
X62787389Y-80367389D01*
X62802934Y-80348447D01*
X62814485Y-80326836D01*
X62821598Y-80303387D01*
X62824000Y-80279001D01*
X62824000Y-79479000D01*
X64176000Y-79479000D01*
X64176000Y-80279001D01*
G37*
G36*
X101051000Y-76901000D02*
G01*
X99449000Y-76901000D01*
X99449000Y-75499000D01*
X101051000Y-75499000D01*
X101051000Y-76901000D01*
G37*
G36*
X73111000Y-76901000D02*
G01*
X71509000Y-76901000D01*
X71509000Y-75499000D01*
X73111000Y-75499000D01*
X73111000Y-76901000D01*
G37*
G36*
X75811000Y-76901000D02*
G01*
X74209000Y-76901000D01*
X74209000Y-75499000D01*
X75811000Y-75499000D01*
X75811000Y-76901000D01*
G37*
G36*
X85811000Y-76901000D02*
G01*
X84209000Y-76901000D01*
X84209000Y-75499000D01*
X85811000Y-75499000D01*
X85811000Y-76901000D01*
G37*
G36*
X88511000Y-76901000D02*
G01*
X86909000Y-76901000D01*
X86909000Y-75499000D01*
X88511000Y-75499000D01*
X88511000Y-76901000D01*
G37*
G36*
X103751000Y-76901000D02*
G01*
X102149000Y-76901000D01*
X102149000Y-75499000D01*
X103751000Y-75499000D01*
X103751000Y-76901000D01*
G37*
G36*
X115901000Y-76626000D02*
G01*
X114599000Y-76626000D01*
X114599000Y-75774000D01*
X115901000Y-75774000D01*
X115901000Y-76626000D01*
G37*
G36*
X126061000Y-76626000D02*
G01*
X124759000Y-76626000D01*
X124759000Y-75774000D01*
X126061000Y-75774000D01*
X126061000Y-76626000D01*
G37*
G36*
X114001000Y-76626000D02*
G01*
X112699000Y-76626000D01*
X112699000Y-75774000D01*
X114001000Y-75774000D01*
X114001000Y-76626000D01*
G37*
G36*
X124161000Y-76626000D02*
G01*
X122859000Y-76626000D01*
X122859000Y-75774000D01*
X124161000Y-75774000D01*
X124161000Y-76626000D01*
G37*
G36*
X153261000Y-70294001D02*
G01*
X153263402Y-70318387D01*
X153270515Y-70341836D01*
X153282066Y-70363447D01*
X153297611Y-70382389D01*
X153316553Y-70397934D01*
X153338164Y-70409485D01*
X153361613Y-70416598D01*
X153385999Y-70419000D01*
X154236000Y-70419000D01*
X154236000Y-73321000D01*
X153385999Y-73321000D01*
X153361613Y-73323402D01*
X153338164Y-73330515D01*
X153316553Y-73342066D01*
X153297611Y-73357611D01*
X153282066Y-73376553D01*
X153270515Y-73398164D01*
X153263402Y-73421613D01*
X153261000Y-73445999D01*
X153261000Y-74296000D01*
X150359000Y-74296000D01*
X150359000Y-73445999D01*
X150356598Y-73421613D01*
X150349485Y-73398164D01*
X150337934Y-73376553D01*
X150322389Y-73357611D01*
X150303447Y-73342066D01*
X150281836Y-73330515D01*
X150258387Y-73323402D01*
X150234001Y-73321000D01*
X149384000Y-73321000D01*
X149384000Y-70419000D01*
X150234001Y-70419000D01*
X150258387Y-70416598D01*
X150281836Y-70409485D01*
X150303447Y-70397934D01*
X150322389Y-70382389D01*
X150337934Y-70363447D01*
X150349485Y-70341836D01*
X150356598Y-70318387D01*
X150359000Y-70294001D01*
X150359000Y-69444000D01*
X153261000Y-69444000D01*
X153261000Y-70294001D01*
G37*
G36*
X139261000Y-70194001D02*
G01*
X139263402Y-70218387D01*
X139270515Y-70241836D01*
X139282066Y-70263447D01*
X139297611Y-70282389D01*
X139316553Y-70297934D01*
X139338164Y-70309485D01*
X139361613Y-70316598D01*
X139385999Y-70319000D01*
X140236000Y-70319000D01*
X140236000Y-73221000D01*
X139385999Y-73221000D01*
X139361613Y-73223402D01*
X139338164Y-73230515D01*
X139316553Y-73242066D01*
X139297611Y-73257611D01*
X139282066Y-73276553D01*
X139270515Y-73298164D01*
X139263402Y-73321613D01*
X139261000Y-73345999D01*
X139261000Y-74196000D01*
X136359000Y-74196000D01*
X136359000Y-73345999D01*
X136356598Y-73321613D01*
X136349485Y-73298164D01*
X136337934Y-73276553D01*
X136322389Y-73257611D01*
X136303447Y-73242066D01*
X136281836Y-73230515D01*
X136258387Y-73223402D01*
X136234001Y-73221000D01*
X135384000Y-73221000D01*
X135384000Y-70319000D01*
X136234001Y-70319000D01*
X136258387Y-70316598D01*
X136281836Y-70309485D01*
X136303447Y-70297934D01*
X136322389Y-70282389D01*
X136337934Y-70263447D01*
X136349485Y-70241836D01*
X136356598Y-70218387D01*
X136359000Y-70194001D01*
X136359000Y-69344000D01*
X139261000Y-69344000D01*
X139261000Y-70194001D01*
G37*
G36*
X126061000Y-71546000D02*
G01*
X124759000Y-71546000D01*
X124759000Y-70694000D01*
X126061000Y-70694000D01*
X126061000Y-71546000D01*
G37*
G36*
X124161000Y-71546000D02*
G01*
X122859000Y-71546000D01*
X122859000Y-70694000D01*
X124161000Y-70694000D01*
X124161000Y-71546000D01*
G37*
G36*
X87746000Y-69751000D02*
G01*
X79894000Y-69751000D01*
X79894000Y-68649000D01*
X87746000Y-68649000D01*
X87746000Y-69751000D01*
G37*
G36*
X108066000Y-69751000D02*
G01*
X100214000Y-69751000D01*
X100214000Y-68649000D01*
X108066000Y-68649000D01*
X108066000Y-69751000D01*
G37*
G36*
X66716000Y-65039001D02*
G01*
X66718402Y-65063387D01*
X66725515Y-65086836D01*
X66737066Y-65108447D01*
X66752611Y-65127389D01*
X66771553Y-65142934D01*
X66793164Y-65154485D01*
X66816613Y-65161598D01*
X66840999Y-65164000D01*
X66916000Y-65164000D01*
X66916000Y-65239001D01*
X66918402Y-65263387D01*
X66925515Y-65286836D01*
X66937066Y-65308447D01*
X66952611Y-65327389D01*
X66971553Y-65342934D01*
X66993164Y-65354485D01*
X67016613Y-65361598D01*
X67040999Y-65364000D01*
X67841000Y-65364000D01*
X67841000Y-66716000D01*
X67040999Y-66716000D01*
X67016613Y-66718402D01*
X66993164Y-66725515D01*
X66971553Y-66737066D01*
X66952611Y-66752611D01*
X66937066Y-66771553D01*
X66925515Y-66793164D01*
X66918402Y-66816613D01*
X66916000Y-66840999D01*
X66916000Y-66916000D01*
X66840999Y-66916000D01*
X66816613Y-66918402D01*
X66793164Y-66925515D01*
X66771553Y-66937066D01*
X66752611Y-66952611D01*
X66737066Y-66971553D01*
X66725515Y-66993164D01*
X66718402Y-67016613D01*
X66716000Y-67040999D01*
X66716000Y-67841000D01*
X65364000Y-67841000D01*
X65364000Y-67040999D01*
X65361598Y-67016613D01*
X65354485Y-66993164D01*
X65342934Y-66971553D01*
X65327389Y-66952611D01*
X65308447Y-66937066D01*
X65286836Y-66925515D01*
X65263387Y-66918402D01*
X65239001Y-66916000D01*
X65164000Y-66916000D01*
X65164000Y-66840999D01*
X65161598Y-66816613D01*
X65154485Y-66793164D01*
X65142934Y-66771553D01*
X65127389Y-66752611D01*
X65108447Y-66737066D01*
X65086836Y-66725515D01*
X65063387Y-66718402D01*
X65039001Y-66716000D01*
X64239000Y-66716000D01*
X64239000Y-65364000D01*
X65039001Y-65364000D01*
X65063387Y-65361598D01*
X65086836Y-65354485D01*
X65108447Y-65342934D01*
X65127389Y-65327389D01*
X65142934Y-65308447D01*
X65154485Y-65286836D01*
X65161598Y-65263387D01*
X65164000Y-65239001D01*
X65164000Y-65164000D01*
X65239001Y-65164000D01*
X65263387Y-65161598D01*
X65286836Y-65154485D01*
X65308447Y-65142934D01*
X65327389Y-65127389D01*
X65342934Y-65108447D01*
X65354485Y-65086836D01*
X65361598Y-65063387D01*
X65364000Y-65039001D01*
X65364000Y-64239000D01*
X66716000Y-64239000D01*
X66716000Y-65039001D01*
G37*
G36*
X90071000Y-67426000D02*
G01*
X88969000Y-67426000D01*
X88969000Y-59574000D01*
X90071000Y-59574000D01*
X90071000Y-67426000D01*
G37*
G36*
X78671000Y-67426000D02*
G01*
X77569000Y-67426000D01*
X77569000Y-59574000D01*
X78671000Y-59574000D01*
X78671000Y-67426000D01*
G37*
G36*
X98991000Y-67426000D02*
G01*
X97889000Y-67426000D01*
X97889000Y-59574000D01*
X98991000Y-59574000D01*
X98991000Y-67426000D01*
G37*
G36*
X110391000Y-67426000D02*
G01*
X109289000Y-67426000D01*
X109289000Y-59574000D01*
X110391000Y-59574000D01*
X110391000Y-67426000D01*
G37*
G36*
X87121000Y-66801000D02*
G01*
X80519000Y-66801000D01*
X80519000Y-60199000D01*
X87121000Y-60199000D01*
X87121000Y-66801000D01*
G37*
G36*
X124021000Y-57494001D02*
G01*
X124023402Y-57518387D01*
X124030515Y-57541836D01*
X124042066Y-57563447D01*
X124057611Y-57582389D01*
X124076553Y-57597934D01*
X124098164Y-57609485D01*
X124121613Y-57616598D01*
X124145999Y-57619000D01*
X124996000Y-57619000D01*
X124996000Y-60521000D01*
X124145999Y-60521000D01*
X124121613Y-60523402D01*
X124098164Y-60530515D01*
X124076553Y-60542066D01*
X124057611Y-60557611D01*
X124042066Y-60576553D01*
X124030515Y-60598164D01*
X124023402Y-60621613D01*
X124021000Y-60645999D01*
X124021000Y-61496000D01*
X121119000Y-61496000D01*
X121119000Y-60645999D01*
X121116598Y-60621613D01*
X121109485Y-60598164D01*
X121097934Y-60576553D01*
X121082389Y-60557611D01*
X121063447Y-60542066D01*
X121041836Y-60530515D01*
X121018387Y-60523402D01*
X120994001Y-60521000D01*
X120144000Y-60521000D01*
X120144000Y-57619000D01*
X120994001Y-57619000D01*
X121018387Y-57616598D01*
X121041836Y-57609485D01*
X121063447Y-57597934D01*
X121082389Y-57582389D01*
X121097934Y-57563447D01*
X121109485Y-57541836D01*
X121116598Y-57518387D01*
X121119000Y-57494001D01*
X121119000Y-56644000D01*
X124021000Y-56644000D01*
X124021000Y-57494001D01*
G37*
G36*
X154501000Y-57494001D02*
G01*
X154503402Y-57518387D01*
X154510515Y-57541836D01*
X154522066Y-57563447D01*
X154537611Y-57582389D01*
X154556553Y-57597934D01*
X154578164Y-57609485D01*
X154601613Y-57616598D01*
X154625999Y-57619000D01*
X155476000Y-57619000D01*
X155476000Y-60521000D01*
X154625999Y-60521000D01*
X154601613Y-60523402D01*
X154578164Y-60530515D01*
X154556553Y-60542066D01*
X154537611Y-60557611D01*
X154522066Y-60576553D01*
X154510515Y-60598164D01*
X154503402Y-60621613D01*
X154501000Y-60645999D01*
X154501000Y-61496000D01*
X151599000Y-61496000D01*
X151599000Y-60645999D01*
X151596598Y-60621613D01*
X151589485Y-60598164D01*
X151577934Y-60576553D01*
X151562389Y-60557611D01*
X151543447Y-60542066D01*
X151521836Y-60530515D01*
X151498387Y-60523402D01*
X151474001Y-60521000D01*
X150624000Y-60521000D01*
X150624000Y-57619000D01*
X151474001Y-57619000D01*
X151498387Y-57616598D01*
X151521836Y-57609485D01*
X151543447Y-57597934D01*
X151562389Y-57582389D01*
X151577934Y-57563447D01*
X151589485Y-57541836D01*
X151596598Y-57518387D01*
X151599000Y-57494001D01*
X151599000Y-56644000D01*
X154501000Y-56644000D01*
X154501000Y-57494001D01*
G37*
G36*
X139261000Y-57494001D02*
G01*
X139263402Y-57518387D01*
X139270515Y-57541836D01*
X139282066Y-57563447D01*
X139297611Y-57582389D01*
X139316553Y-57597934D01*
X139338164Y-57609485D01*
X139361613Y-57616598D01*
X139385999Y-57619000D01*
X140236000Y-57619000D01*
X140236000Y-60521000D01*
X139385999Y-60521000D01*
X139361613Y-60523402D01*
X139338164Y-60530515D01*
X139316553Y-60542066D01*
X139297611Y-60557611D01*
X139282066Y-60576553D01*
X139270515Y-60598164D01*
X139263402Y-60621613D01*
X139261000Y-60645999D01*
X139261000Y-61496000D01*
X136359000Y-61496000D01*
X136359000Y-60645999D01*
X136356598Y-60621613D01*
X136349485Y-60598164D01*
X136337934Y-60576553D01*
X136322389Y-60557611D01*
X136303447Y-60542066D01*
X136281836Y-60530515D01*
X136258387Y-60523402D01*
X136234001Y-60521000D01*
X135384000Y-60521000D01*
X135384000Y-57619000D01*
X136234001Y-57619000D01*
X136258387Y-57616598D01*
X136281836Y-57609485D01*
X136303447Y-57597934D01*
X136322389Y-57582389D01*
X136337934Y-57563447D01*
X136349485Y-57541836D01*
X136356598Y-57518387D01*
X136359000Y-57494001D01*
X136359000Y-56644000D01*
X139261000Y-56644000D01*
X139261000Y-57494001D01*
G37*
G36*
X108066000Y-58351000D02*
G01*
X100214000Y-58351000D01*
X100214000Y-57249000D01*
X108066000Y-57249000D01*
X108066000Y-58351000D01*
G37*
G36*
X87746000Y-58351000D02*
G01*
X79894000Y-58351000D01*
X79894000Y-57249000D01*
X87746000Y-57249000D01*
X87746000Y-58351000D01*
G37*
G36*
X66716000Y-54879001D02*
G01*
X66718402Y-54903387D01*
X66725515Y-54926836D01*
X66737066Y-54948447D01*
X66752611Y-54967389D01*
X66771553Y-54982934D01*
X66793164Y-54994485D01*
X66816613Y-55001598D01*
X66840999Y-55004000D01*
X66916000Y-55004000D01*
X66916000Y-55079001D01*
X66918402Y-55103387D01*
X66925515Y-55126836D01*
X66937066Y-55148447D01*
X66952611Y-55167389D01*
X66971553Y-55182934D01*
X66993164Y-55194485D01*
X67016613Y-55201598D01*
X67040999Y-55204000D01*
X67841000Y-55204000D01*
X67841000Y-56556000D01*
X67040999Y-56556000D01*
X67016613Y-56558402D01*
X66993164Y-56565515D01*
X66971553Y-56577066D01*
X66952611Y-56592611D01*
X66937066Y-56611553D01*
X66925515Y-56633164D01*
X66918402Y-56656613D01*
X66916000Y-56680999D01*
X66916000Y-56756000D01*
X66840999Y-56756000D01*
X66816613Y-56758402D01*
X66793164Y-56765515D01*
X66771553Y-56777066D01*
X66752611Y-56792611D01*
X66737066Y-56811553D01*
X66725515Y-56833164D01*
X66718402Y-56856613D01*
X66716000Y-56880999D01*
X66716000Y-57681000D01*
X65364000Y-57681000D01*
X65364000Y-56880999D01*
X65361598Y-56856613D01*
X65354485Y-56833164D01*
X65342934Y-56811553D01*
X65327389Y-56792611D01*
X65308447Y-56777066D01*
X65286836Y-56765515D01*
X65263387Y-56758402D01*
X65239001Y-56756000D01*
X65164000Y-56756000D01*
X65164000Y-56680999D01*
X65161598Y-56656613D01*
X65154485Y-56633164D01*
X65142934Y-56611553D01*
X65127389Y-56592611D01*
X65108447Y-56577066D01*
X65086836Y-56565515D01*
X65063387Y-56558402D01*
X65039001Y-56556000D01*
X64239000Y-56556000D01*
X64239000Y-55204000D01*
X65039001Y-55204000D01*
X65063387Y-55201598D01*
X65086836Y-55194485D01*
X65108447Y-55182934D01*
X65127389Y-55167389D01*
X65142934Y-55148447D01*
X65154485Y-55126836D01*
X65161598Y-55103387D01*
X65164000Y-55079001D01*
X65164000Y-55004000D01*
X65239001Y-55004000D01*
X65263387Y-55001598D01*
X65286836Y-54994485D01*
X65308447Y-54982934D01*
X65327389Y-54967389D01*
X65342934Y-54948447D01*
X65354485Y-54926836D01*
X65361598Y-54903387D01*
X65364000Y-54879001D01*
X65364000Y-54079000D01*
X66716000Y-54079000D01*
X66716000Y-54879001D01*
G37*
G36*
X79666000Y-44169001D02*
G01*
X79668402Y-44193387D01*
X79675515Y-44216836D01*
X79687066Y-44238447D01*
X79702611Y-44257389D01*
X79721553Y-44272934D01*
X79743164Y-44284485D01*
X79766613Y-44291598D01*
X79790999Y-44294000D01*
X80541000Y-44294000D01*
X80541000Y-47146000D01*
X79790999Y-47146000D01*
X79766613Y-47148402D01*
X79743164Y-47155515D01*
X79721553Y-47167066D01*
X79702611Y-47182611D01*
X79687066Y-47201553D01*
X79675515Y-47223164D01*
X79668402Y-47246613D01*
X79666000Y-47270999D01*
X79666000Y-48021000D01*
X77814000Y-48021000D01*
X77814000Y-47270999D01*
X77811598Y-47246613D01*
X77804485Y-47223164D01*
X77792934Y-47201553D01*
X77777389Y-47182611D01*
X77758447Y-47167066D01*
X77736836Y-47155515D01*
X77713387Y-47148402D01*
X77689001Y-47146000D01*
X76939000Y-47146000D01*
X76939000Y-44294000D01*
X77689001Y-44294000D01*
X77713387Y-44291598D01*
X77736836Y-44284485D01*
X77758447Y-44272934D01*
X77777389Y-44257389D01*
X77792934Y-44238447D01*
X77804485Y-44216836D01*
X77811598Y-44193387D01*
X77814000Y-44169001D01*
X77814000Y-43419000D01*
X79666000Y-43419000D01*
X79666000Y-44169001D01*
G37*
G36*
X122846000Y-44169001D02*
G01*
X122848402Y-44193387D01*
X122855515Y-44216836D01*
X122867066Y-44238447D01*
X122882611Y-44257389D01*
X122901553Y-44272934D01*
X122923164Y-44284485D01*
X122946613Y-44291598D01*
X122970999Y-44294000D01*
X123721000Y-44294000D01*
X123721000Y-47146000D01*
X122970999Y-47146000D01*
X122946613Y-47148402D01*
X122923164Y-47155515D01*
X122901553Y-47167066D01*
X122882611Y-47182611D01*
X122867066Y-47201553D01*
X122855515Y-47223164D01*
X122848402Y-47246613D01*
X122846000Y-47270999D01*
X122846000Y-48021000D01*
X120994000Y-48021000D01*
X120994000Y-47270999D01*
X120991598Y-47246613D01*
X120984485Y-47223164D01*
X120972934Y-47201553D01*
X120957389Y-47182611D01*
X120938447Y-47167066D01*
X120916836Y-47155515D01*
X120893387Y-47148402D01*
X120869001Y-47146000D01*
X120119000Y-47146000D01*
X120119000Y-44294000D01*
X120869001Y-44294000D01*
X120893387Y-44291598D01*
X120916836Y-44284485D01*
X120938447Y-44272934D01*
X120957389Y-44257389D01*
X120972934Y-44238447D01*
X120984485Y-44216836D01*
X120991598Y-44193387D01*
X120994000Y-44169001D01*
X120994000Y-43419000D01*
X122846000Y-43419000D01*
X122846000Y-44169001D01*
G37*
G36*
X105066000Y-44169001D02*
G01*
X105068402Y-44193387D01*
X105075515Y-44216836D01*
X105087066Y-44238447D01*
X105102611Y-44257389D01*
X105121553Y-44272934D01*
X105143164Y-44284485D01*
X105166613Y-44291598D01*
X105190999Y-44294000D01*
X105941000Y-44294000D01*
X105941000Y-47146000D01*
X105190999Y-47146000D01*
X105166613Y-47148402D01*
X105143164Y-47155515D01*
X105121553Y-47167066D01*
X105102611Y-47182611D01*
X105087066Y-47201553D01*
X105075515Y-47223164D01*
X105068402Y-47246613D01*
X105066000Y-47270999D01*
X105066000Y-48021000D01*
X103214000Y-48021000D01*
X103214000Y-47270999D01*
X103211598Y-47246613D01*
X103204485Y-47223164D01*
X103192934Y-47201553D01*
X103177389Y-47182611D01*
X103158447Y-47167066D01*
X103136836Y-47155515D01*
X103113387Y-47148402D01*
X103089001Y-47146000D01*
X102339000Y-47146000D01*
X102339000Y-44294000D01*
X103089001Y-44294000D01*
X103113387Y-44291598D01*
X103136836Y-44284485D01*
X103158447Y-44272934D01*
X103177389Y-44257389D01*
X103192934Y-44238447D01*
X103204485Y-44216836D01*
X103211598Y-44193387D01*
X103214000Y-44169001D01*
X103214000Y-43419000D01*
X105066000Y-43419000D01*
X105066000Y-44169001D01*
G37*
G36*
X140626000Y-44169001D02*
G01*
X140628402Y-44193387D01*
X140635515Y-44216836D01*
X140647066Y-44238447D01*
X140662611Y-44257389D01*
X140681553Y-44272934D01*
X140703164Y-44284485D01*
X140726613Y-44291598D01*
X140750999Y-44294000D01*
X141501000Y-44294000D01*
X141501000Y-47146000D01*
X140750999Y-47146000D01*
X140726613Y-47148402D01*
X140703164Y-47155515D01*
X140681553Y-47167066D01*
X140662611Y-47182611D01*
X140647066Y-47201553D01*
X140635515Y-47223164D01*
X140628402Y-47246613D01*
X140626000Y-47270999D01*
X140626000Y-48021000D01*
X138774000Y-48021000D01*
X138774000Y-47270999D01*
X138771598Y-47246613D01*
X138764485Y-47223164D01*
X138752934Y-47201553D01*
X138737389Y-47182611D01*
X138718447Y-47167066D01*
X138696836Y-47155515D01*
X138673387Y-47148402D01*
X138649001Y-47146000D01*
X137899000Y-47146000D01*
X137899000Y-44294000D01*
X138649001Y-44294000D01*
X138673387Y-44291598D01*
X138696836Y-44284485D01*
X138718447Y-44272934D01*
X138737389Y-44257389D01*
X138752934Y-44238447D01*
X138764485Y-44216836D01*
X138771598Y-44193387D01*
X138774000Y-44169001D01*
X138774000Y-43419000D01*
X140626000Y-43419000D01*
X140626000Y-44169001D01*
G37*
G36*
X67128500Y-44306501D02*
G01*
X67130902Y-44330887D01*
X67138015Y-44354336D01*
X67149566Y-44375947D01*
X67165111Y-44394889D01*
X67184053Y-44410434D01*
X67205664Y-44421985D01*
X67229113Y-44429098D01*
X67253499Y-44431500D01*
X67328500Y-44431500D01*
X67328500Y-44506501D01*
X67330902Y-44530887D01*
X67338015Y-44554336D01*
X67349566Y-44575947D01*
X67365111Y-44594889D01*
X67384053Y-44610434D01*
X67405664Y-44621985D01*
X67429113Y-44629098D01*
X67453499Y-44631500D01*
X68253500Y-44631500D01*
X68253500Y-45983500D01*
X67453499Y-45983500D01*
X67429113Y-45985902D01*
X67405664Y-45993015D01*
X67384053Y-46004566D01*
X67365111Y-46020111D01*
X67349566Y-46039053D01*
X67338015Y-46060664D01*
X67330902Y-46084113D01*
X67328500Y-46108499D01*
X67328500Y-46183500D01*
X67253499Y-46183500D01*
X67229113Y-46185902D01*
X67205664Y-46193015D01*
X67184053Y-46204566D01*
X67165111Y-46220111D01*
X67149566Y-46239053D01*
X67138015Y-46260664D01*
X67130902Y-46284113D01*
X67128500Y-46308499D01*
X67128500Y-47108500D01*
X65776500Y-47108500D01*
X65776500Y-46308499D01*
X65774098Y-46284113D01*
X65766985Y-46260664D01*
X65755434Y-46239053D01*
X65739889Y-46220111D01*
X65720947Y-46204566D01*
X65699336Y-46193015D01*
X65675887Y-46185902D01*
X65651501Y-46183500D01*
X65576500Y-46183500D01*
X65576500Y-46108499D01*
X65574098Y-46084113D01*
X65566985Y-46060664D01*
X65555434Y-46039053D01*
X65539889Y-46020111D01*
X65520947Y-46004566D01*
X65499336Y-45993015D01*
X65475887Y-45985902D01*
X65451501Y-45983500D01*
X64651500Y-45983500D01*
X64651500Y-44631500D01*
X65451501Y-44631500D01*
X65475887Y-44629098D01*
X65499336Y-44621985D01*
X65520947Y-44610434D01*
X65539889Y-44594889D01*
X65555434Y-44575947D01*
X65566985Y-44554336D01*
X65574098Y-44530887D01*
X65576500Y-44506501D01*
X65576500Y-44431500D01*
X65651501Y-44431500D01*
X65675887Y-44429098D01*
X65699336Y-44421985D01*
X65720947Y-44410434D01*
X65739889Y-44394889D01*
X65755434Y-44375947D01*
X65766985Y-44354336D01*
X65774098Y-44330887D01*
X65776500Y-44306501D01*
X65776500Y-43506500D01*
X67128500Y-43506500D01*
X67128500Y-44306501D01*
G37*
G36*
X93991000Y-43606000D02*
G01*
X92689000Y-43606000D01*
X92689000Y-42754000D01*
X93991000Y-42754000D01*
X93991000Y-43606000D01*
G37*
G36*
X92091000Y-43606000D02*
G01*
X90789000Y-43606000D01*
X90789000Y-42754000D01*
X92091000Y-42754000D01*
X92091000Y-43606000D01*
G37*
M02*
